<svg width="512" height="426" viewBox="0 0 512 426" fill="none" xmlns="http://www.w3.org/2000/svg">
<path d="M258.876 161.798H374.544C385.101 162.257 408.556 166.204 417.92 178.322C427.283 190.439 454.41 230.189 466.803 248.549C476.213 262.548 486.77 299.498 453.722 335.3C412.412 380.052 344.25 410.346 258.876 423.428C253.139 424.116 236.569 425.493 216.189 425.493H0C12.1635 408.969 35.1135 375.921 45.441 375.921C54.3915 375.921 220.32 377.987 233.402 375.921C246.483 373.856 364.217 360.086 433.067 282.974C437.984 277.466 439.263 269.892 439.263 261.63C410.346 263.466 345.489 262.181 317.399 242.352C289.308 222.523 266.679 180.387 258.876 161.798Z" fill="#E76F23"/>
<path d="M53.703 364.217C68.1615 348.381 106.993 316.71 146.651 316.71H317.399C340.119 316.94 388.865 314.92 402.084 305.006C380.052 321.53 316.435 356.505 238.221 364.217C184.977 364.905 120.488 365.594 53.703 364.217Z" fill="#E76F23"/>
<path d="M253.124 263.696H137.456C126.899 263.237 103.444 259.289 94.0804 247.172C84.7168 235.054 57.5899 195.305 45.1969 176.945C35.7874 162.945 25.2304 125.996 58.2784 90.1935C99.5884 45.441 167.75 15.147 253.124 2.06554C258.861 1.37704 275.431 3.8743e-05 295.811 3.8743e-05H512C499.836 16.524 476.886 49.572 466.559 49.572C457.608 49.572 291.68 47.5065 278.598 49.572C265.517 51.6375 147.783 65.4075 78.9334 142.52C74.0156 148.028 72.7369 155.601 72.7369 163.863C101.654 162.027 166.511 163.312 194.601 183.141C222.692 202.97 245.321 245.106 253.124 263.696Z" fill="#0068D3"/>
<path d="M458.297 61.2765C443.838 77.112 405.007 108.783 365.349 108.783H194.601C171.881 108.554 123.135 110.573 109.916 120.488C131.948 103.964 195.565 68.9877 273.779 61.2765C327.023 60.588 391.512 59.8995 458.297 61.2765Z" fill="#0068D3"/>
</svg>
