<svg width="1613" height="426" viewBox="0 0 1613 426" fill="none" xmlns="http://www.w3.org/2000/svg">
<path d="M258.876 161.797H374.544C385.101 162.256 408.556 166.204 417.92 178.321C427.283 190.439 454.41 230.188 466.803 248.548C476.213 262.548 486.77 299.497 453.722 335.299C412.412 380.052 344.25 410.346 258.876 423.428C253.139 424.116 236.569 425.493 216.189 425.493H0C12.1635 408.969 35.1135 375.921 45.441 375.921C54.3915 375.921 220.32 377.987 233.402 375.921C246.483 373.855 364.217 360.085 433.067 282.973C437.984 277.465 439.263 269.892 439.263 261.63C410.346 263.466 345.489 262.181 317.399 242.352C289.308 222.523 266.679 180.387 258.876 161.797Z" fill="#E76F23"/>
<path d="M53.703 364.216C68.1615 348.381 106.993 316.71 146.651 316.71H317.399C340.119 316.939 388.865 314.92 402.084 305.005C380.052 321.529 316.435 356.505 238.221 364.216C184.977 364.905 120.488 365.593 53.703 364.216Z" fill="#E76F23"/>
<path d="M253.124 263.696H137.456C126.899 263.237 103.444 259.289 94.0804 247.172C84.7168 235.054 57.5899 195.305 45.1969 176.945C35.7874 162.945 25.2304 125.996 58.2784 90.1935C99.5884 45.441 167.75 15.147 253.124 2.06554C258.861 1.37704 275.431 3.8743e-05 295.811 3.8743e-05H512C499.836 16.524 476.886 49.572 466.559 49.572C457.608 49.572 291.68 47.5065 278.598 49.572C265.517 51.6375 147.783 65.4075 78.9334 142.52C74.0156 148.028 72.7369 155.601 72.7369 163.863C101.654 162.027 166.511 163.312 194.601 183.141C222.692 202.97 245.321 245.106 253.124 263.696Z" fill="#0068D3"/>
<path d="M458.297 61.2765C443.838 77.112 405.007 108.783 365.349 108.783H194.601C171.881 108.554 123.135 110.573 109.916 120.488C131.948 103.964 195.565 68.9877 273.779 61.2765C327.023 60.588 391.512 59.8995 458.297 61.2765Z" fill="#0068D3"/>
<path d="M701.08 73.8977H679.83C679.223 70.4128 678.106 67.3257 676.477 64.6363C674.848 61.909 672.822 59.5984 670.398 57.7045C667.973 55.8106 665.208 54.3901 662.102 53.4431C659.034 52.4583 655.72 51.9659 652.159 51.9659C645.833 51.9659 640.227 53.5568 635.341 56.7386C630.455 59.8825 626.629 64.5037 623.864 70.6022C621.098 76.6628 619.716 84.0681 619.716 92.8181C619.716 101.72 621.098 109.22 623.864 115.318C626.667 121.379 630.492 125.962 635.341 129.068C640.227 132.136 645.814 133.67 652.102 133.67C655.587 133.67 658.845 133.216 661.875 132.307C664.943 131.36 667.689 129.977 670.114 128.159C672.576 126.341 674.64 124.106 676.307 121.455C678.011 118.803 679.186 115.773 679.83 112.364L701.08 112.477C700.284 118.008 698.561 123.197 695.909 128.045C693.295 132.894 689.867 137.174 685.625 140.886C681.383 144.561 676.42 147.439 670.739 149.523C665.057 151.568 658.75 152.591 651.818 152.591C641.591 152.591 632.462 150.223 624.432 145.489C616.401 140.754 610.076 133.917 605.455 124.977C600.833 116.038 598.523 105.318 598.523 92.8181C598.523 80.2803 600.852 69.5606 605.511 60.659C610.17 51.7197 616.515 44.8825 624.545 40.1477C632.576 35.4128 641.667 33.0454 651.818 33.0454C658.295 33.0454 664.318 33.9545 669.886 35.7727C675.455 37.5909 680.417 40.2613 684.773 43.784C689.129 47.2689 692.708 51.5492 695.511 56.625C698.352 61.6628 700.208 67.4204 701.08 73.8977Z" fill="black"/>
<path d="M735.952 34.6363L766.236 126.227H767.429L797.656 34.6363H820.838L779.815 151H753.793L712.827 34.6363H735.952Z" fill="black"/>
<path d="M832.457 152.25C829.01 152.25 826.056 151.038 823.594 148.614C821.132 146.189 819.919 143.235 819.957 139.75C819.919 136.341 821.132 133.424 823.594 131C826.056 128.576 829.01 127.364 832.457 127.364C835.791 127.364 838.688 128.576 841.151 131C843.651 133.424 844.919 136.341 844.957 139.75C844.919 142.061 844.313 144.163 843.139 146.057C842.003 147.951 840.488 149.466 838.594 150.602C836.738 151.701 834.692 152.25 832.457 152.25Z" fill="black"/>
<path d="M966.435 66.625C965.904 61.6628 963.669 57.7992 959.73 55.034C955.829 52.2689 950.753 50.8863 944.503 50.8863C940.109 50.8863 936.34 51.5492 933.196 52.875C930.052 54.2007 927.647 56 925.98 58.2727C924.313 60.5454 923.461 63.1401 923.423 66.0568C923.423 68.481 923.972 70.5833 925.071 72.3636C926.207 74.1439 927.741 75.659 929.673 76.909C931.605 78.1212 933.745 79.1439 936.094 79.9772C938.442 80.8106 940.81 81.5113 943.196 82.0795L954.105 84.8068C958.499 85.8295 962.723 87.2121 966.776 88.9545C970.866 90.6969 974.522 92.8939 977.741 95.5454C980.999 98.1969 983.575 101.398 985.469 105.148C987.363 108.898 988.31 113.292 988.31 118.33C988.31 125.148 986.567 131.151 983.082 136.341C979.598 141.492 974.56 145.526 967.969 148.443C961.416 151.322 953.48 152.761 944.162 152.761C935.109 152.761 927.249 151.36 920.582 148.557C913.954 145.754 908.764 141.663 905.014 136.284C901.302 130.905 899.294 124.352 898.991 116.625H919.73C920.033 120.678 921.283 124.049 923.48 126.739C925.677 129.428 928.537 131.436 932.06 132.761C935.62 134.087 939.598 134.75 943.991 134.75C948.575 134.75 952.59 134.068 956.037 132.705C959.522 131.303 962.249 129.371 964.219 126.909C966.188 124.409 967.192 121.492 967.23 118.159C967.192 115.129 966.302 112.629 964.56 110.659C962.817 108.651 960.374 106.985 957.23 105.659C954.124 104.295 950.488 103.083 946.321 102.023L933.082 98.6136C923.499 96.1515 915.923 92.4204 910.355 87.4204C904.825 82.3825 902.06 75.6969 902.06 67.3636C902.06 60.5075 903.916 54.5037 907.628 49.3522C911.378 44.2007 916.473 40.2045 922.912 37.3636C929.351 34.4848 936.643 33.0454 944.787 33.0454C953.044 33.0454 960.279 34.4848 966.491 37.3636C972.741 40.2045 977.647 44.1628 981.207 49.2386C984.768 54.2765 986.605 60.0719 986.719 66.625H966.435Z" fill="black"/>
<path d="M1028.18 34.6363V151H1007.1V34.6363H1028.18Z" fill="black"/>
<path d="M1146.63 34.6363V151H1127.88L1073.05 71.7386H1072.09V151H1051.01V34.6363H1069.87L1124.64 113.955H1125.67V34.6363H1146.63Z" fill="black"/>
<path d="M1169.6 151V34.6363H1245.28V52.3068H1190.68V83.8977H1241.36V101.568H1190.68V133.33H1245.74V151H1169.6Z" fill="black"/>
<path d="M1266.79 151V34.6363H1310.43C1319.37 34.6363 1326.87 36.1894 1332.93 39.2954C1339.02 42.4015 1343.63 46.7575 1346.73 52.3636C1349.88 57.9318 1351.45 64.428 1351.45 71.8522C1351.45 79.3144 1349.86 85.7916 1346.68 91.284C1343.53 96.7386 1338.89 100.962 1332.76 103.955C1326.62 106.909 1319.08 108.386 1310.14 108.386H1279.06V90.8863H1307.3C1312.53 90.8863 1316.81 90.1666 1320.14 88.7272C1323.48 87.25 1325.94 85.1098 1327.53 82.3068C1329.16 79.4659 1329.97 75.981 1329.97 71.8522C1329.97 67.7234 1329.16 64.2007 1327.53 61.284C1325.9 58.3295 1323.42 56.0947 1320.09 54.5795C1316.75 53.0265 1312.45 52.25 1307.19 52.25H1287.87V151H1266.79ZM1326.9 98.2727L1355.71 151H1332.19L1303.89 98.2727H1326.9Z" fill="black"/>
<path d="M1448.81 71.7954C1447.86 68.7272 1446.55 65.981 1444.89 63.5568C1443.26 61.0947 1441.29 58.9924 1438.98 57.25C1436.7 55.5075 1434.09 54.2007 1431.14 53.3295C1428.18 52.4204 1424.96 51.9659 1421.48 51.9659C1415.23 51.9659 1409.66 53.5378 1404.77 56.6818C1399.89 59.8257 1396.04 64.4469 1393.24 70.5454C1390.47 76.606 1389.09 83.9924 1389.09 92.7045C1389.09 101.492 1390.47 108.936 1393.24 115.034C1396 121.133 1399.85 125.773 1404.77 128.955C1409.7 132.098 1415.42 133.67 1421.93 133.67C1427.84 133.67 1432.95 132.534 1437.27 130.261C1441.63 127.989 1444.98 124.769 1447.33 120.602C1449.68 116.398 1450.85 111.473 1450.85 105.83L1455.62 106.568H1424.03V90.0909H1471.25V104.068C1471.25 114.03 1469.13 122.648 1464.89 129.92C1460.64 137.193 1454.81 142.799 1447.39 146.739C1439.96 150.64 1431.44 152.591 1421.82 152.591C1411.1 152.591 1401.69 150.186 1393.58 145.375C1385.51 140.526 1379.2 133.651 1374.66 124.75C1370.15 115.811 1367.9 105.205 1367.9 92.9318C1367.9 83.5378 1369.22 75.1477 1371.88 67.7613C1374.56 60.375 1378.31 54.106 1383.12 48.9545C1387.94 43.7651 1393.58 39.8257 1400.06 37.1363C1406.53 34.409 1413.58 33.0454 1421.19 33.0454C1427.63 33.0454 1433.64 33.9924 1439.2 35.8863C1444.77 37.7424 1449.72 40.3939 1454.03 43.8409C1458.39 47.2878 1461.97 51.3787 1464.77 56.1136C1467.58 60.8484 1469.41 66.0757 1470.28 71.7954H1448.81Z" fill="black"/>
<path d="M1512.71 34.6363V151H1491.63V34.6363H1512.71Z" fill="black"/>
<path d="M601.477 391V274.636H622.557V373.33H673.807V391H601.477Z" fill="black"/>
<path d="M713.182 274.636V391H692.102V274.636H713.182Z" fill="black"/>
<path d="M831.634 274.636V391H812.884L758.054 311.739H757.088V391H736.009V274.636H754.872L809.645 353.955H810.668V274.636H831.634Z" fill="black"/>
<path d="M849.489 292.307V274.636H942.33V292.307H906.364V391H885.455V292.307H849.489Z" fill="black"/>
<path d="M961.108 391H938.608L979.574 274.636H1005.6L1046.62 391H1024.12L993.04 298.5H992.131L961.108 391ZM961.847 345.375H1023.21V362.307H961.847V345.375Z" fill="black"/>
<path d="M1123.31 306.625C1122.78 301.663 1120.54 297.799 1116.61 295.034C1112.7 292.269 1107.63 290.886 1101.38 290.886C1096.98 290.886 1093.21 291.549 1090.07 292.875C1086.93 294.201 1084.52 296 1082.86 298.273C1081.19 300.545 1080.34 303.14 1080.3 306.057C1080.3 308.481 1080.85 310.583 1081.95 312.364C1083.08 314.144 1084.62 315.659 1086.55 316.909C1088.48 318.121 1090.62 319.144 1092.97 319.977C1095.32 320.811 1097.68 321.511 1100.07 322.08L1110.98 324.807C1115.37 325.83 1119.6 327.212 1123.65 328.955C1127.74 330.697 1131.4 332.894 1134.62 335.545C1137.87 338.197 1140.45 341.398 1142.34 345.148C1144.24 348.898 1145.18 353.292 1145.18 358.33C1145.18 365.148 1143.44 371.151 1139.96 376.341C1136.47 381.492 1131.43 385.526 1124.84 388.443C1118.29 391.322 1110.36 392.761 1101.04 392.761C1091.98 392.761 1084.12 391.36 1077.46 388.557C1070.83 385.754 1065.64 381.663 1061.89 376.284C1058.18 370.905 1056.17 364.352 1055.87 356.625H1076.61C1076.91 360.678 1078.16 364.049 1080.36 366.739C1082.55 369.428 1085.41 371.436 1088.93 372.761C1092.5 374.087 1096.47 374.75 1100.87 374.75C1105.45 374.75 1109.46 374.068 1112.91 372.705C1116.4 371.303 1119.12 369.371 1121.09 366.909C1123.06 364.409 1124.07 361.492 1124.11 358.159C1124.07 355.129 1123.18 352.629 1121.43 350.659C1119.69 348.651 1117.25 346.985 1114.11 345.659C1111 344.295 1107.36 343.083 1103.2 342.023L1089.96 338.614C1080.37 336.151 1072.8 332.42 1067.23 327.42C1061.7 322.383 1058.93 315.697 1058.93 307.364C1058.93 300.508 1060.79 294.504 1064.5 289.352C1068.25 284.201 1073.35 280.204 1079.79 277.364C1086.23 274.485 1093.52 273.045 1101.66 273.045C1109.92 273.045 1117.15 274.485 1123.37 277.364C1129.62 280.204 1134.52 284.163 1138.08 289.239C1141.64 294.276 1143.48 300.072 1143.59 306.625H1123.31Z" fill="black"/>
<path d="M1203.66 391V274.636H1247.3C1256.24 274.636 1263.74 276.189 1269.8 279.295C1275.9 282.401 1280.5 286.758 1283.61 292.364C1286.75 297.932 1288.32 304.428 1288.32 311.852C1288.32 319.314 1286.73 325.792 1283.55 331.284C1280.41 336.739 1275.77 340.962 1269.63 343.955C1263.49 346.909 1255.96 348.386 1247.02 348.386H1215.94V330.886H1244.18C1249.4 330.886 1253.68 330.167 1257.02 328.727C1260.35 327.25 1262.81 325.11 1264.4 322.307C1266.03 319.466 1266.85 315.981 1266.85 311.852C1266.85 307.723 1266.03 304.201 1264.4 301.284C1262.77 298.33 1260.29 296.095 1256.96 294.579C1253.63 293.026 1249.33 292.25 1244.06 292.25H1224.74V391H1203.66ZM1263.78 338.273L1292.59 391H1269.06L1240.77 338.273H1263.78Z" fill="black"/>
<path d="M1322.67 391H1300.17L1341.14 274.636H1367.16L1408.18 391H1385.68L1354.6 298.5H1353.69L1322.67 391ZM1323.41 345.375H1384.77V362.307H1323.41V345.375Z" fill="black"/>
<path d="M1403.68 274.636H1427.49L1455.95 326.114H1457.09L1485.55 274.636H1509.36L1467.03 347.591V391H1446.01V347.591L1403.68 274.636Z" fill="black"/>
<path d="M1527.36 391H1504.86L1545.82 274.636H1571.85L1612.87 391H1590.37L1559.29 298.5H1558.38L1527.36 391ZM1528.1 345.375H1589.46V362.307H1528.1V345.375Z" fill="black"/>
</svg>
