<svg width="500" height="500" viewBox="0 0 500 500" fill="none" xmlns="http://www.w3.org/2000/svg">
<path d="M500 382.4H0V382.65H500V382.4Z" fill="#EBEBEB"/>
<path d="M449.9 398.49H416.78V398.74H449.9V398.49Z" fill="#EBEBEB"/>
<path d="M331.22 401.21H322.53V401.46H331.22V401.21Z" fill="#EBEBEB"/>
<path d="M415.78 389.21H396.59V389.46H415.78V389.21Z" fill="#EBEBEB"/>
<path d="M95.65 390.89H52.46V391.14H95.65V390.89Z" fill="#EBEBEB"/>
<path d="M110.89 390.89H104.56V391.14H110.89V390.89Z" fill="#EBEBEB"/>
<path d="M225.15 395.11H131.47V395.36H225.15V395.11Z" fill="#EBEBEB"/>
<path d="M237 337.8H43.91C42.3973 337.797 40.9475 337.195 39.8788 336.124C38.8102 335.054 38.21 333.603 38.21 332.09V60.66C38.2231 59.156 38.8292 57.718 39.8964 56.6582C40.9637 55.5985 42.4059 55.0026 43.91 55H237C238.514 55 239.967 55.6016 241.038 56.6724C242.108 57.7433 242.71 59.1956 242.71 60.71V332.09C242.71 333.604 242.108 335.057 241.038 336.128C239.967 337.198 238.514 337.8 237 337.8V337.8ZM43.91 55.2C42.4636 55.2026 41.0774 55.7791 40.0556 56.8027C39.0338 57.8264 38.46 59.2136 38.46 60.66V332.09C38.46 333.536 39.0338 334.924 40.0556 335.947C41.0774 336.971 42.4636 337.547 43.91 337.55H237C238.447 337.547 239.834 336.971 240.858 335.948C241.881 334.924 242.457 333.537 242.46 332.09V60.66C242.457 59.2127 241.881 57.8255 240.858 56.8021C239.834 55.7787 238.447 55.2026 237 55.2H43.91Z" fill="#EBEBEB"/>
<path d="M453.31 337.8H260.21C258.696 337.797 257.246 337.195 256.175 336.125C255.105 335.054 254.503 333.604 254.5 332.09V60.66C254.516 59.1551 255.124 57.7171 256.193 56.6576C257.262 55.5981 258.705 55.0025 260.21 55H453.31C454.812 55.0052 456.252 55.6022 457.317 56.6617C458.382 57.7212 458.987 59.1578 459 60.66V332.09C459 333.601 458.401 335.05 457.335 336.121C456.268 337.191 454.821 337.795 453.31 337.8V337.8ZM260.21 55.2C258.763 55.2026 257.375 55.7787 256.352 56.8021C255.329 57.8255 254.753 59.2127 254.75 60.66V332.09C254.753 333.537 255.329 334.924 256.352 335.948C257.375 336.971 258.763 337.547 260.21 337.55H453.31C454.757 337.547 456.145 336.971 457.168 335.948C458.191 334.924 458.767 333.537 458.77 332.09V60.66C458.767 59.2127 458.191 57.8255 457.168 56.8021C456.145 55.7787 454.757 55.2026 453.31 55.2H260.21Z" fill="#EBEBEB"/>
<path d="M139.09 344.7L144 355.94C144.922 358.065 146.445 359.873 148.382 361.144C150.318 362.414 152.584 363.091 154.9 363.09H175.37C178.086 363.089 180.689 362.01 182.61 360.09H220.84C222.317 360.09 223.772 359.739 225.087 359.066C226.401 358.394 227.537 357.418 228.4 356.22L233.45 349.22L139.09 344.7Z" fill="#E0E0E0"/>
<path d="M170.24 300.14C170.24 305.53 191.72 343.81 193.87 345.33C196.02 346.85 224.06 345.15 224.06 345.15L222 353.09H145L113 291L134.15 260.47L172.7 261.54C172.7 261.54 170.24 294.76 170.24 300.14Z" fill="#E6E6E6"/>
<path d="M170.24 300.14C170.24 305.53 191.72 343.81 193.87 345.33C196.02 346.85 224.06 345.15 224.06 345.15L222 353.09H145L113 291L134.15 260.47L172.7 261.54C172.7 261.54 170.24 294.76 170.24 300.14Z" fill="#F0F0F0"/>
<path d="M107.69 382.67C125.037 382.67 139.1 365.706 139.1 344.78C139.1 323.854 125.037 306.89 107.69 306.89C90.3428 306.89 76.28 323.854 76.28 344.78C76.28 365.706 90.3428 382.67 107.69 382.67Z" fill="#E0E0E0"/>
<path d="M102.43 368.68C113.371 368.68 122.24 357.979 122.24 344.78C122.24 331.58 113.371 320.88 102.43 320.88C91.4894 320.88 82.6201 331.58 82.6201 344.78C82.6201 357.979 91.4894 368.68 102.43 368.68Z" fill="#EBEBEB"/>
<path d="M97.8799 334.51C93.3199 334.51 89.6299 338.96 89.6299 344.46C89.6299 349.96 93.3199 354.46 97.8799 354.46C102.44 354.46 106.13 350 106.13 344.46C106.13 338.92 102.44 334.51 97.8799 334.51Z" fill="#E6E6E6"/>
<path d="M97.8799 334.51C93.3199 334.51 89.6299 338.96 89.6299 344.46C89.6299 349.96 93.3199 354.46 97.8799 354.46C102.44 354.46 106.13 350 106.13 344.46C106.13 338.92 102.44 334.51 97.8799 334.51Z" fill="#E0E0E0"/>
<path d="M282.66 287.54C282.66 287.54 254.31 309.28 243.5 354.09H198.1L241.1 284.09L263.78 274.66L282.66 287.54Z" fill="#E6E6E6"/>
<path d="M285.64 285.33C285.64 285.33 259.12 305.61 246.46 343.74C245.481 346.743 243.579 349.359 241.026 351.218C238.473 353.076 235.398 354.082 232.24 354.09H198.1L241.1 284.09L263.78 274.66L285.64 285.33Z" fill="#E0E0E0"/>
<path d="M282.86 287.09H265.35C262.027 287.054 258.769 288.007 255.99 289.83C245.6 296.75 220.99 316.05 218.43 346.63C218.27 348.648 217.36 350.533 215.879 351.914C214.399 353.295 212.455 354.071 210.43 354.09H134.32C121.531 354.091 108.97 350.699 97.92 344.26L76.16 331.58C73.8194 330.207 71.9669 328.136 70.8622 325.658C69.7575 323.18 69.456 320.418 70 317.76C72.59 305.28 79.89 283.84 100.78 275.46C101.11 275.31 100.61 275.18 101.61 275.06V262.06H156.17C156.17 262.06 145.23 288.15 145.23 298.91C145.23 309.1 155.99 348.06 169.91 352.06H188.91C191.435 351.998 193.9 351.273 196.056 349.956C198.211 348.639 199.982 346.778 201.19 344.56C210.45 328.03 231.02 285.17 224.61 244.66C223.86 239.93 227.5 235.06 232.3 235.06H256.8C256.8 235.06 278.85 260.58 285.94 282.15C286.65 284.28 285.08 287.09 282.86 287.09Z" fill="#E6E6E6"/>
<path d="M243.56 227H236.56C234.722 226.995 232.94 226.364 231.51 225.21L217.12 213.56C216.553 213.102 215.848 212.852 215.12 212.85H187.49C186.96 212.85 186.451 212.639 186.076 212.264C185.701 211.889 185.49 211.38 185.49 210.85C185.49 210.319 185.701 209.81 186.076 209.435C186.451 209.06 186.96 208.85 187.49 208.85H215.13C216.775 208.852 218.37 209.416 219.65 210.45L234.05 222.1C234.764 222.682 235.658 223 236.58 223H243.58C244.552 222.996 245.49 222.643 246.224 222.006C246.958 221.37 247.439 220.491 247.58 219.53L248.21 215.04C248.461 213.325 249.319 211.758 250.627 210.622C251.935 209.487 253.608 208.858 255.34 208.85H260.61C261.14 208.85 261.649 209.06 262.024 209.435C262.399 209.81 262.61 210.319 262.61 210.85C262.61 211.38 262.399 211.889 262.024 212.264C261.649 212.639 261.14 212.85 260.61 212.85H255.34C254.57 212.853 253.827 213.133 253.245 213.637C252.664 214.142 252.282 214.838 252.17 215.6L251.54 220.09C251.259 222.007 250.299 223.759 248.834 225.028C247.37 226.296 245.498 226.996 243.56 227V227Z" fill="#E0E0E0"/>
<path d="M231.24 218.49C231.24 218.49 231.33 223.21 226.9 222.91L225.46 228C225.255 228.721 225.203 229.478 225.308 230.22C225.413 230.962 225.673 231.674 226.07 232.31L229.2 237.31H258.2L260.48 233.01C260.845 232.326 260.983 231.543 260.873 230.775C260.764 230.008 260.412 229.295 259.87 228.74L251.27 220C250.818 219.535 250.277 219.165 249.679 218.912C249.081 218.66 248.439 218.53 247.79 218.53L231.24 218.49Z" fill="#E6E6E6"/>
<path d="M231.24 218.49C231.24 218.49 231.33 223.21 226.9 222.91L225.46 228C225.255 228.721 225.203 229.478 225.308 230.22C225.413 230.962 225.673 231.674 226.07 232.31L229.2 237.31H258.2L260.48 233.01C260.845 232.326 260.983 231.543 260.873 230.775C260.764 230.008 260.412 229.295 259.87 228.74L251.27 220C250.818 219.535 250.277 219.165 249.679 218.912C249.081 218.66 248.439 218.53 247.79 218.53L231.24 218.49Z" fill="#E0E0E0"/>
<path d="M281.04 382.67C298.387 382.67 312.45 365.706 312.45 344.78C312.45 323.854 298.387 306.89 281.04 306.89C263.693 306.89 249.63 323.854 249.63 344.78C249.63 365.706 263.693 382.67 281.04 382.67Z" fill="#E0E0E0"/>
<path d="M275.79 368.68C286.731 368.68 295.6 357.979 295.6 344.78C295.6 331.58 286.731 320.88 275.79 320.88C264.849 320.88 255.98 331.58 255.98 344.78C255.98 357.979 264.849 368.68 275.79 368.68Z" fill="#EBEBEB"/>
<path d="M312 320.34C308.69 314.72 299.84 302.54 283.93 298.98C279.853 298.023 275.625 297.901 271.5 298.62L271.43 298.45L271.5 298.3H271.38L268.64 292.06H265.53C263.005 292.06 260.548 292.882 258.53 294.4L253.07 298.5L255.64 307.41C254.893 308.208 254.199 309.053 253.56 309.94C248.952 315.66 245.811 322.419 244.41 329.63C244.364 329.931 244.383 330.238 244.467 330.531C244.551 330.823 244.697 331.095 244.896 331.325C245.094 331.556 245.341 331.741 245.617 331.868C245.894 331.995 246.195 332.06 246.5 332.06H248.14C248.57 332.067 248.992 331.942 249.35 331.703C249.707 331.463 249.983 331.12 250.14 330.72C251.603 326.85 253.925 323.363 256.93 320.52L266 344.26L273.33 341.18L270.76 311.62C270.76 311.62 287.62 306.89 298.66 320.52C299.302 321.319 300.115 321.964 301.039 322.409C301.963 322.854 302.975 323.086 304 323.09H310.41C310.732 323.091 311.049 323.007 311.329 322.847C311.609 322.686 311.841 322.455 312.002 322.176C312.164 321.896 312.248 321.58 312.248 321.257C312.248 320.935 312.162 320.618 312 320.34V320.34Z" fill="#E6E6E6"/>
<path d="M312 320.34C308.69 314.72 299.84 302.54 283.93 298.98C279.853 298.023 275.625 297.901 271.5 298.62L271.43 298.45L271.5 298.3H271.38L268.64 292.06H265.53C263.005 292.06 260.548 292.882 258.53 294.4L253.07 298.5L255.64 307.41C254.893 308.208 254.199 309.053 253.56 309.94C248.952 315.66 245.811 322.419 244.41 329.63C244.364 329.931 244.383 330.238 244.467 330.531C244.551 330.823 244.697 331.095 244.896 331.325C245.094 331.556 245.341 331.741 245.617 331.868C245.894 331.995 246.195 332.06 246.5 332.06H248.14C248.57 332.067 248.992 331.942 249.35 331.703C249.707 331.463 249.983 331.12 250.14 330.72C251.603 326.85 253.925 323.363 256.93 320.52L266 344.26L273.33 341.18L270.76 311.62C270.76 311.62 287.62 306.89 298.66 320.52C299.302 321.319 300.115 321.964 301.039 322.409C301.963 322.854 302.975 323.086 304 323.09H310.41C310.732 323.091 311.049 323.007 311.329 322.847C311.609 322.686 311.841 322.455 312.002 322.176C312.164 321.896 312.248 321.58 312.248 321.257C312.248 320.935 312.162 320.618 312 320.34V320.34Z" fill="#F0F0F0"/>
<path d="M271.24 334.51C266.68 334.51 262.99 338.96 262.99 344.46C262.99 349.96 266.68 354.46 271.24 354.46C275.8 354.46 279.49 350 279.49 344.46C279.49 338.92 275.8 334.51 271.24 334.51Z" fill="#E6E6E6"/>
<path d="M271.24 334.51C266.68 334.51 262.99 338.96 262.99 344.46C262.99 349.96 266.68 354.46 271.24 354.46C275.8 354.46 279.49 350 279.49 344.46C279.49 338.92 275.8 334.51 271.24 334.51Z" fill="#E0E0E0"/>
<path d="M241.53 238.46C241.53 238.46 246.72 271.13 263.86 271.36C279.93 271.57 281.43 240.89 266.1 236.18C253.72 232.37 241.53 238.46 241.53 238.46Z" fill="#E6E6E6"/>
<path d="M241.53 238.46C241.53 238.46 246.72 271.13 263.86 271.36C279.93 271.57 281.43 240.89 266.1 236.18C253.72 232.37 241.53 238.46 241.53 238.46Z" fill="#F0F0F0"/>
<path d="M265.667 268.421C272.148 267.642 276.597 260.315 275.603 252.057C274.61 243.799 268.55 237.737 262.069 238.517C255.588 239.297 251.139 246.623 252.132 254.881C253.126 263.139 259.185 269.201 265.667 268.421Z" fill="#F5F5F5"/>
<path d="M259.42 232.05H244.53L245.71 230.13H259.42V232.05Z" fill="#E6E6E6"/>
<path d="M177.59 260.71V264.47C177.59 267.88 174.8 270.09 171.38 270.09H103.76C100.33 270.09 97.5901 267.88 97.5901 264.47V260.71C97.5901 257.3 100.33 255.09 103.76 255.09H171.38C174.8 255.09 177.59 257.3 177.59 260.71Z" fill="#E0E0E0"/>
<path d="M155.59 260.71V264.47C155.628 265.23 155.503 265.989 155.225 266.697C154.947 267.406 154.521 268.047 153.977 268.578C153.432 269.109 152.781 269.519 152.066 269.78C151.351 270.04 150.589 270.146 149.83 270.09H103.76C100.33 270.09 97.5901 267.88 97.5901 264.47V260.71C97.5901 257.3 100.33 255.09 103.76 255.09H149.83C150.589 255.034 151.351 255.139 152.066 255.4C152.781 255.661 153.432 256.07 153.977 256.602C154.521 257.133 154.947 257.774 155.225 258.482C155.503 259.191 155.628 259.95 155.59 260.71Z" fill="#F0F0F0"/>
<path d="M147.08 330V354.12H134.32C121.531 354.121 108.97 350.729 97.92 344.29L76.16 331.58C73.8194 330.207 71.9669 328.137 70.8622 325.658C69.7575 323.18 69.456 320.418 70 317.76C72.59 305.28 80 283.84 100.93 275.46L101.93 275.51H110.38C115.255 275.512 120.028 276.904 124.14 279.522C128.253 282.139 131.534 285.875 133.6 290.29L142.6 309.59C145.569 315.983 147.098 322.951 147.08 330Z" fill="#F0F0F0"/>
<path d="M203.548 195.304L201.959 196.519L212.791 210.681L214.38 209.466L203.548 195.304Z" fill="#E0E0E0"/>
<path d="M197 193.59H202.1C202.63 193.591 203.147 193.747 203.59 194.038C204.032 194.33 204.38 194.744 204.59 195.23L205.27 196.82C205.445 197.232 205.515 197.68 205.475 198.126C205.434 198.571 205.284 199 205.037 199.373C204.791 199.747 204.455 200.053 204.062 200.265C203.668 200.478 203.227 200.589 202.78 200.59H197.23C196.579 200.592 195.948 200.358 195.456 199.931C194.963 199.505 194.642 198.915 194.55 198.27L194.32 196.68C194.266 196.296 194.294 195.905 194.404 195.533C194.514 195.161 194.702 194.817 194.956 194.524C195.21 194.231 195.524 193.996 195.877 193.835C196.229 193.674 196.612 193.59 197 193.59V193.59Z" fill="#E6E6E6"/>
<path d="M254.437 197.544L251.771 210.206L253.728 210.618L256.394 197.956L254.437 197.544Z" fill="#E0E0E0"/>
<path d="M261.41 193.59H255.92C255.382 193.589 254.862 193.784 254.456 194.136C254.05 194.489 253.785 194.977 253.71 195.51L253.34 198.04C253.296 198.357 253.32 198.68 253.411 198.988C253.502 199.295 253.658 199.579 253.869 199.821C254.079 200.062 254.339 200.256 254.631 200.389C254.923 200.522 255.239 200.59 255.56 200.59H261C261.538 200.59 262.058 200.396 262.464 200.043C262.87 199.69 263.135 199.203 263.21 198.67L263.58 196.14C263.624 195.827 263.601 195.508 263.512 195.204C263.424 194.9 263.272 194.619 263.067 194.378C262.862 194.137 262.609 193.942 262.323 193.806C262.037 193.67 261.726 193.597 261.41 193.59Z" fill="#E6E6E6"/>
<path d="M118.1 255.09V268.76L120.5 270.09V277.63C107.6 279.77 100.06 306.37 100.06 306.37H55.84C54.8721 306.37 53.9138 306.179 53.0196 305.809C52.1254 305.438 51.313 304.895 50.6286 304.211C49.9442 303.527 49.4014 302.714 49.031 301.82C48.6606 300.926 48.47 299.968 48.47 299V168.51C48.47 166.555 49.2465 164.68 50.6286 163.298C52.0107 161.916 53.8853 161.14 55.84 161.14H142.47C143.632 161.137 144.778 161.415 145.81 161.95C147.017 162.568 148.029 163.508 148.735 164.665C149.441 165.823 149.813 167.154 149.81 168.51V255.09H118.1Z" fill="#E6E6E6"/>
<path d="M118.1 255.09V268.76L120.5 270.09V277.63C107.6 279.77 100.06 306.37 100.06 306.37H91V168.45C91 166.726 91.6848 165.073 92.9038 163.854C94.1228 162.635 95.7761 161.95 97.5 161.95H145.83C147.037 162.568 148.049 163.508 148.755 164.666C149.461 165.824 149.833 167.154 149.83 168.51V255.09H118.1Z" fill="#EBEBEB"/>
<path d="M451.89 90.7998H308.78V381.32H451.89V90.7998Z" fill="#EBEBEB"/>
<path d="M418.94 123.9H384.61V158.23H418.94V123.9Z" fill="#F5F5F5"/>
<path d="M376.56 123.9H342.23V158.23H376.56V123.9Z" fill="#F5F5F5"/>
<path d="M376.56 166.29H342.23V200.62H376.56V166.29Z" fill="#F5F5F5"/>
<path d="M418.94 166.29H384.61V200.62H418.94V166.29Z" fill="#F5F5F5"/>
<path d="M327.83 243.23C327.83 244.337 327.501 245.42 326.886 246.341C326.271 247.262 325.396 247.98 324.373 248.404C323.35 248.827 322.224 248.938 321.137 248.722C320.051 248.506 319.053 247.973 318.27 247.19C317.487 246.407 316.954 245.409 316.737 244.322C316.521 243.236 316.632 242.11 317.056 241.087C317.48 240.064 318.198 239.189 319.119 238.574C320.04 237.958 321.122 237.63 322.23 237.63C322.965 237.63 323.693 237.775 324.373 238.056C325.052 238.338 325.67 238.75 326.19 239.27C326.71 239.79 327.122 240.407 327.404 241.087C327.685 241.766 327.83 242.494 327.83 243.23V243.23Z" fill="#E0E0E0"/>
<path d="M117.62 119.73C117.62 118.239 117.028 116.808 115.974 115.753C114.921 114.697 113.491 114.103 112 114.1C111.455 114.103 110.912 114.184 110.39 114.34C110.471 113.767 110.511 113.189 110.51 112.61C110.51 109.449 109.254 106.417 107.019 104.182C104.783 101.946 101.751 100.69 98.5899 100.69C97.8548 100.689 97.1213 100.759 96.3999 100.9C95.2251 98.97 93.4546 97.4738 91.3553 96.6374C89.2561 95.8011 86.9418 95.6698 84.7614 96.2634C82.581 96.857 80.6527 98.1434 79.2672 99.9285C77.8816 101.714 77.114 103.901 77.0799 106.16H76.8999C74.4061 106.241 72.0414 107.288 70.3058 109.081C68.5703 110.873 67.5999 113.27 67.5999 115.765C67.5999 118.26 68.5703 120.658 70.3058 122.45C72.0414 124.243 74.4061 125.29 76.8999 125.37H112.16C113.627 125.331 115.02 124.719 116.041 123.664C117.061 122.61 117.628 121.198 117.62 119.73V119.73Z" fill="#F5F5F5"/>
<path d="M240.92 87.4303C240.915 86.5188 240.549 85.6464 239.903 85.0037C239.256 84.361 238.382 84.0003 237.47 84.0003C237.132 83.9988 236.795 84.0459 236.47 84.1403C236.522 83.7927 236.549 83.4418 236.55 83.0903C236.555 82.0156 236.321 80.9533 235.866 79.9796C235.411 79.0059 234.747 78.1449 233.92 77.4585C233.093 76.7721 232.124 76.2774 231.083 76.0097C230.043 75.742 228.956 75.708 227.9 75.9103C227.182 74.7227 226.097 73.8015 224.809 73.2863C223.52 72.771 222.099 72.6898 220.761 73.055C219.422 73.4202 218.239 74.2118 217.391 75.31C216.542 76.4081 216.075 77.7528 216.06 79.1403H216C215.207 79.1076 214.415 79.2356 213.673 79.5166C212.93 79.7976 212.252 80.2258 211.679 80.7755C211.106 81.3252 210.651 81.985 210.339 82.7153C210.028 83.4457 209.867 84.2314 209.867 85.0253C209.867 85.8192 210.028 86.6049 210.339 87.3352C210.651 88.0655 211.106 88.7254 211.679 89.2751C212.252 89.8248 212.93 90.253 213.673 90.534C214.415 90.815 215.207 90.943 216 90.9103H237.6C238.498 90.8765 239.347 90.494 239.966 89.8442C240.586 89.1944 240.929 88.3284 240.92 87.4303V87.4303Z" fill="#F5F5F5"/>
<path d="M250 427.56C357.083 427.56 443.89 422.492 443.89 416.24C443.89 409.988 357.083 404.92 250 404.92C142.918 404.92 56.1101 409.988 56.1101 416.24C56.1101 422.492 142.918 427.56 250 427.56Z" fill="#F5F5F5"/>
<path d="M115 391.82C115 391.82 120 380.97 114.3 370.27C108.6 359.57 106.96 357.05 110.59 354.85C114.22 352.65 115.87 363.41 115.87 363.41C117.67 358.556 117.859 353.251 116.41 348.28C113.88 340.54 112.3 327.93 115.75 326.57C119.2 325.21 116.4 342.3 119.39 348.13C120.911 344.042 121.893 339.773 122.31 335.43C122.73 329.21 122.08 319.28 124.8 316.73C127.52 314.18 129.26 315.95 126.59 329.67C125.005 337.873 124.138 346.197 124 354.55C124 354.55 129.9 336.55 133.86 336.02C137.82 335.49 137.86 341.33 134.43 346.38C131 351.43 124.5 360.49 123.43 365.15C123.43 365.15 129.91 351.61 135.73 355.76C141.55 359.91 130.66 368.09 125.8 371.05C120.94 374.01 117.57 392.54 117.57 392.54L115 391.82Z" fill="#F8A77B"/>
<path opacity="0.6" d="M115 391.82C115 391.82 120 380.97 114.3 370.27C108.6 359.57 106.96 357.05 110.59 354.85C114.22 352.65 115.87 363.41 115.87 363.41C117.67 358.556 117.859 353.251 116.41 348.28C113.88 340.54 112.3 327.93 115.75 326.57C119.2 325.21 116.4 342.3 119.39 348.13C120.911 344.042 121.893 339.773 122.31 335.43C122.73 329.21 122.08 319.28 124.8 316.73C127.52 314.18 129.26 315.95 126.59 329.67C125.005 337.873 124.138 346.197 124 354.55C124 354.55 129.9 336.55 133.86 336.02C137.82 335.49 137.86 341.33 134.43 346.38C131 351.43 124.5 360.49 123.43 365.15C123.43 365.15 129.91 351.61 135.73 355.76C141.55 359.91 130.66 368.09 125.8 371.05C120.94 374.01 117.57 392.54 117.57 392.54L115 391.82Z" fill="white"/>
<path d="M119 396.27C119 396.27 114.16 385.35 120 374.73C125.84 364.11 127.49 361.62 123.89 359.38C120.29 357.14 118.5 367.86 118.5 367.86C116.766 362.977 116.644 357.668 118.15 352.71C120.77 345.01 122.5 332.42 119.07 331.02C115.64 329.62 118.23 346.74 115.17 352.52C113.697 348.408 112.766 344.122 112.4 339.77C112.06 333.55 112.82 323.63 110.14 321.05C107.46 318.47 105.68 320.19 108.14 333.95C109.649 342.172 110.439 350.511 110.5 358.87C110.5 358.87 104.81 340.78 100.85 340.2C96.8899 339.62 96.8499 345.44 100.16 350.55C103.47 355.66 109.93 364.81 110.94 369.48C110.94 369.48 104.63 355.84 98.7499 359.91C92.8699 363.98 103.67 372.31 108.5 375.34C113.33 378.37 116.5 396.95 116.5 396.95L119 396.27Z" fill="#F8A77B"/>
<path opacity="0.7" d="M119 396.27C119 396.27 114.16 385.35 120 374.73C125.84 364.11 127.49 361.62 123.89 359.38C120.29 357.14 118.5 367.86 118.5 367.86C116.766 362.977 116.644 357.668 118.15 352.71C120.77 345.01 122.5 332.42 119.07 331.02C115.64 329.62 118.23 346.74 115.17 352.52C113.697 348.408 112.766 344.122 112.4 339.77C112.06 333.55 112.82 323.63 110.14 321.05C107.46 318.47 105.68 320.19 108.14 333.95C109.649 342.172 110.439 350.511 110.5 358.87C110.5 358.87 104.81 340.78 100.85 340.2C96.8899 339.62 96.8499 345.44 100.16 350.55C103.47 355.66 109.93 364.81 110.94 369.48C110.94 369.48 104.63 355.84 98.7499 359.91C92.8699 363.98 103.67 372.31 108.5 375.34C113.33 378.37 116.5 396.95 116.5 396.95L119 396.27Z" fill="white"/>
<path d="M96.6299 388.48H136.65L133.41 417.12H99.8699L96.6299 388.48Z" fill="#F8A77B"/>
<path d="M355.46 387.49C354.167 387.497 352.878 387.349 351.62 387.05C351.302 386.966 351.004 386.821 350.742 386.623C350.481 386.424 350.261 386.176 350.095 385.892C349.929 385.608 349.821 385.295 349.776 384.969C349.732 384.644 349.752 384.313 349.835 383.995C349.918 383.677 350.064 383.379 350.262 383.117C350.461 382.855 350.709 382.635 350.993 382.47C351.277 382.304 351.59 382.196 351.916 382.151C352.241 382.106 352.572 382.126 352.89 382.21C352.96 382.21 358.19 383.51 360.74 380.46C361.505 379.604 362.067 378.587 362.384 377.484C362.701 376.381 362.764 375.221 362.57 374.09C361.88 370.74 358.57 367.5 353.11 364.71C342.62 359.39 344.48 353.41 345.3 351.71C347.02 348.14 351.58 346.09 354.68 347.51C354.986 347.641 355.263 347.832 355.494 348.071C355.726 348.311 355.907 348.594 356.027 348.905C356.148 349.215 356.205 349.547 356.195 349.88C356.186 350.213 356.11 350.54 355.972 350.843C355.834 351.146 355.637 351.419 355.392 351.645C355.147 351.871 354.86 352.046 354.547 352.159C354.234 352.272 353.901 352.322 353.568 352.305C353.236 352.288 352.91 352.204 352.61 352.06C351.996 352.104 351.405 352.313 350.9 352.665C350.395 353.017 349.994 353.499 349.74 354.06C349.06 355.79 351.22 358.17 355.37 360.28C362.37 363.83 366.45 368.15 367.46 373.12C367.812 374.985 367.735 376.905 367.236 378.736C366.738 380.567 365.829 382.261 364.58 383.69C363.436 384.958 362.024 385.957 360.447 386.614C358.87 387.271 357.167 387.57 355.46 387.49V387.49Z" fill="#263238"/>
<g opacity="0.2">
<path opacity="0.2" d="M355.46 387.49C354.167 387.497 352.878 387.349 351.62 387.05C351.302 386.966 351.004 386.821 350.742 386.623C350.481 386.424 350.261 386.176 350.095 385.892C349.929 385.608 349.821 385.295 349.776 384.969C349.732 384.644 349.752 384.313 349.835 383.995C349.918 383.677 350.064 383.379 350.262 383.117C350.461 382.855 350.709 382.635 350.993 382.47C351.277 382.304 351.59 382.196 351.916 382.151C352.241 382.106 352.572 382.126 352.89 382.21C352.96 382.21 358.19 383.51 360.74 380.46C361.505 379.604 362.067 378.587 362.384 377.484C362.701 376.381 362.764 375.221 362.57 374.09C361.88 370.74 358.57 367.5 353.11 364.71C342.62 359.39 344.48 353.41 345.3 351.71C347.02 348.14 351.58 346.09 354.68 347.51C354.986 347.641 355.263 347.832 355.494 348.071C355.726 348.311 355.907 348.594 356.027 348.905C356.148 349.215 356.205 349.547 356.195 349.88C356.186 350.213 356.11 350.54 355.972 350.843C355.834 351.146 355.637 351.419 355.392 351.645C355.147 351.871 354.86 352.046 354.547 352.159C354.234 352.272 353.901 352.322 353.568 352.305C353.236 352.288 352.91 352.204 352.61 352.06C351.996 352.104 351.405 352.313 350.9 352.665C350.395 353.017 349.994 353.499 349.74 354.06C349.06 355.79 351.22 358.17 355.37 360.28C362.37 363.83 366.45 368.15 367.46 373.12C367.812 374.985 367.735 376.905 367.236 378.736C366.738 380.567 365.829 382.261 364.58 383.69C363.436 384.958 362.024 385.957 360.447 386.614C358.87 387.271 357.167 387.57 355.46 387.49V387.49Z" fill="white"/>
</g>
<path d="M324.52 391.15L323.85 389.69C321.57 389.36 319.28 388.96 317 388.59C318.52 397.489 320.7 406.263 323.52 414.84C323.52 414.84 319.77 414.7 321.04 417.12H326.92C327.6 416.3 321 402 324.52 391.15Z" fill="#263238"/>
<path d="M336.54 391.359C336.54 391.359 339.27 399.629 344.63 405.039L340.58 414.589C340.58 414.589 337.33 415.329 337.99 417.119H342.53C342.53 417.119 348.8 406.629 349.07 405.499C349.34 404.369 350.52 392.769 350.52 392.769L336.54 391.359Z" fill="#263238"/>
<path opacity="0.2" d="M324.52 391.15L323.85 389.69C321.57 389.36 319.28 388.96 317 388.59C318.52 397.489 320.7 406.263 323.52 414.84C323.52 414.84 319.77 414.7 321.04 417.12H326.92C327.6 416.3 321 402 324.52 391.15Z" fill="white"/>
<path opacity="0.2" d="M336.54 391.359C336.54 391.359 339.27 399.629 344.63 405.039L340.58 414.589C340.58 414.589 337.33 415.329 337.99 417.119H342.53C342.53 417.119 348.8 406.629 349.07 405.499C349.34 404.369 350.52 392.769 350.52 392.769L336.54 391.359Z" fill="white"/>
<path d="M356 384.12C352.66 379.43 346.95 381.56 330.49 375.93C314.03 370.3 320.6 352.72 320.6 352.72L315.1 357.13L309.26 353.77C308.281 354.891 307.587 356.232 307.239 357.679C306.891 359.126 306.898 360.636 307.26 362.08C308.45 367.23 312.26 375.27 312.67 381.22L309.57 391.88C309.57 391.88 299.09 394.08 298.16 396.3C297.23 398.52 298.82 402.09 298.82 402.09L301.73 401.86L300.21 397.86C305.02 396.25 313.21 396.09 314.91 395.29C317.275 394.097 319.356 392.409 321.01 390.34C322.1 391.25 328.67 396.08 345.64 395.97C345.64 395.97 351.33 403.6 357.24 405.52L358.18 414.74C358.18 414.74 354.6 414.9 354.74 417.1H361.06L361.68 404.04C357.9 394.26 359.22 388.69 356 384.12Z" fill="#263238"/>
<path opacity="0.4" d="M356 384.12C352.66 379.43 346.95 381.56 330.49 375.93C314.03 370.3 320.6 352.72 320.6 352.72L315.1 357.13L309.26 353.77C308.281 354.891 307.587 356.232 307.239 357.679C306.891 359.126 306.898 360.636 307.26 362.08C308.45 367.23 312.26 375.27 312.67 381.22L309.57 391.88C309.57 391.88 299.09 394.08 298.16 396.3C297.23 398.52 298.82 402.09 298.82 402.09L301.73 401.86L300.21 397.86C305.02 396.25 313.21 396.09 314.91 395.29C317.275 394.097 319.356 392.409 321.01 390.34C322.1 391.25 328.67 396.08 345.64 395.97C345.64 395.97 351.33 403.6 357.24 405.52L358.18 414.74C358.18 414.74 354.6 414.9 354.74 417.1H361.06L361.68 404.04C357.9 394.26 359.22 388.69 356 384.12Z" fill="white"/>
<path d="M313.28 359.259C313.05 359.709 312.68 359.989 312.45 359.869C312.22 359.749 312.23 359.289 312.45 358.869C312.67 358.449 313.05 358.139 313.28 358.259C313.51 358.379 313.51 358.809 313.28 359.259Z" fill="#263238"/>
<path d="M309.87 354C309.87 354 309.31 353.5 309.11 353.5C308.91 353.5 308.66 354.5 308.66 354.5L309.87 354Z" fill="#A24E3F"/>
<path opacity="0.2" d="M315.08 357.13C315.774 357.701 316.404 358.345 316.96 359.05L319.13 354.5L315.08 357.13Z" fill="black"/>
<path d="M319 193.7C319 193.7 319.28 190.43 318.42 189.31C317.56 188.19 307.42 181.69 306.91 182.4C306.4 183.11 304.3 188.4 304.42 189.95C304.54 191.5 312.28 198.34 313.42 197.5C314.56 196.66 319 193.7 319 193.7Z" fill="#B97964"/>
<path d="M366.83 179.109C359.13 179.899 345.88 203.439 342.12 203.239C338.36 203.039 316.8 191.179 316.8 191.179L313 196.909C313 196.909 337 213.999 343.51 213.609C350.02 213.219 368.63 190.389 368.63 190.389L366.83 179.109Z" fill="#B97964"/>
<path d="M376.57 367.89C382.95 375.89 388.68 383.19 393.68 388.49C398.68 393.86 401.26 397.19 401.26 397.19L406.2 394.35C406.2 394.35 401.63 387.12 395.43 377.15C390.16 368.69 383.71 358.25 377.85 348.58C370.27 336.08 363.68 324.87 361.94 320.86C360.7 318.01 364.06 307.06 367.77 296.74C371.54 286.23 375.68 276.36 375.68 276.36L362.19 253.51C362.19 253.51 356.7 268.72 351.82 284.77C348.61 295.27 345.69 306.14 344.7 313.36C343.32 323.45 360.73 348 376.57 367.89Z" fill="#B97964"/>
<path opacity="0.2" d="M376.52 367.89C382.9 375.89 389.03 383.19 393.59 388.49C394.24 385.23 394.9 381.37 395.42 377.16C390.15 368.7 383.7 358.26 377.84 348.59C377.964 355.049 377.523 361.507 376.52 367.89V367.89Z" fill="black"/>
<path opacity="0.2" d="M351.82 284.78L367.77 296.78C371.54 286.27 375.68 276.4 375.68 276.4L362.19 253.55C362.19 253.55 356.7 268.73 351.82 284.78Z" fill="black"/>
<path d="M379.68 408.87L385.43 409.62C385.43 409.62 393.68 369.01 393.43 335.5C396.493 324.411 398.884 313.147 400.59 301.77C402.59 288.05 403.59 272.77 400.93 261.37L380.93 270.37L380.52 300.37L380.18 325.37L379.68 408.87Z" fill="#B97964"/>
<path opacity="0.2" d="M380.52 300.37L400.59 301.77C402.59 288.05 403.59 272.77 400.93 261.37L380.93 270.37L380.52 300.37Z" fill="black"/>
<path d="M405.87 391.209C405.28 390.779 400.3 398.209 400.3 398.209C400.3 398.209 401.41 405.979 399.17 410.999C396.93 416.019 401.29 415.589 404.91 410.829L413.91 399.079C416.47 395.739 412 395.649 405.87 391.209Z" fill="#263238"/>
<path d="M398.46 403.889C398.322 403.873 398.188 403.83 398.066 403.762C397.945 403.693 397.838 403.602 397.753 403.492C397.667 403.382 397.604 403.256 397.568 403.122C397.531 402.988 397.522 402.847 397.54 402.709C397.706 402.051 398.053 401.452 398.54 400.979C397.79 401.329 397.03 401.549 396.64 401.279C396.25 401.009 396.3 400.799 396.4 400.359C396.434 400.162 396.512 399.976 396.628 399.813C396.744 399.65 396.895 399.516 397.07 399.419C398.21 398.759 400.31 399.419 400.42 399.419L400.5 399.469V399.529V399.599V399.689C400.36 400.339 399.63 403.559 398.5 403.829L398.46 403.889ZM400 400.289C399.21 400.959 398.1 402.039 398 402.769C397.987 402.839 397.99 402.911 398.007 402.98C398.024 403.049 398.056 403.114 398.1 403.169C398.32 403.449 398.46 403.419 398.51 403.409C399 403.279 399.64 401.679 400 400.289V400.289ZM398.43 399.599C398.056 399.582 397.684 399.661 397.35 399.829C397.234 399.895 397.133 399.986 397.055 400.095C396.978 400.203 396.925 400.328 396.9 400.459C396.9 400.589 396.84 400.819 396.9 400.889C397.24 401.119 398.57 400.529 399.77 399.779C399.331 399.67 398.882 399.609 398.43 399.599V399.599Z" fill="#F8A77B"/>
<path d="M387.47 406C387.47 405.27 378.47 405.84 378.47 405.84C378.47 405.84 372.97 411.44 367.62 412.7C362.27 413.96 365.26 417.17 371.24 417.17H386.03C390.3 417.12 387.65 413.5 387.47 406Z" fill="#263238"/>
<path d="M373.79 408.08C373.514 408.099 373.239 408.025 373.01 407.87C372.878 407.755 372.785 407.601 372.746 407.43C372.706 407.26 372.722 407.081 372.79 406.92C372.82 406.789 372.879 406.666 372.962 406.561C373.045 406.455 373.15 406.37 373.27 406.31C373.904 406.053 374.596 405.977 375.27 406.09C374.55 405.7 373.91 405.23 373.88 404.76C373.88 404.45 374.06 404.2 374.47 404.01C374.652 403.925 374.85 403.882 375.05 403.882C375.25 403.882 375.448 403.925 375.63 404.01C376.84 404.52 377.63 406.59 377.63 406.7C377.639 406.729 377.639 406.76 377.63 406.79V406.79C377.634 406.816 377.634 406.843 377.63 406.87V406.87C377.633 406.89 377.633 406.91 377.63 406.93V406.93C377.61 406.958 377.582 406.979 377.55 406.99C376.37 407.57 375.097 407.939 373.79 408.08V408.08ZM374.56 406.52C374.196 406.501 373.832 406.569 373.5 406.72C373.438 406.75 373.384 406.793 373.341 406.847C373.297 406.9 373.266 406.963 373.25 407.03C373.16 407.38 373.25 407.47 373.31 407.5C373.73 407.85 375.37 407.36 376.69 406.8C375.992 406.633 375.278 406.539 374.56 406.52ZM375.08 404.33C374.938 404.335 374.799 404.369 374.67 404.43C374.55 404.49 374.35 404.61 374.35 404.73C374.35 405.13 375.66 405.83 376.98 406.33C376.69 405.542 376.153 404.868 375.45 404.41C375.333 404.36 375.207 404.332 375.08 404.33Z" fill="#F8A77B"/>
<path d="M371.64 291.12L350 279.79C356.81 259.11 362.94 247.39 362.94 247.39C384.2 251.03 382.26 267.83 382.26 267.83C382.26 267.83 376.85 279.05 371.64 291.12Z" fill="#263238"/>
<path opacity="0.1" d="M373 287.93C372.54 288.98 372.07 290.05 371.61 291.12L350 279.79C356.8 259.11 362.93 247.39 362.93 247.39C376.05 249.64 380.33 256.9 381.69 262.13C382.193 263.985 382.382 265.912 382.25 267.83C382.25 267.83 377.78 277.15 373 287.93Z" fill="white"/>
<path opacity="0.2" d="M373 287.929C377.75 277.149 382.24 267.829 382.24 267.829C382.372 265.911 382.183 263.985 381.68 262.129C381.004 261.691 380.256 261.376 379.47 261.199C379.47 261.199 373.72 270.269 373 287.929Z" fill="black"/>
<path d="M378.34 295.79L379.08 261.2L361.94 256.2C361.94 256.2 363.29 240.33 365.29 232.51C365.29 232.51 393.14 225.58 397.38 235.02C397.38 235.02 397.38 235.17 397.44 235.22L397.51 235.3C397.51 235.3 405.51 249.38 403.12 295.8L378.34 295.79Z" fill="#263238"/>
<path opacity="0.1" d="M378.34 295.79L379.08 261.2L361.94 256.2C361.94 256.2 363.29 240.33 365.29 232.51C365.29 232.51 393.14 225.58 397.38 235.02C397.38 235.02 397.38 235.17 397.44 235.22L397.51 235.3C397.51 235.3 405.51 249.38 403.12 295.8L378.34 295.79Z" fill="white"/>
<path d="M397.68 230.22V234.94L365.68 232.47V226.88L397.68 230.22Z" fill="#263238"/>
<path d="M386.456 236.343L388.054 236.425L388.471 228.275L386.873 228.194L386.456 236.343Z" fill="#263238"/>
<path d="M372.403 233.364L379.454 233.996L379.934 228.648L372.882 228.016L372.403 233.364Z" fill="white"/>
<path d="M366.035 234.273L367.635 234.353L368.043 226.193L366.443 226.113L366.035 234.273Z" fill="#263238"/>
<path opacity="0.1" d="M386.88 228.247L386.463 236.396L388.061 236.478L388.478 228.329L386.88 228.247Z" fill="white"/>
<path opacity="0.1" d="M367.133 226.058L366.718 234.207L368.315 234.289L368.731 226.139L367.133 226.058Z" fill="white"/>
<path d="M365.29 227.45L397.53 230.24C398.3 218.24 399.06 210.52 406.16 189.16C406.78 187.286 407.447 185.303 408.16 183.21C403.789 181.822 399.324 180.749 394.8 180C390.015 179.151 385.176 178.64 380.32 178.47C374.04 178.47 366.84 179.13 366.84 179.13C366.84 179.13 365.84 179.38 365.17 186.02C364.57 192.25 364 204.74 365.29 227.45Z" fill="#407BFF"/>
<path opacity="0.6" d="M408.17 183.21C407.44 185.3 406.77 187.29 406.17 189.16C405.57 191.03 404.89 193.05 404.33 194.83C403.01 199.03 401.97 202.65 401.14 205.83C399.078 213.802 397.871 221.972 397.54 230.2L365.3 227.41C364 204.7 364.58 192.21 365.17 185.96C365.82 179.32 366.84 179.07 366.84 179.07C366.84 179.07 368.75 178.88 371.47 178.71C374.02 178.54 377.28 178.39 380.32 178.41C385.175 178.599 390.01 179.131 394.79 180C397.56 180.46 400.31 181 403.02 181.74C404.753 182.18 406.47 182.67 408.17 183.21Z" fill="white"/>
<path d="M405.18 294.37L376.93 294.12L377.43 298.37L403.93 298.12L405.18 294.37Z" fill="#F8A77B"/>
<path d="M373.43 290.87L349.93 278.12L348.68 281.87L371.43 293.12L373.43 290.87Z" fill="#F8A77B"/>
<path d="M383 185.58C390.95 184.58 393.34 181.16 393.34 181.16C390.09 178.1 390.68 173.58 391.51 170.76C391.768 169.866 392.102 168.996 392.51 168.16L382.89 170C383.11 171.323 383.234 172.66 383.26 174C383.296 175.008 383.205 176.015 382.99 177C382.34 179.86 380.71 179.9 380.71 179.9C379 183 383 185.58 383 185.58Z" fill="#B97964"/>
<path opacity="0.2" d="M383.26 174C383.296 175.007 383.205 176.015 382.99 177C386.79 176.5 389.67 173.46 391.48 170.82C391.738 169.926 392.072 169.056 392.48 168.22L382.89 170C383.11 171.322 383.234 172.659 383.26 174V174Z" fill="black"/>
<path d="M397.18 145.16C397.18 145.16 402.7 140.28 408.18 142.78C413.66 145.28 414.18 149.25 412.08 153.6C409.98 157.95 408.27 161.77 410.57 163.35C412.87 164.93 412.21 168.5 409.97 169.55C407.73 170.6 406.27 171.94 408.78 173.06C408.78 173.06 408.38 173.28 406.27 171.94C404.16 170.6 405.88 169.14 406.54 168.16C407.2 167.18 406.01 168.4 404.03 165.54C402.05 162.68 403.37 159.54 404.43 156.25C405.49 152.96 398.18 153.4 398.18 153.4L397.18 145.16Z" fill="#263238"/>
<path d="M393.16 141C393.16 141 387.25 137.12 381.16 137.87C375.07 138.62 369.34 145.74 371.09 150.76C372.84 155.78 374.68 158.14 372.97 159.99C371.26 161.84 370.53 165.21 372.84 166.67C372.432 166.213 372.206 165.622 372.206 165.01C372.206 164.397 372.432 163.806 372.84 163.35C374.29 161.57 379.72 162.49 381.16 158.47C382.6 154.45 389.58 153.4 389.58 153.4L393.74 166.71C393.74 166.71 400.26 164.9 400.92 155.46C401.58 146.02 398.58 140.08 393.16 141Z" fill="#263238"/>
<path d="M384.84 143.45C376.52 143.76 374.01 148.32 373.72 156.92C373.35 167.66 376.01 175.19 386.33 172.51C400.35 168.88 398.66 142.94 384.84 143.45Z" fill="#B97964"/>
<path d="M379.08 156.25C378.457 157.518 377.685 158.706 376.78 159.79C377.036 160.125 377.38 160.382 377.774 160.534C378.167 160.686 378.595 160.726 379.01 160.65L379.08 156.25Z" fill="#A24E3F"/>
<path d="M384.15 155.38C384.15 156.07 384.53 156.62 384.99 156.61C385.45 156.6 385.81 156.04 385.8 155.36C385.79 154.68 385.41 154.13 384.95 154.13C384.49 154.13 384.14 154.7 384.15 155.38Z" fill="#263238"/>
<path d="M385.15 154.16L383.65 153.6C383.65 153.6 384.41 154.84 385.15 154.16Z" fill="#263238"/>
<path d="M375.64 155.36C375.64 156.04 376.02 156.59 376.48 156.58C376.94 156.57 377.3 156.02 377.29 155.33C377.28 154.64 376.9 154.1 376.45 154.11C376 154.12 375.63 154.67 375.64 155.36Z" fill="#263238"/>
<path d="M376.64 154.139L375.14 153.569C375.14 153.569 375.9 154.809 376.64 154.139Z" fill="#263238"/>
<path d="M384 149.63C384.654 149.526 385.324 149.573 385.957 149.769C386.59 149.965 387.169 150.304 387.65 150.76" stroke="#263238" stroke-width="0.707962" stroke-linecap="round" stroke-linejoin="round"/>
<path d="M378 149.5C377.426 149.377 376.832 149.386 376.262 149.527C375.692 149.667 375.161 149.935 374.71 150.31" stroke="#263238" stroke-width="0.707962" stroke-linecap="round" stroke-linejoin="round"/>
<path d="M380.35 163.88C380.779 164.806 381.14 165.762 381.43 166.74L381.96 166.67C384.37 166.33 385.38 165.38 385.77 164.42C385.956 163.971 386.035 163.485 386 163C385.98 162.716 385.919 162.437 385.82 162.17C384.421 163.035 382.852 163.591 381.22 163.8C380.67 163.85 380.35 163.88 380.35 163.88Z" fill="#263238"/>
<path d="M381.17 163.75L381.51 164.59C383.78 164.27 385.34 163.74 385.95 162.95C385.93 162.666 385.869 162.387 385.77 162.12C384.37 162.985 382.802 163.541 381.17 163.75Z" fill="white"/>
<path d="M382 166.67C384.41 166.33 385.42 165.38 385.81 164.42C384.894 164.57 384.011 164.877 383.2 165.33C382.672 165.643 382.254 166.111 382 166.67V166.67Z" fill="#DE5753"/>
<path d="M394.46 157.139C394.46 157.139 390.31 150.449 390.71 145.139C390.71 145.139 373.97 139.009 373.77 155.779C373.77 155.779 371.61 140.979 385.9 140.119C400.19 139.259 400.9 160.189 393.75 166.699C393.75 166.709 397 161.329 394.46 157.139Z" fill="#263238"/>
<path d="M393.16 159C393.207 158.034 393.634 157.126 394.347 156.474C395.061 155.822 396.004 155.479 396.97 155.52C399.56 155.7 400.97 160.95 394.62 162.46C393.7 162.63 393.15 161.75 393.16 159Z" fill="#B97964"/>
<path d="M390.71 145.149C389.919 146.595 389.49 148.211 389.46 149.859C389.46 152.469 393.1 157.479 393.16 158.949C393.22 160.419 392.16 162.949 393.31 164.419C393.126 163.74 393.151 163.021 393.381 162.356C393.611 161.691 394.036 161.11 394.6 160.689C396.6 159.329 398.38 155.169 396.16 152.239C393.94 149.309 396.06 145.509 396.06 145.509C396.06 145.509 393 141.999 390.71 145.149Z" fill="#263238"/>
<path d="M408.17 183.21C418.11 191.67 394.53 215.62 383.17 221.21C371.81 226.8 332.44 233.56 332.44 233.56L331.65 226.88C331.65 226.88 372.65 217.37 377.94 212.14C383.23 206.91 406.21 181.54 408.17 183.21Z" fill="#B97964"/>
<path d="M331.64 226.88C331.64 226.88 328.87 225.11 327.48 225.35C326.09 225.59 315.62 231.58 316.01 232.35C316.4 233.12 320.16 237.46 321.55 238.06C322.94 238.66 332.63 234.98 332.43 233.56C332.23 232.14 331.64 226.88 331.64 226.88Z" fill="#B97964"/>
<path d="M403 181.72C399.69 185.14 392.44 189.96 381.66 189.13C372.11 188.4 371.31 181.48 371.44 178.75C373.99 178.58 377.25 178.43 380.29 178.45C385.154 178.625 389.999 179.143 394.79 180C397.56 180.44 400.31 181 403 181.72Z" fill="#B97964"/>
<path d="M255.63 86.6797H212.29C208.91 86.6797 206.17 89.4197 206.17 92.7997V116.59C206.17 119.97 208.91 122.71 212.29 122.71H255.63C259.01 122.71 261.75 119.97 261.75 116.59V92.7997C261.75 89.4197 259.01 86.6797 255.63 86.6797Z" fill="#407BFF"/>
<path d="M214.38 119.55C214.38 119.55 214.83 130.55 205.16 134.79C205.16 134.79 215.16 134.53 221.99 119.55H214.38Z" fill="#407BFF"/>
<path d="M195.57 409.44L203.94 410.32L205.51 392.27L197.14 391.39L195.57 409.44Z" fill="#EBB376"/>
<path d="M153.82 408.83H161.93L162.6 390.05H154.48L153.82 408.83Z" fill="#EBB376"/>
<path d="M163.05 407.89H153.2C153.039 407.891 152.882 407.947 152.757 408.048C152.631 408.15 152.544 408.292 152.51 408.45L150.91 415.67C150.878 415.823 150.876 415.981 150.905 416.134C150.934 416.288 150.992 416.434 151.078 416.565C151.163 416.696 151.274 416.809 151.403 416.897C151.532 416.986 151.677 417.048 151.83 417.08C151.92 417.09 152.01 417.09 152.1 417.08C155.28 417.03 157.6 416.83 161.61 416.83C164.07 416.83 171.51 417.09 174.91 417.09C178.31 417.09 178.76 413.73 177.37 413.42C171.12 412.06 166.37 410.17 164.37 408.37C164.003 408.055 163.534 407.885 163.05 407.89Z" fill="#263238"/>
<path d="M163.61 409C163.572 408.992 163.537 408.972 163.51 408.943C163.483 408.915 163.466 408.879 163.46 408.84C163.456 408.803 163.462 408.765 163.478 408.732C163.494 408.698 163.519 408.67 163.55 408.65C163.84 408.47 166.46 406.86 167.36 407.32C167.462 407.367 167.548 407.444 167.607 407.54C167.666 407.636 167.695 407.747 167.69 407.86C167.71 408.046 167.684 408.235 167.615 408.409C167.545 408.584 167.433 408.738 167.29 408.86C166.833 409.171 166.282 409.316 165.73 409.27C165.016 409.26 164.304 409.17 163.61 409ZM164.16 408.74C165.109 409.052 166.139 408.999 167.05 408.59C167.147 408.505 167.222 408.398 167.267 408.277C167.312 408.157 167.327 408.027 167.31 407.9C167.31 407.74 167.24 407.67 167.19 407.67C167.113 407.629 167.027 407.612 166.94 407.62C165.949 407.813 165.005 408.197 164.16 408.75V408.74Z" fill="#407BFF"/>
<path d="M163.55 409.05C163.523 409.031 163.5 409.005 163.485 408.976C163.469 408.946 163.461 408.913 163.46 408.88C163.46 408.77 163.67 406.43 164.61 405.67C164.721 405.576 164.85 405.505 164.99 405.462C165.129 405.419 165.275 405.405 165.42 405.42C165.567 405.42 165.709 405.47 165.822 405.563C165.935 405.656 166.012 405.786 166.04 405.93C166.21 406.79 164.59 408.57 163.75 409.02H163.66C163.645 409.032 163.627 409.041 163.608 409.047C163.589 409.052 163.57 409.053 163.55 409.05V409.05ZM164.85 405.9C164.28 406.629 163.948 407.516 163.9 408.44C164.73 407.81 165.76 406.44 165.66 405.93C165.66 405.88 165.66 405.73 165.38 405.73H165.29C165.128 405.73 164.971 405.791 164.85 405.9Z" fill="#407BFF"/>
<path d="M204.82 407.63H195C194.838 407.631 194.682 407.687 194.557 407.789C194.431 407.89 194.344 408.032 194.31 408.19L192.71 415.41C192.648 415.721 192.71 416.045 192.884 416.31C193.058 416.576 193.33 416.763 193.64 416.83H193.9C197.09 416.78 199.41 416.58 203.41 416.58C205.87 416.58 213.31 416.84 216.71 416.84C220.11 416.84 220.56 413.48 219.17 413.17C212.92 411.81 208.17 409.92 206.17 408.17C205.804 407.827 205.322 407.634 204.82 407.63V407.63Z" fill="#263238"/>
<path d="M205.38 408.76C205.341 408.75 205.306 408.728 205.279 408.698C205.252 408.668 205.235 408.63 205.23 408.59C205.227 408.552 205.235 408.514 205.253 408.48C205.27 408.446 205.297 408.418 205.33 408.4C205.62 408.22 208.24 406.61 209.13 407.07C209.232 407.117 209.318 407.194 209.377 407.29C209.436 407.386 209.465 407.497 209.46 407.61C209.485 407.797 209.461 407.987 209.391 408.162C209.321 408.337 209.207 408.491 209.06 408.61C208.603 408.923 208.052 409.068 207.5 409.02C206.786 409.008 206.076 408.921 205.38 408.76V408.76ZM205.94 408.49C206.884 408.811 207.915 408.758 208.82 408.34C208.917 408.255 208.991 408.148 209.037 408.027C209.082 407.907 209.097 407.777 209.08 407.65C209.08 407.5 209.01 407.42 208.96 407.42C208.882 407.383 208.796 407.366 208.71 407.37C207.723 407.558 206.782 407.939 205.94 408.49Z" fill="#407BFF"/>
<path d="M205.33 408.799C205.3 408.78 205.275 408.753 205.258 408.722C205.24 408.69 205.231 408.655 205.23 408.619C205.23 408.509 205.44 406.179 206.38 405.409C206.49 405.312 206.619 405.241 206.759 405.199C206.899 405.158 207.046 405.148 207.19 405.169C207.336 405.166 207.478 405.215 207.591 405.306C207.705 405.398 207.782 405.526 207.81 405.669C207.98 406.529 206.36 408.309 205.52 408.769H205.43C205.4 408.788 205.366 408.799 205.33 408.799V408.799ZM206.63 405.639C206.043 406.363 205.694 407.25 205.63 408.179C206.46 407.549 207.49 406.179 207.39 405.669C207.39 405.619 207.39 405.479 207.11 405.479H207.02C206.876 405.489 206.74 405.545 206.63 405.639V405.639Z" fill="#407BFF"/>
<path opacity="0.2" d="M197.14 391.39L205.51 392.27L204.69 401.58L196.32 400.7L197.14 391.39Z" fill="black"/>
<path opacity="0.2" d="M154.48 390.06H162.6L162.25 399.74H154.13L154.48 390.06Z" fill="black"/>
<path d="M157.83 225.3H200.83C204.92 247.64 217.73 326.71 208.54 397.16L194 395.36C194 395.36 195.35 301.83 182.49 267.25C181.01 285.76 179.25 305.45 177.73 315.92C174 341.71 166 398.06 166 398.06H151.14C151.14 398.06 154.14 344.12 155.57 318.78C157.1 291.27 157.77 231 157.83 225.3Z" fill="#263238"/>
<path opacity="0.2" d="M157.83 225.3H200.83C204.92 247.64 217.73 326.71 208.54 397.16L194 395.36C194 395.36 195.35 301.83 182.49 267.25C181.01 285.76 179.25 305.45 177.73 315.92C174 341.71 166 398.06 166 398.06H151.14C151.14 398.06 154.14 344.12 155.57 318.78C157.1 291.27 157.77 231 157.83 225.3Z" fill="white"/>
<path d="M202.7 156.64C202.7 156.64 228.7 181.17 240.7 185.27C252.7 189.37 283.55 204.56 283.55 204.56L288.28 200.83C288.28 200.62 291.73 203.29 291.77 205.14C291.77 206.48 288.38 217.71 287.67 217.7C284.37 217.7 280.72 210.14 280.72 210.14C280.72 210.14 241.22 199.85 234.13 196.75C227.04 193.65 197.88 170.89 197.88 170.89L202.7 156.64Z" fill="#EBB376"/>
<path d="M196.93 150.75C202.87 150.57 234.2 178.07 236.63 180.84C239.06 183.61 263.4 191.91 266.16 196.07C268.92 200.23 264.78 205.14 258.05 205.74C251.32 206.34 204.92 185.51 197.86 175.36C190.8 165.21 196.93 150.75 196.93 150.75Z" fill="#407BFF"/>
<path opacity="0.2" d="M196.93 150.75C202.87 150.57 234.2 178.07 236.63 180.84C239.06 183.61 263.4 191.91 266.16 196.07C268.92 200.23 264.78 205.14 258.05 205.74C251.32 206.34 204.92 185.51 197.86 175.36C190.8 165.21 196.93 150.75 196.93 150.75Z" fill="black"/>
<path d="M212.2 173.21L215.63 242.89H262.21L297.81 234.37V168.87L248 168.59L212.2 173.21Z" fill="#407BFF"/>
<path opacity="0.6" d="M212.2 173.21L215.63 242.89H262.21L297.81 234.37V168.87L248 168.59L212.2 173.21Z" fill="white"/>
<path opacity="0.2" d="M212.2 173.21L259.44 174.8L262.21 242.89H215.63L212.2 173.21Z" fill="white"/>
<path opacity="0.4" d="M259.44 174.8L297.81 168.87L248 168.59L212.2 173.21L259.44 174.8Z" fill="white"/>
<path opacity="0.2" d="M229.85 173.799L235.9 172.859L243.42 173.209L236.63 174.029V177.859L230.16 177.409L229.85 173.799Z" fill="black"/>
<path opacity="0.2" d="M265.51 168.689L263.53 169.099H270.25L272.69 168.729L265.51 168.689Z" fill="black"/>
<path opacity="0.2" d="M262.21 180.44L262.74 187.17L275.53 184.99V178.37L262.21 180.44Z" fill="black"/>
<path opacity="0.2" d="M282.25 227.85V236.02L296.23 232.73V225.3L282.25 227.85Z" fill="black"/>
<path opacity="0.2" d="M246.52 225.3C246.52 225.3 247.84 229.39 250.34 230.66V237.74L248.43 239.74H255L251.52 237.5L251.39 230.69C252.382 230.149 253.228 229.377 253.857 228.438C254.486 227.5 254.878 226.423 255 225.3H251.4L250.76 227.45L251.92 227.58L250.76 230V228.76H249.81L250.76 225.34L246.52 225.3Z" fill="black"/>
<path opacity="0.2" d="M182.49 267.259C184.61 273.318 186.219 279.543 187.3 285.869C188.5 269.409 183.69 251.939 183.69 251.939L182.49 267.259Z" fill="black"/>
<path d="M196.93 150.75C196.93 150.75 169.56 149.42 149.16 154.57C149.16 154.57 155.38 210.25 155.77 238.31C155.78 238.908 155.91 239.498 156.151 240.045C156.391 240.592 156.739 241.086 157.173 241.498C157.607 241.909 158.118 242.23 158.677 242.442C159.237 242.653 159.833 242.751 160.43 242.73L201.52 241.3C202.113 241.279 202.696 241.142 203.235 240.895C203.775 240.648 204.26 240.298 204.663 239.863C205.067 239.428 205.38 238.917 205.586 238.361C205.791 237.804 205.884 237.213 205.86 236.62C205.26 221.61 202.9 173.09 196.93 150.75Z" fill="#407BFF"/>
<path d="M156.91 241.22V245.91L205.16 243.57L204.79 239.72L156.91 241.22Z" fill="#263238"/>
<path d="M179.63 162C179.63 162 188.83 203.34 187.49 241.75" stroke="#263238" stroke-miterlimit="10"/>
<path d="M148.41 177.15C148.41 177.15 156.96 200.74 159.49 205.69C162.02 210.64 211.82 215.52 211.82 215.52C211.82 215.52 222.82 222.64 224.82 222.31C226.82 221.98 231.4 212.64 229.4 211.64C227.4 210.64 221.32 203.76 218.03 203.87C214.74 203.98 211.86 207.64 211.86 207.64C211.86 207.64 170.86 195.89 168.65 195.02C167.07 194.39 160.59 171.55 160.59 171.55L148.41 177.15Z" fill="#EBB376"/>
<path d="M149.17 154.57C142.4 154.74 139.91 165.7 148.41 190.06C153.87 205.74 166.97 214.06 187.49 217.7C208.01 221.34 208.39 209.52 204.11 205.43C199.83 201.34 176.3 195.28 172.51 191.85C168.72 188.42 163.38 154.22 149.17 154.57Z" fill="#407BFF"/>
<path d="M204.11 205.43L202.83 216.55L206.28 217.7L207.48 205.43H204.11Z" fill="#263238"/>
<path opacity="0.2" d="M149.17 154.57C142.4 154.74 139.91 165.7 148.41 190.06C153.87 205.74 166.97 214.06 187.49 217.7C208.01 221.34 208.39 209.52 204.11 205.43C199.83 201.34 176.3 195.28 172.51 191.85C168.72 188.42 163.38 154.22 149.17 154.57Z" fill="black"/>
<path d="M164.72 150.75C164.72 150.75 178.34 163.39 180.64 162.04C182.94 160.69 183.64 151.56 183.64 151.56L164.72 150.75Z" fill="white"/>
<path d="M164.73 151.81C168.73 155.4 178.36 154.07 178.36 154.07C178.36 154.07 184.36 152.42 183.13 150.53C179.57 149.94 177.85 148.28 177.13 146.16C176.739 144.841 176.617 143.457 176.77 142.09C176.827 141.328 176.927 140.57 177.07 139.82L165.07 130.96C166.68 136.81 168.6 147.57 164.73 151.81Z" fill="#EBB376"/>
<path opacity="0.2" d="M167.88 136.6C168.35 143.77 174.25 145.75 177.14 146.16C176.749 144.841 176.627 143.457 176.78 142.09L167.88 136.6Z" fill="black"/>
<path d="M188.6 114.449C188.6 114.449 190.4 122.659 188.95 128.549C187.5 134.439 185.77 135.049 183.95 135.439C182.13 135.829 182.19 115.159 182.19 115.159L188.6 114.449Z" fill="#407BFF"/>
<path opacity="0.5" d="M186.91 115.609C186.91 115.609 189.68 123.709 188.23 129.609C186.78 135.509 185.05 136.109 183.17 136.499C181.29 136.889 181.42 116.219 181.42 116.219L186.91 115.609Z" fill="black"/>
<path d="M185.93 111.75C185.93 111.75 189.44 122.5 184.29 127.75C179.14 133 175.74 112.44 175.74 112.44L185.93 111.75Z" fill="#263238"/>
<path d="M168.77 139.3C170.295 140.914 172.307 141.984 174.498 142.345C176.689 142.707 178.938 142.34 180.9 141.3C183.461 139.997 185.429 137.765 186.4 135.06C186.53 134.7 186.65 134.31 186.75 133.92C188.51 126.7 187.46 114.77 179.61 111.54C177.878 110.817 175.99 110.55 174.126 110.762C172.261 110.975 170.482 111.661 168.958 112.756C167.434 113.85 166.215 115.317 165.417 117.015C164.619 118.714 164.269 120.588 164.4 122.46C164.84 130.44 164.71 135.18 168.77 139.3Z" fill="#EBB376"/>
<path d="M176.58 124.72C176.53 125.37 176.92 125.91 177.35 125.91C177.78 125.91 178.13 125.37 178.13 124.72C178.13 124.07 177.79 123.54 177.36 123.54C176.93 123.54 176.59 124.06 176.58 124.72Z" fill="#263238"/>
<path d="M184 124.749C184 125.399 184.35 125.939 184.77 125.939C185.19 125.939 185.55 125.409 185.56 124.759C185.57 124.109 185.21 123.569 184.78 123.569C184.35 123.569 184 124.129 184 124.749Z" fill="#263238"/>
<path d="M181.62 125.069C182.392 127.069 183.435 128.954 184.72 130.669C184.271 130.99 183.757 131.208 183.215 131.308C182.672 131.408 182.114 131.388 181.58 131.249L181.62 125.069Z" fill="#D58745"/>
<path d="M174.3 122.32C174.37 122.329 174.44 122.319 174.505 122.293C174.569 122.267 174.626 122.224 174.67 122.17C174.953 121.782 175.323 121.465 175.75 121.244C176.177 121.024 176.65 120.906 177.13 120.9C177.232 120.906 177.332 120.871 177.409 120.804C177.485 120.736 177.532 120.642 177.54 120.54C177.544 120.49 177.538 120.44 177.523 120.392C177.508 120.344 177.483 120.3 177.45 120.262C177.418 120.224 177.378 120.193 177.334 120.17C177.289 120.147 177.24 120.134 177.19 120.13V120.13C176.581 120.125 175.98 120.264 175.436 120.537C174.892 120.81 174.42 121.209 174.06 121.7C173.998 121.78 173.969 121.881 173.981 121.982C173.992 122.083 174.042 122.175 174.12 122.24V122.24C174.175 122.278 174.236 122.305 174.3 122.32V122.32Z" fill="#263238"/>
<path d="M187.16 122.22C187.236 122.24 187.315 122.24 187.39 122.22C187.436 122.198 187.477 122.168 187.51 122.131C187.544 122.094 187.57 122.05 187.587 122.002C187.604 121.955 187.611 121.905 187.608 121.854C187.605 121.804 187.592 121.755 187.57 121.71V121.71C187.32 121.154 186.939 120.667 186.46 120.289C185.982 119.911 185.419 119.654 184.82 119.54C184.77 119.533 184.719 119.536 184.671 119.549C184.622 119.562 184.576 119.584 184.536 119.615C184.496 119.645 184.462 119.684 184.437 119.728C184.412 119.771 184.396 119.82 184.39 119.87V119.87C184.379 119.97 184.407 120.071 184.468 120.152C184.53 120.232 184.62 120.285 184.72 120.3V120.3C185.19 120.404 185.629 120.616 186.002 120.92C186.376 121.224 186.673 121.611 186.87 122.05C186.905 122.096 186.948 122.135 186.998 122.164C187.048 122.194 187.103 122.212 187.16 122.22V122.22Z" fill="#263238"/>
<path d="M169.51 134.409C169.935 136.019 170.767 137.492 171.927 138.687C173.086 139.881 174.534 140.757 176.13 141.229C180.59 142.449 182.66 140.149 182.66 140.149C181.516 141.327 180.025 142.107 178.405 142.375C176.786 142.643 175.123 142.385 173.66 141.639C171.052 140.314 168.872 138.279 167.37 135.769L169.51 134.409Z" fill="#263238"/>
<path d="M170.34 112.43L170.92 115.95C170.337 116.263 169.892 116.785 169.673 117.41C169.455 118.036 169.479 118.721 169.74 119.33C171.01 122.25 169.52 126.94 167.32 128.88C167.32 128.88 167.2 127.59 166.12 127.94C165.04 128.29 165.64 135 167.9 138.1C167.9 138.1 164.56 135.35 162.45 128.38C160.45 121.94 160.05 116.52 161.27 113.94L170.34 112.43Z" fill="#263238"/>
<path d="M160.86 128.999C161.746 130.822 163.317 132.22 165.23 132.889C167.76 133.749 169.23 131.509 168.61 129.039C168.08 126.839 166.13 123.679 163.52 123.909C160.91 124.139 159.81 126.749 160.86 128.999Z" fill="#EBB376"/>
<path d="M188.86 116.06C188.86 116.06 172.32 115.53 171.39 118.76C170.46 121.99 171.33 128.63 171.56 133.24C171.72 136.4 169.14 137.95 166.64 138.1C166.374 138.12 166.106 138.12 165.84 138.1C165.026 138.069 164.231 137.846 163.52 137.45C160.52 135.65 156.94 132.86 154.91 124.67C152.26 113.98 157.34 102.45 172.63 102.31C187.92 102.17 188.86 116.06 188.86 116.06Z" fill="#407BFF"/>
<path opacity="0.5" d="M187.91 116.25C187.91 116.25 172.32 115.53 171.39 118.76C170.46 121.99 171.33 128.63 171.56 133.24C171.72 136.4 169.14 137.95 166.64 138.1C167.69 137.92 168.79 137.1 168.88 135.1C168.99 132.59 167.31 121.55 168.88 119.43C170.45 117.31 175.77 115.64 181.24 115.22C186.71 114.8 187.91 116.25 187.91 116.25Z" fill="black"/>
<path d="M167 115.67C167 115.67 165.38 117.75 166.17 119.02C166.96 120.29 191.78 118.21 192.08 117.59C192.38 116.97 189.29 115.88 188.83 115.59C188.37 115.3 188.24 112.59 187.34 112.33C186.44 112.07 174 111.21 167 115.67Z" fill="#263238"/>
<path d="M169 117C169.014 117.084 169.012 117.169 168.993 117.252C168.974 117.334 168.939 117.412 168.89 117.481C168.84 117.55 168.778 117.608 168.706 117.652C168.634 117.697 168.554 117.727 168.47 117.74C168.387 117.754 168.301 117.751 168.219 117.732C168.137 117.713 168.059 117.678 167.99 117.628C167.922 117.579 167.863 117.517 167.819 117.445C167.774 117.373 167.744 117.294 167.73 117.21C167.716 117.127 167.719 117.041 167.738 116.959C167.757 116.877 167.793 116.799 167.842 116.73C167.891 116.662 167.953 116.603 168.025 116.559C168.097 116.514 168.177 116.484 168.26 116.47C168.343 116.456 168.429 116.458 168.511 116.477C168.594 116.496 168.672 116.531 168.741 116.581C168.81 116.63 168.868 116.692 168.912 116.764C168.957 116.836 168.987 116.917 169 117V117Z" fill="#407BFF"/>
<path d="M182 132.769C181.647 133.747 181.367 134.75 181.16 135.769H180.61C178.12 135.649 177 134.769 176.52 133.839C176.295 133.375 176.182 132.865 176.19 132.349C176.188 132.058 176.229 131.769 176.31 131.489C177.816 132.243 179.467 132.663 181.15 132.719C181.64 132.759 182 132.769 182 132.769Z" fill="#263238"/>
<path d="M181.12 132.71L180.85 133.6C178.5 133.48 176.85 133.089 176.16 132.339C176.158 132.049 176.199 131.759 176.28 131.479C177.786 132.234 179.437 132.653 181.12 132.71V132.71Z" fill="white"/>
<path d="M180.58 135.76C178.09 135.64 176.97 134.76 176.49 133.83C177.436 133.889 178.364 134.116 179.23 134.5C179.805 134.763 180.278 135.205 180.58 135.76V135.76Z" fill="#DE5753"/>
<path d="M162.19 152.17L163.51 147.6C163.51 147.6 177.36 152.75 179.63 162.04C179.63 162.04 178.63 150.77 182.06 147.6L184.42 150.6C184.42 150.6 184.72 161.85 180.64 163.23C176.56 164.61 162.19 152.17 162.19 152.17Z" fill="#407BFF"/>
<path opacity="0.2" d="M162.19 152.17L163.51 147.6C163.51 147.6 177.36 152.75 179.63 162.04C179.63 162.04 178.63 150.77 182.06 147.6L184.42 150.6C184.42 150.6 184.72 161.85 180.64 163.23C176.56 164.61 162.19 152.17 162.19 152.17Z" fill="black"/>
<path d="M210.24 400.56L192.21 397.88L192.76 392.88L211.51 395.34L210.24 400.56Z" fill="#407BFF"/>
<path opacity="0.6" d="M210.24 400.56L192.21 397.88L192.76 392.88L211.51 395.34L210.24 400.56Z" fill="white"/>
<path d="M167.75 398.179H150.26V392.949L168.41 392.609L167.75 398.179Z" fill="#407BFF"/>
<path opacity="0.6" d="M167.75 398.179H150.26V392.949L168.41 392.609L167.75 398.179Z" fill="white"/>
<path d="M225.792 97.0739H224.906C224.871 96.8845 224.808 96.7178 224.715 96.5739C224.622 96.4299 224.509 96.3078 224.374 96.2074C224.24 96.107 224.089 96.0312 223.923 95.9801C223.758 95.929 223.583 95.9034 223.397 95.9034C223.062 95.9034 222.762 95.9877 222.496 96.1562C222.233 96.3248 222.025 96.572 221.871 96.8977C221.72 97.2235 221.644 97.6212 221.644 98.0909C221.644 98.5644 221.72 98.964 221.871 99.2898C222.025 99.6155 222.234 99.8617 222.499 100.028C222.764 100.195 223.063 100.278 223.394 100.278C223.578 100.278 223.752 100.254 223.917 100.205C224.084 100.153 224.234 100.079 224.369 99.9801C224.503 99.8816 224.617 99.7614 224.71 99.6193C224.804 99.4754 224.87 99.3106 224.906 99.125L225.792 99.1278C225.745 99.4138 225.653 99.6771 225.516 99.9176C225.382 100.156 225.209 100.363 224.996 100.537C224.786 100.709 224.546 100.843 224.275 100.938C224.004 101.032 223.709 101.08 223.388 101.08C222.885 101.08 222.436 100.96 222.042 100.722C221.648 100.481 221.337 100.137 221.11 99.6903C220.885 99.2434 220.772 98.7102 220.772 98.0909C220.772 97.4697 220.886 96.9366 221.113 96.4915C221.34 96.0445 221.651 95.7017 222.045 95.4631C222.439 95.2225 222.887 95.1023 223.388 95.1023C223.697 95.1023 223.985 95.1468 224.252 95.2358C224.521 95.3229 224.763 95.4517 224.977 95.6222C225.191 95.7907 225.368 95.9972 225.508 96.2415C225.648 96.4839 225.743 96.7614 225.792 97.0739ZM226.842 101V95.1818H227.72V97.7102H230.621V95.1818H231.501V101H230.621V98.4631H227.72V101H226.842ZM232.78 101V95.1818H236.428V95.9375H233.658V97.7102H236.237V98.4631H233.658V100.244H236.462V101H232.78ZM238.092 101H237.16L239.254 95.1818H240.268L242.362 101H241.43L239.785 96.2386H239.739L238.092 101ZM238.248 98.7216H241.271V99.4602H238.248V98.7216ZM243.202 101V95.1818H245.276C245.728 95.1818 246.103 95.2642 246.401 95.429C246.698 95.5937 246.92 95.8191 247.068 96.1051C247.216 96.3892 247.29 96.7093 247.29 97.0653C247.29 97.4233 247.215 97.7453 247.065 98.0312C246.918 98.3153 246.694 98.5407 246.395 98.7074C246.098 98.8722 245.723 98.9545 245.273 98.9545H243.847V98.2102H245.193C245.479 98.2102 245.711 98.161 245.889 98.0625C246.067 97.9621 246.198 97.8258 246.281 97.6534C246.365 97.4811 246.406 97.285 246.406 97.0653C246.406 96.8456 246.365 96.6506 246.281 96.4801C246.198 96.3097 246.066 96.1761 245.886 96.0795C245.708 95.983 245.473 95.9347 245.182 95.9347H244.08V101H243.202ZM217.836 108.71C217.806 108.441 217.681 108.233 217.461 108.085C217.241 107.936 216.965 107.861 216.631 107.861C216.393 107.861 216.186 107.899 216.012 107.974C215.838 108.048 215.702 108.151 215.606 108.281C215.511 108.41 215.464 108.557 215.464 108.722C215.464 108.86 215.496 108.979 215.56 109.08C215.627 109.18 215.713 109.264 215.819 109.332C215.927 109.399 216.042 109.455 216.165 109.5C216.289 109.544 216.407 109.58 216.521 109.608L217.089 109.756C217.274 109.801 217.465 109.863 217.66 109.94C217.855 110.018 218.036 110.12 218.202 110.247C218.369 110.374 218.504 110.531 218.606 110.719C218.71 110.906 218.762 111.131 218.762 111.392C218.762 111.722 218.677 112.014 218.506 112.27C218.338 112.526 218.093 112.727 217.771 112.875C217.451 113.023 217.063 113.097 216.609 113.097C216.173 113.097 215.796 113.027 215.478 112.889C215.16 112.751 214.911 112.555 214.731 112.301C214.551 112.045 214.451 111.742 214.433 111.392H215.313C215.33 111.602 215.398 111.777 215.518 111.918C215.639 112.056 215.793 112.159 215.981 112.227C216.17 112.294 216.378 112.327 216.603 112.327C216.851 112.327 217.072 112.288 217.265 112.21C217.46 112.131 217.613 112.021 217.725 111.881C217.837 111.739 217.893 111.573 217.893 111.384C217.893 111.211 217.844 111.07 217.745 110.96C217.648 110.85 217.517 110.759 217.35 110.688C217.185 110.616 216.999 110.552 216.79 110.497L216.103 110.31C215.637 110.183 215.268 109.996 214.995 109.75C214.724 109.504 214.589 109.178 214.589 108.773C214.589 108.437 214.68 108.145 214.862 107.895C215.043 107.645 215.29 107.451 215.6 107.312C215.911 107.172 216.261 107.102 216.651 107.102C217.045 107.102 217.393 107.171 217.694 107.31C217.997 107.448 218.236 107.638 218.41 107.881C218.584 108.121 218.675 108.398 218.683 108.71H217.836ZM219.811 113V107.182H220.689V109.71H223.589V107.182H224.47V113H223.589V110.463H220.689V113H219.811ZM226.626 107.182V113H225.749V107.182H226.626ZM227.905 113V107.182H229.979C230.431 107.182 230.806 107.264 231.104 107.429C231.401 107.594 231.624 107.819 231.771 108.105C231.919 108.389 231.993 108.709 231.993 109.065C231.993 109.423 231.918 109.745 231.768 110.031C231.621 110.315 231.397 110.541 231.098 110.707C230.801 110.872 230.427 110.955 229.976 110.955H228.55V110.21H229.896C230.182 110.21 230.414 110.161 230.592 110.062C230.77 109.962 230.901 109.826 230.984 109.653C231.068 109.481 231.109 109.285 231.109 109.065C231.109 108.846 231.068 108.651 230.984 108.48C230.901 108.31 230.769 108.176 230.589 108.08C230.411 107.983 230.177 107.935 229.885 107.935H228.783V113H227.905ZM233.022 113V107.182H235.096C235.549 107.182 235.924 107.264 236.221 107.429C236.518 107.594 236.741 107.819 236.888 108.105C237.036 108.389 237.11 108.709 237.11 109.065C237.11 109.423 237.035 109.745 236.886 110.031C236.738 110.315 236.514 110.541 236.215 110.707C235.918 110.872 235.544 110.955 235.093 110.955H233.667V110.21H235.013C235.299 110.21 235.531 110.161 235.71 110.062C235.888 109.962 236.018 109.826 236.102 109.653C236.185 109.481 236.227 109.285 236.227 109.065C236.227 108.846 236.185 108.651 236.102 108.48C236.018 108.31 235.887 108.176 235.707 108.08C235.529 107.983 235.294 107.935 235.002 107.935H233.9V113H233.022ZM239.017 107.182V113H238.139V107.182H239.017ZM244.991 107.182V113H244.185L241.227 108.733H241.173V113H240.295V107.182H241.108L244.068 111.455H244.122V107.182H244.991ZM250.21 109.02C250.155 108.848 250.081 108.693 249.988 108.557C249.897 108.419 249.788 108.301 249.661 108.205C249.534 108.106 249.389 108.031 249.227 107.98C249.066 107.929 248.888 107.903 248.695 107.903C248.368 107.903 248.072 107.988 247.809 108.156C247.546 108.325 247.337 108.572 247.184 108.898C247.032 109.222 246.957 109.618 246.957 110.088C246.957 110.56 247.033 110.958 247.187 111.284C247.34 111.61 247.55 111.857 247.817 112.026C248.085 112.194 248.388 112.278 248.729 112.278C249.046 112.278 249.321 112.214 249.556 112.085C249.793 111.956 249.976 111.775 250.104 111.54C250.235 111.303 250.3 111.025 250.3 110.705L250.528 110.747H248.863V110.023H251.15V110.685C251.15 111.173 251.046 111.598 250.837 111.957C250.631 112.315 250.345 112.592 249.979 112.787C249.616 112.982 249.199 113.08 248.729 113.08C248.203 113.08 247.741 112.958 247.343 112.716C246.947 112.473 246.638 112.13 246.417 111.685C246.195 111.238 246.085 110.707 246.085 110.094C246.085 109.63 246.149 109.213 246.278 108.844C246.406 108.474 246.587 108.161 246.82 107.903C247.055 107.644 247.331 107.446 247.647 107.31C247.965 107.171 248.313 107.102 248.69 107.102C249.004 107.102 249.297 107.149 249.567 107.241C249.84 107.334 250.083 107.466 250.295 107.636C250.509 107.807 250.686 108.009 250.826 108.244C250.966 108.477 251.061 108.736 251.11 109.02H250.21ZM253.267 107.182L253.193 111.327H252.406L252.332 107.182H253.267ZM252.801 113.054C252.644 113.054 252.509 112.999 252.398 112.889C252.286 112.777 252.231 112.643 252.233 112.486C252.231 112.33 252.286 112.198 252.398 112.088C252.509 111.976 252.644 111.92 252.801 111.92C252.955 111.92 253.087 111.976 253.199 112.088C253.311 112.198 253.367 112.33 253.369 112.486C253.367 112.59 253.34 112.686 253.287 112.773C253.236 112.858 253.168 112.926 253.082 112.977C252.997 113.028 252.903 113.054 252.801 113.054Z" fill="white"/>
</svg>
