<svg width="500" height="500" viewBox="0 0 500 500" fill="none" xmlns="http://www.w3.org/2000/svg">
<g clip-path="url(#clip0_95_370)">
<path d="M250 427.56C357.083 427.56 443.89 422.492 443.89 416.24C443.89 409.988 357.083 404.92 250 404.92C142.918 404.92 56.1101 409.988 56.1101 416.24C56.1101 422.492 142.918 427.56 250 427.56Z" fill="#F5F5F5"/>
<path d="M500.12 381.96H0.120117V382.21H500.12V381.96Z" fill="#E0E0E0"/>
<path d="M109.54 393.949H51.77V394.199H109.54V393.949Z" fill="#E0E0E0"/>
<path d="M235.78 388.52H209.46V388.77H235.78V388.52Z" fill="#E0E0E0"/>
<path d="M296.68 388.39H245.4V388.64H296.68V388.39Z" fill="#E0E0E0"/>
<path d="M394.29 391.39H381.8V391.64H394.29V391.39Z" fill="#E0E0E0"/>
<path d="M338.67 391.39H288.85V391.64H338.67V391.39Z" fill="#E0E0E0"/>
<path d="M129.12 393.949H119.22V394.199H129.12V393.949Z" fill="#E0E0E0"/>
<path d="M445.7 391.39H402.45V391.64H445.7V391.39Z" fill="#E0E0E0"/>
<path d="M237.12 54.5596H44C42.7845 54.5607 41.6009 54.949 40.6209 55.6683C39.6409 56.3875 38.9156 57.4002 38.55 58.5596C38.3853 59.0804 38.301 59.6233 38.3 60.1696V331.65C38.3 333.162 38.9003 334.613 39.9689 335.684C41.0376 336.754 42.4874 337.357 44 337.36H237.12C238.634 337.36 240.087 336.758 241.158 335.687C242.228 334.616 242.83 333.164 242.83 331.65V60.2696C242.83 58.7552 242.228 57.3028 241.158 56.232C240.087 55.1612 238.634 54.5596 237.12 54.5596V54.5596ZM242.58 331.65C242.577 333.097 242.001 334.484 240.978 335.507C239.955 336.531 238.567 337.107 237.12 337.11H44C42.5537 337.107 41.1675 336.53 40.1457 335.507C39.1239 334.483 38.55 333.096 38.55 331.65V60.2196C38.55 58.7732 39.1239 57.386 40.1457 56.3623C41.1675 55.3386 42.5537 54.7622 44 54.7596H237.12C238.567 54.7648 239.952 55.3418 240.975 56.3646C241.998 57.3874 242.575 58.7731 242.58 60.2196V331.65Z" fill="#E0E0E0"/>
<path d="M453.43 54.5596H260.33C258.825 54.5621 257.382 55.1577 256.313 56.2172C255.244 57.2766 254.636 58.7147 254.62 60.2196V331.65C254.62 333.164 255.222 334.616 256.293 335.687C257.363 336.758 258.816 337.36 260.33 337.36H453.43C454.941 337.354 456.388 336.75 457.455 335.68C458.521 334.61 459.12 333.16 459.12 331.65V60.2196C459.107 58.7173 458.502 57.2808 457.437 56.2213C456.372 55.1618 454.932 54.5648 453.43 54.5596V54.5596ZM458.89 331.65C458.887 333.097 458.311 334.484 457.288 335.507C456.265 336.531 454.877 337.107 453.43 337.11H260.33C258.882 337.11 257.493 336.534 256.469 335.51C255.445 334.486 254.87 333.098 254.87 331.65V60.2196C254.873 58.7723 255.449 57.3851 256.472 56.3617C257.496 55.3383 258.883 54.7622 260.33 54.7596H453.43C454.877 54.7648 456.262 55.3418 457.285 56.3646C458.308 57.3874 458.885 58.7731 458.89 60.2196V331.65Z" fill="#E0E0E0"/>
<path d="M371.15 103.689H477C477 103.689 470.61 92.1094 457.43 95.6894C457.43 95.6894 459.03 76.3394 448.64 73.2394C438.25 70.1394 432.64 82.1094 432.64 82.1094C432.64 82.1094 425.45 59.7394 411.87 62.5394C398.29 65.3394 392.7 88.5394 392.7 88.5394C392.7 88.5394 372.75 81.3194 371.15 103.689Z" fill="#F5F5F5"/>
<path d="M218.11 141.56H324C324 141.56 317.6 129.97 304.42 133.56C304.42 133.56 306.02 114.21 295.63 111.1C285.24 107.99 279.63 119.98 279.63 119.98C279.63 119.98 272.44 97.61 258.86 100.4C245.28 103.19 239.68 126.4 239.68 126.4C239.68 126.4 219.71 119.19 218.11 141.56Z" fill="#F5F5F5"/>
<path d="M216.19 70.1992H38.6602V381.959H216.19V70.1992Z" fill="#F5F5F5"/>
<path d="M186.61 169.76H74.0701V382.21H186.61V169.76Z" fill="#FAFAFA"/>
<path d="M179.5 176.51H82.1802V382.21H179.5V176.51Z" fill="#FFEADF"/>
<path d="M222.62 72.4699H38.6201V58.6099C39.0833 57.4042 39.9091 56.3719 40.9838 55.6554C42.0585 54.939 43.329 54.5737 44.6201 54.6099H216.33L216.41 54.8099L220.92 67.6799L222.62 72.4699Z" fill="#FBBB99"/>
<path d="M47.5401 80.8396C52.6266 80.8396 56.7501 77.0922 56.7501 72.4696C56.7501 67.847 52.6266 64.0996 47.5401 64.0996C42.4535 64.0996 38.3301 67.847 38.3301 72.4696C38.3301 77.0922 42.4535 80.8396 47.5401 80.8396Z" fill="#FBBB99"/>
<path d="M65.97 80.8396C71.0566 80.8396 75.18 77.0922 75.18 72.4696C75.18 67.847 71.0566 64.0996 65.97 64.0996C60.8835 64.0996 56.76 67.847 56.76 72.4696C56.76 77.0922 60.8835 80.8396 65.97 80.8396Z" fill="#FBBB99"/>
<path d="M84.4002 80.8396C89.4867 80.8396 93.6102 77.0922 93.6102 72.4696C93.6102 67.847 89.4867 64.0996 84.4002 64.0996C79.3136 64.0996 75.1902 67.847 75.1902 72.4696C75.1902 77.0922 79.3136 80.8396 84.4002 80.8396Z" fill="#FBBB99"/>
<path d="M102.83 80.8396C107.917 80.8396 112.04 77.0922 112.04 72.4696C112.04 67.847 107.917 64.0996 102.83 64.0996C97.7436 64.0996 93.6201 67.847 93.6201 72.4696C93.6201 77.0922 97.7436 80.8396 102.83 80.8396Z" fill="#FBBB99"/>
<path d="M121.26 80.8396C126.347 80.8396 130.47 77.0922 130.47 72.4696C130.47 67.847 126.347 64.0996 121.26 64.0996C116.174 64.0996 112.05 67.847 112.05 72.4696C112.05 77.0922 116.174 80.8396 121.26 80.8396Z" fill="#FBBB99"/>
<path d="M139.69 80.8396C144.777 80.8396 148.9 77.0922 148.9 72.4696C148.9 67.847 144.777 64.0996 139.69 64.0996C134.604 64.0996 130.48 67.847 130.48 72.4696C130.48 77.0922 134.604 80.8396 139.69 80.8396Z" fill="#FBBB99"/>
<path d="M158.11 80.8396C163.197 80.8396 167.32 77.0922 167.32 72.4696C167.32 67.847 163.197 64.0996 158.11 64.0996C153.024 64.0996 148.9 67.847 148.9 72.4696C148.9 77.0922 153.024 80.8396 158.11 80.8396Z" fill="#FBBB99"/>
<path d="M176.54 80.8396C181.627 80.8396 185.75 77.0922 185.75 72.4696C185.75 67.847 181.627 64.0996 176.54 64.0996C171.454 64.0996 167.33 67.847 167.33 72.4696C167.33 77.0922 171.454 80.8396 176.54 80.8396Z" fill="#FBBB99"/>
<path d="M194.97 80.8396C200.057 80.8396 204.18 77.0922 204.18 72.4696C204.18 67.847 200.057 64.0996 194.97 64.0996C189.883 64.0996 185.76 67.847 185.76 72.4696C185.76 77.0922 189.883 80.8396 194.97 80.8396Z" fill="#FBBB99"/>
<path d="M222.62 72.4696C222.62 77.0896 218.49 80.8396 213.4 80.8396C208.31 80.8396 204.18 77.0896 204.18 72.4696C204.18 67.8496 208.31 64.0996 213.4 64.0996C214.839 64.0792 216.264 64.3865 217.567 64.998C218.87 65.6096 220.016 66.5095 220.92 67.6296L222.62 72.4696Z" fill="#FBBB99"/>
<path d="M216.19 97.2598H38.6602V100.18H216.19V97.2598Z" fill="#FAFAFA"/>
<path d="M353.9 315.88H216.2V322.07H353.9V315.88Z" fill="#E0E0E0"/>
<path d="M245.16 381.949H224.37V285.459L234.76 276.579L245.16 285.459V381.949Z" fill="#FFEADF"/>
<path d="M274.94 381.949H254.15V285.459L264.55 276.579L274.94 285.459V381.949Z" fill="#FFEADF"/>
<path d="M304.73 381.949H283.94V285.459L294.33 276.579L304.73 285.459V381.949Z" fill="#FFEADF"/>
<path d="M334.51 381.949H313.72V285.459L324.12 276.579L334.51 285.459V381.949Z" fill="#FFEADF"/>
<path d="M364.29 381.949H343.51V285.459L353.9 276.579L364.29 285.459V381.949Z" fill="#FFEADF"/>
<path d="M149.47 89.5795C149.47 89.5795 147.54 84.8595 135.65 86.2595C123.76 87.6595 122.53 103.4 116.59 114.59C110.65 125.78 104.34 131.21 104.34 131.21C104.34 131.21 103.47 138.03 116.41 141.88C129.35 145.73 154.71 139.3 154.71 139.3C154.71 139.3 157.99 109.51 153.12 100.42C148.25 91.3295 149.47 89.5795 149.47 89.5795Z" fill="#263238"/>
<path d="M184.23 387.149L168.12 388.149C168.12 388.149 161.29 326.069 153.77 280.869C153.77 280.719 153.77 280.549 153.7 280.379C150.62 261.929 147.43 246.379 144.55 239.089C144.55 239.089 140.85 296.959 139.75 322.649C138.65 348.339 133.52 393.289 133.52 393.289L118.63 395.499C118.63 395.499 116.17 306.019 117.63 289.119C119.09 272.219 112.44 209.619 123.9 194.119H165.35C165.35 194.119 181.4 282.059 182.56 306.439C183.72 330.819 184.23 387.149 184.23 387.149Z" fill="#263238"/>
<path d="M130.02 393.489L129.78 398.289L129.22 409.399L120.88 410.639L120.69 398.649L120.62 394.039L130.02 393.489Z" fill="#FF8B7B"/>
<path d="M180.65 405.66L171.32 408.26C171.32 408.26 171.1 402.65 170.88 397.26C170.74 393.79 170.6 390.41 170.51 388.68C170.51 388.01 170.45 387.6 170.43 387.51L180.49 386.51V389.67L180.56 396.81L180.65 405.66Z" fill="#FF8B7B"/>
<path d="M132.58 406.94C132.58 406.94 134.13 400.73 136.58 401.04C139.03 401.35 132.58 406.94 132.58 406.94Z" stroke="#284BF9" stroke-miterlimit="10"/>
<path d="M133.28 406.939C133.28 406.939 139.11 402.829 140.19 404.939C141.27 407.049 133.28 406.939 133.28 406.939Z" stroke="#284BF9" stroke-miterlimit="10"/>
<path d="M184.23 407.57C184.23 407.57 185.53 401 187 401C188.47 401 184.23 407.57 184.23 407.57Z" stroke="#284BF9" stroke-miterlimit="10"/>
<path d="M183.92 409.61C183.92 409.61 187.34 402.88 189.13 404.33C190.92 405.78 183.92 409.61 183.92 409.61Z" stroke="#284BF9" stroke-miterlimit="10"/>
<path d="M139.86 414.999C139.86 414.999 122.08 415.459 120.79 415.299C119.5 415.139 118.07 415.069 117.97 413.669C117.97 412.989 118.58 408.859 118.68 407.419C118.78 405.979 118.42 405.229 120.23 404.769C122.04 404.309 130.83 403.289 131.89 404.379C132.95 405.469 136.57 409.619 139.25 410.099C141.93 410.579 144.18 410.389 144.37 411.909C144.56 413.429 144.62 414.889 139.86 414.999Z" fill="#263238"/>
<path d="M191.05 414.999C191.05 414.999 173.28 415.459 171.98 415.299C170.68 415.139 169.4 414.749 169.19 414.099C168.98 413.449 169.78 408.859 169.87 407.419C169.96 405.979 169.61 405.229 171.42 404.769C173.23 404.309 182.02 403.289 183.08 404.379C184.14 405.469 187.76 409.619 190.45 410.099C193.14 410.579 195.37 410.389 195.56 411.909C195.75 413.429 195.81 414.889 191.05 414.999Z" fill="#263238"/>
<path opacity="0.3" d="M153.7 280.37C150.62 261.92 147.43 246.37 144.55 239.08L146.46 228.6C146.46 228.6 151.41 266 153.7 280.37Z" fill="black"/>
<path opacity="0.2" d="M130 393.489L129.76 398.289C127.42 398.379 122.76 398.549 120.67 398.649L120.6 394.039L130 393.489Z" fill="black"/>
<path opacity="0.2" d="M180.58 396.8L170.88 397.26C170.74 393.79 170.6 390.41 170.51 388.68L180.51 389.68L180.58 396.8Z" fill="black"/>
<path d="M186.98 386.5L185.49 394.11L167.73 395.49L165.4 386.5H186.98Z" fill="#284BF9"/>
<path d="M135.91 388.979L134.35 396.499L115.81 397.379L115.82 388.979H135.91Z" fill="#284BF9"/>
<path d="M190.9 170.89C186.9 172.8 175.9 174.89 175.9 174.89C175.9 174.89 168.7 156.28 166.8 145.7C166.204 141.918 164.397 138.431 161.651 135.762C158.905 133.094 155.368 131.388 151.57 130.9C146.71 130.27 126.19 130.48 118.99 131.96C111.79 133.44 110.54 144.01 109.9 150.36C109.26 156.71 105.25 180.36 108.63 187.36C112.01 194.36 123.86 191.58 123.86 191.58V194.12H165.32L164.32 174.72C164.32 174.72 168.24 185.02 174.32 185.44C180.4 185.86 194.2 175.72 194.2 175.72L190.9 170.89ZM117.9 181.74C117.9 181.74 118.36 169.66 119.18 166.18L120.43 172.63L122.19 181.74H117.9Z" fill="#284BF9"/>
<path d="M144.27 179L150.79 171.11L159.94 169.71L161.34 177.84L154.34 180.4C154.34 180.4 150.97 184.46 144.24 183.76L144.27 179Z" fill="#FF8B7B"/>
<path d="M190.9 170.889L194.29 164.669L202.56 161.189L205.69 169.659L198.84 172.329C198.84 172.329 197.05 176.269 194.29 175.759L190.9 170.889Z" fill="#FF8B7B"/>
<path d="M144.41 123.319C144.365 124.039 144.365 124.76 144.41 125.479C144.51 126.849 144.25 129.359 146.94 130.679C145.55 133.679 142.2 141.199 140.17 143.749C137.08 141.219 129.82 131.009 129.82 131.009C129.82 131.009 134.92 125.479 131.26 115.059C131.26 115.059 126.12 111.299 127.15 109.229C128.33 106.819 131.68 108.119 132.39 109.139C131.64 108.039 128.15 95.9694 132.39 91.5294C135.03 88.7594 137.67 88.7294 142.59 88.5294H143C146.15 88.4194 148.49 88.5294 148.49 88.5294C149.56 89.6814 150.502 90.9454 151.3 92.2994C153.531 95.9419 154.9 100.047 155.3 104.299C156.23 114.209 154.28 122.239 144.41 123.319Z" fill="#FF8B7B"/>
<path d="M147.13 110.999C147.13 110.999 142.65 112.519 141.02 109.119" stroke="#263238" stroke-width="0.5" stroke-linecap="round" stroke-linejoin="round"/>
<path d="M141.72 96.7C140.971 96.6779 140.23 96.8668 139.583 97.2452C138.936 97.6236 138.408 98.1762 138.06 98.84" stroke="#263238" stroke-linecap="round" stroke-linejoin="round"/>
<path d="M153.12 95.6691C152.757 95.2718 152.317 94.9519 151.828 94.7285C151.338 94.5052 150.808 94.3829 150.27 94.3691" stroke="#263238" stroke-linecap="round" stroke-linejoin="round"/>
<path d="M149 109.16L148.12 101.67L152.53 107.33C152.53 107.33 152.1 109.28 149 109.16Z" fill="#FF5652"/>
<path d="M141.76 101.729C141.81 102.489 142.26 103.079 142.76 103.049C143.26 103.019 143.61 102.369 143.55 101.599C143.49 100.829 143.06 100.249 142.55 100.289C142.04 100.329 141.7 100.999 141.76 101.729Z" fill="#263238"/>
<path d="M150.48 100.479C150.54 101.249 150.98 101.839 151.48 101.799C151.98 101.759 152.33 101.119 152.27 100.349C152.21 99.5791 151.77 98.9991 151.27 99.0391C150.77 99.0791 150.43 99.7191 150.48 100.479Z" fill="#263238"/>
<path d="M129.35 103.6C129.35 103.6 124.24 96.7495 128.46 92.3095C131.1 89.5395 138.2 87.7295 143.11 87.5195C143 88.6795 143.11 98.8395 129.35 103.6Z" fill="#263238"/>
<path d="M151.38 92.3298C148.241 92.0126 145.294 90.666 143 88.4998L142.61 88.0898C144.58 88.0084 146.552 88.1493 148.49 88.5098V88.5098C149.56 89.6618 150.502 90.9258 151.3 92.2798L151.38 92.3298Z" fill="#263238"/>
<path opacity="0.2" d="M144.44 125.48C142.267 124.819 140.339 123.527 138.9 121.77C140.623 122.629 142.492 123.155 144.41 123.32C144.375 124.039 144.385 124.761 144.44 125.48V125.48Z" fill="black"/>
<path opacity="0.2" d="M120.44 172.63L119.19 166.18V156.92C119.19 156.92 120.63 166.69 120.44 172.63Z" fill="black"/>
<path d="M304.219 142.672L231.325 146.799L234.501 202.899L307.394 198.773L304.219 142.672Z" fill="#284BF9"/>
<path opacity="0.3" d="M304.219 142.672L231.325 146.799L234.501 202.899L307.394 198.773L304.219 142.672Z" fill="black"/>
<path d="M277.726 144.177L204.833 148.304L208.008 204.404L280.902 200.277L277.726 144.177Z" fill="#284BF9"/>
<path opacity="0.3" d="M277.726 144.177L204.833 148.304L208.008 204.404L280.902 200.277L277.726 144.177Z" fill="white"/>
<path opacity="0.3" d="M286.743 149.025L271.183 149.959L271.498 155.209L287.058 154.275L286.743 149.025Z" fill="black"/>
<path opacity="0.5" d="M224.919 154.187L209.384 155.066L209.864 163.553L225.399 162.673L224.919 154.187Z" fill="white"/>
<path opacity="0.3" d="M230.345 176.317L206.503 177.667L206.877 184.286L230.719 182.937L230.345 176.317Z" fill="black"/>
<path d="M325.28 96.4307L321.28 101.531C322.388 102.304 323.662 102.808 325 103.001L325.28 96.4307Z" fill="#A02724"/>
<path d="M394.32 409.21L382.7 408.55L380.34 398.64L379.05 393.21L378.57 391.21L387.51 390.6L388.15 390.55L390.05 396.3L394.32 409.21Z" fill="#B55B52"/>
<path d="M327.5 410.84C327.72 411.63 316.71 410.22 316.71 410.22L316.32 400.97L316.02 393.83V393.44H316.11L327.29 394.55C327.29 394.55 327.29 397.55 327.29 400.96C327.31 405.34 327.37 410.41 327.5 410.84Z" fill="#B55B52"/>
<path d="M350.82 123.25C350.82 123.25 335.12 127.5 336.28 124.42C336.865 122.556 337.098 120.599 336.97 118.65C336.97 117.37 336.81 116.46 336.81 116.46C331.13 116.79 327.31 112.68 325.61 107.62C323.42 101.13 324.22 93.88 326.88 87.72C327.09 87.22 327.69 85.1 328.22 84.84L334.38 82C334.38 82 340.38 85.93 343.5 88.37C346.62 90.81 349.13 102.15 349.13 110.97C349.13 119.79 350.82 123.25 350.82 123.25Z" fill="#B55B52"/>
<path d="M324.81 94.5605C324.532 94.6364 324.286 94.7982 324.106 95.0228C323.927 95.2474 323.823 95.5232 323.81 95.8105C323.769 96.0774 323.81 96.3505 323.928 96.5934C324.046 96.8364 324.235 97.0377 324.47 97.1705L324.81 94.5605Z" fill="#263238"/>
<path d="M324.81 89.4803C325.463 89.4657 326.106 89.643 326.66 89.9903" stroke="#263238" stroke-linecap="round" stroke-linejoin="round"/>
<path d="M330.27 105.71C330.27 105.71 334.83 112.83 342.09 114.46C349.35 116.09 351.64 113.57 352.61 109.46C353.451 105.585 355.311 102.005 358 99.0899C360.51 96.4999 359 89.4699 355.81 83.6899C355.81 83.6899 359.23 80.8199 353.72 78.0599C348.21 75.2999 346.18 79.8899 341.4 77.2099C336.62 74.5299 343 73.6399 338.49 81.9999C333.98 90.3599 331.49 84.2799 330.82 87.9999C330.15 91.7199 326.66 98.1799 330.27 105.71Z" fill="#263238"/>
<path d="M330.82 89.7303C330.37 89.5803 315.91 84.3503 315.77 81.9803C315.63 79.6103 326.98 83.9203 327.41 84.0903L330.34 88.7203L330.82 89.7303Z" fill="#284BF9"/>
<path d="M360 95.4602C359.86 95.8902 359 98.7402 358.63 98.7402L357.42 98.6702C356.293 98.5769 355.173 98.4469 354.06 98.2802C352.83 98.0902 351.62 97.8502 350.43 97.5702H350.38C349.17 97.2802 347.98 96.9602 346.82 96.5702C343.973 95.7105 341.178 94.6854 338.45 93.5002V93.5002C336.91 92.8302 335.55 92.1802 334.45 91.6202C332.2 90.5002 330.86 89.7102 330.86 89.7102L330.66 89.3802L329.84 88.0902L328.09 85.3202L327.49 84.3902V84.3202C327.462 84.2358 327.462 84.1446 327.49 84.0602C327.55 83.0002 329.72 80.0602 330.11 79.5602C331.716 77.4135 333.762 75.634 336.11 74.3402C339.33 72.5602 342.96 73.3402 346.38 73.9402C347.511 74.1751 348.614 74.5305 349.67 75.0002V75.0002L350.34 75.2902L350.47 75.3502C350.59 75.4202 350.72 75.4702 350.84 75.5302L351.06 75.6402C353.601 76.8303 355.913 78.4585 357.89 80.4502C362.39 85.5002 360.56 93.8302 360 95.4602Z" fill="#284BF9"/>
<path d="M355.11 128.62C355.11 128.62 354.39 123.62 352.82 122.62C351.25 121.62 335.65 121.77 333.22 123.48C330.79 125.19 331.22 130.78 331.22 130.78L355.11 128.62Z" fill="#284BF9"/>
<path d="M327.42 97.8105C327.42 97.8105 330.08 94.3705 332.93 96.5005C335.78 98.6305 333.52 103.68 330.17 105.1C330.17 105.1 325.84 106.51 325.28 102.1C324.72 97.6905 327.42 97.8105 327.42 97.8105Z" fill="#B55B52"/>
<path d="M316.75 217.53C316.75 217.53 310.8 274.46 309.14 300.64C307.48 326.82 313.58 393.77 313.58 393.77H328.05C328.05 393.77 329.71 327.26 332.21 307.31C334.71 287.36 343.01 260.31 343.01 260.31C343.01 260.31 348.01 303.12 353.01 320.58C358.01 338.04 374.25 391.38 374.25 391.38L390.91 388.18C390.91 388.18 370.91 319.75 370.91 298.55C370.91 277.35 371.1 234.55 366.12 217.55L316.75 217.53Z" fill="#284BF9"/>
<path opacity="0.3" d="M390.88 388.201L374.23 391.411C374.23 391.411 358 338.071 353 320.611C350.25 311.011 347.51 293.721 345.6 280.111C344 269.001 343 260.341 343 260.341C343 260.341 334.69 287.341 332.19 307.341C329.69 327.341 328.04 393.801 328.04 393.801H313.58C313.58 393.801 307.48 326.861 309.14 300.681C310.8 274.501 316.75 217.561 316.75 217.561H366.07C371.07 234.561 370.87 277.411 370.87 298.561C370.87 319.711 390.88 388.201 390.88 388.201Z" fill="black"/>
<path opacity="0.3" d="M345.59 280.11C344 269 343 260.34 343 260.34L344 244.8L345.59 280.11Z" fill="black"/>
<path d="M312.01 390.99H329.35L328.5 398.13H312.69L312.01 390.99Z" fill="#263238"/>
<path d="M372.14 389.95L390.89 382.98L393.26 393.12L374.96 398.13L372.14 389.95Z" fill="#263238"/>
<path opacity="0.2" d="M387.51 390.601L379.05 393.211L380.34 398.641L390.05 396.301L387.51 390.601Z" fill="black"/>
<path opacity="0.2" d="M327.29 401H316.29L315.99 393.86L316.06 393.48L327.24 394.59C327.24 394.59 327.27 397.55 327.29 401Z" fill="black"/>
<path d="M311 414.39C311.07 414.58 304.08 410.51 306 408.61C307.92 406.71 311 414.39 311 414.39Z" stroke="#284BF9" stroke-miterlimit="10"/>
<path d="M312 414.1C311.95 414.3 308.1 407.19 310.72 406.56C313.34 405.93 312 414.1 312 414.1Z" stroke="#284BF9" stroke-miterlimit="10"/>
<path d="M381.09 410.071C381.09 410.071 378.8 402.701 376.58 403.911C374.36 405.121 381.09 410.071 381.09 410.071Z" stroke="#284BF9" stroke-miterlimit="10"/>
<path d="M380.47 410.71C380.47 410.71 375.3 405 373.79 407C372.28 409 380.47 410.71 380.47 410.71Z" stroke="#284BF9" stroke-miterlimit="10"/>
<path d="M394.75 408.53H382.33C382.33 408.53 375.15 412.85 372 413.25C368.85 413.65 367 413.84 367.09 416.1C367.18 418.36 369.09 418.56 375.54 418.46C381.99 418.36 394.79 419.15 396.18 417.87C397.57 416.59 396.69 414.18 394.75 408.53Z" fill="#263238"/>
<path d="M327.5 410.07L315.5 410.16C315.5 410.16 308.32 414.48 305.18 414.88C302.04 415.28 300.18 415.47 300.26 417.73C300.34 419.99 302.26 420.19 308.72 420.09C315.18 419.99 326.57 420.92 327.96 419.64C329.35 418.36 328.58 416.26 327.5 410.07Z" fill="#263238"/>
<path opacity="0.3" d="M327.41 84.0899C327.72 85.6799 328.04 86.8999 330.67 89.6699C327.33 88.4299 315.89 84.0099 315.77 81.9799C315.65 79.9499 324.53 82.9999 327.41 84.0899Z" fill="black"/>
<path opacity="0.3" d="M327.41 84.3401C327.382 84.2557 327.382 84.1644 327.41 84.0801V84.0801C327.41 84.0801 327.41 84.1901 327.41 84.4001V84.3401Z" fill="black"/>
<path opacity="0.3" d="M330.82 89.7302L330.51 89.6102C330.526 89.5683 330.546 89.5281 330.57 89.4902L330.82 89.7302Z" fill="black"/>
<path d="M360 95.4602C359.86 95.8902 359 98.7402 358.63 98.7402L357.42 98.6702C356.293 98.5769 355.173 98.4469 354.06 98.2802C352.83 98.0902 351.62 97.8502 350.43 97.5702H350.38C349.17 97.2802 347.98 96.9602 346.82 96.5702C343.973 95.7105 341.178 94.6854 338.45 93.5002V93.5002C336.91 92.8302 335.55 92.1802 334.45 91.6202C332.2 90.5002 330.86 89.7102 330.86 89.7102L330.66 89.3802L329.84 88.0902L328.09 85.3202L327.49 84.3902V84.3202C327.462 84.2358 327.462 84.1446 327.49 84.0602C327.55 83.0002 329.72 80.0602 330.11 79.5602C331.716 77.4135 333.762 75.634 336.11 74.3402C339.33 72.5602 342.96 73.3402 346.38 73.9402C347.511 74.1751 348.614 74.5305 349.67 75.0002V75.0002L350.34 75.2902L350.47 75.3502C350.59 75.4202 350.72 75.4702 350.84 75.5302L351.06 75.6402C353.601 76.8303 355.913 78.4585 357.89 80.4502C362.39 85.5002 360.56 93.8302 360 95.4602Z" fill="#284BF9"/>
<path opacity="0.2" d="M340.33 115.5C339.265 116.608 338.144 117.659 336.97 118.65C336.97 117.37 336.81 116.46 336.81 116.46C338.016 116.276 339.197 115.954 340.33 115.5V115.5Z" fill="black"/>
<path d="M316.75 218.09V166.87L307.4 163.06C307.4 163.06 309.19 135.73 322.5 131.42C335.81 127.11 359.5 125.3 366.02 131.42C370.14 135.31 370.69 141.55 370.84 146.9C371.16 157.8 368.31 168.46 367.68 179.3C367.18 188.12 366.88 196.94 366.68 205.77C366.68 206.45 366.42 218.09 366.4 218.09H316.75Z" fill="#263238"/>
<path d="M321.87 168.62C321.87 168.62 314.95 191.48 308.11 192.91C301.27 194.34 277.91 181.59 277.91 181.59H267.48L266 172.42C266 172.42 275.71 168.82 282.18 173.13C282.18 173.13 297.29 179.72 302.32 181.64L309.61 164L321.87 168.62Z" fill="#B55B52"/>
</g>
<defs>
<clipPath id="clip0_95_370">
<rect width="500" height="500" fill="white"/>
</clipPath>
</defs>
</svg>
