<svg width="500" height="500" viewBox="0 0 500 500" fill="none" xmlns="http://www.w3.org/2000/svg">
<path d="M87.9999 401.54C176.75 460.85 320.64 460.85 409.39 401.54C498.14 342.23 498.14 246.05 409.39 186.74C320.64 127.43 176.75 127.42 87.9999 186.74C-0.750107 246.06 -0.710106 342.22 87.9999 401.54Z" fill="#284BF9"/>
<path opacity="0.7" d="M87.9999 401.54C176.75 460.85 320.64 460.85 409.39 401.54C498.14 342.23 498.14 246.05 409.39 186.74C320.64 127.43 176.75 127.42 87.9999 186.74C-0.750107 246.06 -0.710106 342.22 87.9999 401.54Z" fill="white"/>
<path opacity="0.1" d="M167.51 290.16C162.87 292.84 148.33 298.68 128.88 301.43C120.794 302.584 112.626 303.072 104.46 302.89C97.5668 302.739 90.696 302.05 83.91 300.83C72.35 278 94.66 257.11 102.47 252.61L211.75 189.52L274.47 225.73C274.704 225.867 274.899 226.064 275.034 226.3C275.169 226.536 275.24 226.803 275.24 227.075C275.24 227.346 275.169 227.613 275.034 227.849C274.899 228.085 274.704 228.282 274.47 228.42L167.51 290.16Z" fill="black"/>
<path opacity="0.1" d="M285.53 404.85C278.28 409.02 255.58 418.14 225.21 422.44C212.587 424.241 199.838 425.004 187.09 424.72C176.325 424.481 165.596 423.401 155 421.49C137 385.91 171.78 353.24 184 346.22L354.6 247.72L452.52 304.25C452.887 304.464 453.192 304.77 453.404 305.139C453.616 305.507 453.727 305.925 453.727 306.35C453.727 306.775 453.616 307.192 453.404 307.561C453.192 307.929 452.887 308.236 452.52 308.45L285.53 404.85Z" fill="black"/>
<path d="M427.52 277.55L253.81 377.85V359.09C246.56 363.27 223.86 372.38 193.49 376.68C180.869 378.5 168.119 379.275 155.37 379C144.609 378.764 133.883 377.687 123.29 375.78L137 385.25C157.992 399.829 182.729 408.073 208.27 409C244.13 410.24 267.35 402.82 282.27 394.22L442.6 301.64C444.248 300.687 445.68 299.401 446.802 297.863C447.925 296.325 448.715 294.57 449.12 292.71L456 261.13L427.52 277.55Z" fill="#37474F"/>
<path d="M432.11 290.77C432.89 287.16 435.82 282.89 438.66 281.25C441.5 279.61 443.15 281.25 442.36 284.83C441.57 288.41 438.65 292.71 435.82 294.35C432.99 295.99 431.32 294.39 432.11 290.77Z" fill="#E0E0E0"/>
<path d="M433.83 293.5C433.68 293.5 433.65 293.5 433.63 293.43C433.46 293.23 433.27 292.51 433.57 291.09C434.27 287.89 436.94 283.98 439.41 282.55C439.779 282.299 440.206 282.148 440.65 282.11C440.79 282.11 440.82 282.11 440.84 282.17C441.01 282.38 441.21 283.1 440.9 284.52C440.21 287.71 437.53 291.62 435.06 293.05C434.694 293.301 434.271 293.456 433.83 293.5Z" fill="#455A64"/>
<path d="M415.86 299.94C416.64 296.32 419.58 292.06 422.41 290.42C425.24 288.78 426.9 290.42 426.12 294C425.34 297.58 422.4 301.88 419.57 303.52C416.74 305.16 415.07 303.55 415.86 299.94Z" fill="#E0E0E0"/>
<path d="M417.58 302.66C417.43 302.66 417.4 302.66 417.38 302.6C417.075 301.85 417.054 301.014 417.32 300.25C418.02 297.06 420.69 293.15 423.16 291.72C423.53 291.469 423.956 291.315 424.4 291.27C424.55 291.27 424.57 291.27 424.6 291.34C424.89 292.092 424.89 292.927 424.6 293.68C423.91 296.88 421.23 300.79 418.77 302.22C418.415 302.461 418.007 302.613 417.58 302.66V302.66Z" fill="#455A64"/>
<path d="M399.61 309.1C400.4 305.48 403.33 301.22 406.16 299.58C408.99 297.94 410.65 299.58 409.87 303.16C409.09 306.74 406.15 311.04 403.32 312.68C400.49 314.32 398.83 312.72 399.61 309.1Z" fill="#E0E0E0"/>
<path d="M401.33 311.82C401.18 311.82 401.16 311.82 401.13 311.76C400.824 311.014 400.806 310.18 401.08 309.42C401.77 306.22 404.44 302.31 406.91 300.88C407.279 300.631 407.706 300.479 408.15 300.44C408.3 300.44 408.33 300.44 408.35 300.5C408.64 301.254 408.64 302.087 408.35 302.84C407.66 306.04 404.99 309.95 402.52 311.38C402.165 311.622 401.757 311.773 401.33 311.82V311.82Z" fill="#455A64"/>
<path d="M253.81 359.09C246.56 363.27 223.86 372.38 193.49 376.68C180.869 378.5 168.119 379.276 155.37 379C144.609 378.764 133.883 377.687 123.29 375.78C105.29 340.2 140.07 307.53 152.29 300.5L196.97 326.29L228.54 344.52L253.81 359.09Z" fill="#FAFAFA"/>
<path d="M248.57 359C246.82 359.82 244.66 360.75 242.12 361.75L152.29 309.89V303.42L248.57 359Z" fill="#F8A77B"/>
<path d="M228.51 344.48L196.94 326.25L152.26 300.46C140.07 307.46 105.26 340.16 123.26 375.74C133.862 377.662 144.598 378.752 155.37 379C168.118 379.289 180.868 378.526 193.49 376.72C223.86 372.42 246.56 363.31 253.81 359.13L228.51 344.48ZM193.14 374.2C182.408 375.731 171.581 376.506 160.74 376.52C158.98 376.52 157.21 376.5 155.43 376.46C145.22 376.217 135.042 375.214 124.98 373.46C116.57 355.76 122.25 339.36 128.59 328.62C135.76 316.49 146.21 307.22 152.29 303.33L195.69 328.33L248.57 359C239.59 363.13 220 370.4 193.14 374.2Z" fill="#FAFAFA"/>
<path d="M228.51 344.48L196.94 326.25L152.26 300.46C140.07 307.46 105.26 340.16 123.26 375.74C133.862 377.662 144.598 378.752 155.37 379C168.118 379.289 180.868 378.526 193.49 376.72C223.86 372.42 246.56 363.31 253.81 359.13L228.51 344.48ZM193.14 374.2C182.408 375.731 171.581 376.506 160.74 376.52C158.98 376.52 157.21 376.5 155.43 376.46C145.22 376.217 135.042 375.214 124.98 373.46C116.57 355.76 122.25 339.36 128.59 328.62C135.76 316.49 146.21 307.22 152.29 303.33L195.69 328.33L248.57 359C239.59 363.13 220 370.4 193.14 374.2Z" fill="#455A64"/>
<path d="M242.12 361.7C226.322 367.737 209.88 371.931 193.12 374.2C182.388 375.734 171.561 376.513 160.72 376.53C158.96 376.53 157.19 376.53 155.41 376.46C145.199 376.222 135.021 375.219 124.96 373.46C122.668 368.7 121.278 363.557 120.86 358.29C119.95 346.6 124.09 336.2 128.57 328.63C135.74 316.49 146.19 307.22 152.27 303.33V309.8L242.12 361.7Z" fill="#37474F"/>
<path d="M242.12 361.7C226.322 367.737 209.879 371.931 193.12 374.2C182.388 375.734 171.561 376.512 160.72 376.53C158.96 376.53 157.19 376.53 155.41 376.46C145.199 376.222 135.021 375.219 124.96 373.46C122.668 368.7 121.277 363.556 120.86 358.29C121.624 350.072 124.262 342.139 128.57 335.1C135.74 322.96 146.19 313.7 152.27 309.8L195.67 334.85L242.12 361.7Z" fill="#9A4A4D"/>
<path d="M152.29 314.7C146.21 318.6 135.76 327.86 128.59 340C124.742 346.333 122.208 353.377 121.14 360.71C121.757 365.148 123.059 369.462 125 373.5C135.061 375.26 145.239 376.262 155.45 376.5C157.23 376.5 159 376.57 160.76 376.57C171.601 376.553 182.428 375.774 193.16 374.24C208.09 372.162 222.776 368.602 237 363.61L195.67 339.75L152.29 314.7Z" fill="#B16668"/>
<path d="M143.35 334.14V333.14C143.367 332.839 143.455 332.546 143.606 332.286C143.757 332.025 143.967 331.804 144.22 331.64L150.61 327.95C150.88 327.82 151.175 327.753 151.475 327.753C151.774 327.753 152.07 327.82 152.34 327.95L175 341C175.254 341.162 175.466 341.383 175.617 341.644C175.768 341.905 175.855 342.198 175.87 342.5V343.5C175.853 343.8 175.765 344.093 175.614 344.353C175.463 344.614 175.252 344.835 175 345L168.61 348.69C168.342 348.827 168.046 348.899 167.745 348.899C167.444 348.899 167.147 348.827 166.88 348.69L144.24 335.62C143.986 335.46 143.774 335.242 143.619 334.985C143.464 334.728 143.372 334.439 143.35 334.14Z" fill="#EBEBEB"/>
<path d="M167.72 345.92V348.92C167.42 348.925 167.124 348.853 166.86 348.71L144.22 335.64C143.967 335.476 143.756 335.255 143.605 334.994C143.454 334.734 143.366 334.441 143.35 334.14V333.14C143.369 332.873 143.442 332.612 143.564 332.373C143.686 332.134 143.854 331.922 144.06 331.75C143.75 332.03 143.8 332.4 144.22 332.64L166.86 345.71C167.123 345.854 167.42 345.927 167.72 345.92V345.92Z" fill="#E0E0E0"/>
<path d="M144.22 332.64L166.86 345.72C167.13 345.85 167.425 345.917 167.725 345.917C168.024 345.917 168.32 345.85 168.59 345.72L175 342C175.48 341.72 175.48 341.27 175 341L152.34 328C152.07 327.871 151.774 327.804 151.475 327.804C151.175 327.804 150.88 327.871 150.61 328L144.22 331.69C143.74 331.92 143.74 332.37 144.22 332.64Z" fill="#FAFAFA"/>
<path d="M175.85 352.92V351.92C175.867 351.619 175.955 351.327 176.106 351.066C176.257 350.806 176.467 350.584 176.72 350.42L183.11 346.73C183.38 346.6 183.675 346.533 183.975 346.533C184.274 346.533 184.57 346.6 184.84 346.73L207.48 359.81C207.734 359.972 207.946 360.193 208.097 360.454C208.248 360.715 208.335 361.009 208.35 361.31V362.31C208.333 362.611 208.245 362.903 208.094 363.164C207.943 363.424 207.732 363.646 207.48 363.81L201.09 367.5C200.822 367.638 200.526 367.71 200.225 367.71C199.924 367.71 199.627 367.638 199.36 367.5L176.72 354.43C176.466 354.265 176.255 354.042 176.104 353.779C175.952 353.517 175.865 353.222 175.85 352.92V352.92Z" fill="#EBEBEB"/>
<path d="M200.22 364.7V367.7C199.92 367.706 199.624 367.633 199.36 367.49L176.72 354.42C176.467 354.257 176.256 354.035 176.105 353.775C175.954 353.514 175.866 353.221 175.85 352.92V351.92C175.869 351.653 175.942 351.392 176.064 351.153C176.186 350.914 176.354 350.703 176.56 350.53C176.25 350.81 176.3 351.18 176.72 351.42L199.36 364.49C199.623 364.635 199.92 364.707 200.22 364.7V364.7Z" fill="#E0E0E0"/>
<path d="M176.72 351.42L199.36 364.5C199.63 364.629 199.925 364.697 200.225 364.697C200.524 364.697 200.82 364.629 201.09 364.5L207.48 360.81C207.96 360.53 207.96 360.08 207.48 359.81L184.84 346.73C184.57 346.6 184.274 346.533 183.975 346.533C183.675 346.533 183.38 346.6 183.11 346.73L176.72 350.42C176.24 350.7 176.24 351.15 176.72 351.42Z" fill="#FAFAFA"/>
<path d="M168.51 309.84L253.81 359.09V377.85L455.95 261.13L354.39 202.5L168.51 309.84Z" fill="#FAFAFA"/>
<path d="M253.81 373.16L447.82 261.13L354.4 207.19L172.57 312.18L168.51 309.84L354.39 202.5L455.95 261.13L253.81 377.85V373.16Z" fill="#455A64"/>
<path d="M354.4 207.19L354.39 216.57L439.7 265.82L447.82 261.13L354.4 207.19Z" fill="#F8A77B"/>
<path d="M172.57 312.18L180.69 316.87L354.39 216.57L354.4 207.19L172.57 312.18Z" fill="#37474F"/>
<path d="M180.69 316.87L354.39 216.57L439.7 265.82L253.81 373.16V359.09L180.69 316.87Z" fill="#9A4A4D"/>
<path d="M186.09 319.99L253.81 359.09V373.16L434.3 268.94L354.39 222.81L186.09 319.99Z" fill="#B16668"/>
<path d="M335.76 245.31L397 280.69C397.4 280.897 397.844 281.005 398.295 281.005C398.746 281.005 399.19 280.897 399.59 280.69L413.14 272.77C413.541 272.565 413.985 272.459 414.435 272.459C414.885 272.459 415.329 272.565 415.73 272.77L417.27 273.66C417.673 273.864 418.118 273.971 418.57 273.971C419.022 273.971 419.467 273.864 419.87 273.66L433.55 265.79C434.27 265.38 434.27 264.71 433.55 264.29L363 223.55C362.598 223.348 362.155 223.242 361.705 223.242C361.255 223.242 360.812 223.348 360.41 223.55L342.71 233.79C341.99 234.2 341.99 234.87 342.71 235.29L345.29 236.8C346.01 237.21 346.01 237.88 345.29 238.3L335.74 243.81C335 244.23 335 244.9 335.76 245.31Z" fill="#9A4A4D"/>
<path d="M203.47 317.78L272.17 357.45C272.57 357.657 273.014 357.765 273.465 357.765C273.916 357.765 274.36 357.657 274.76 357.45L319 331.89C319.158 331.838 319.295 331.737 319.392 331.602C319.49 331.468 319.542 331.306 319.542 331.14C319.542 330.974 319.49 330.812 319.392 330.677C319.295 330.543 319.158 330.442 319 330.39L250.3 290.72C249.897 290.517 249.451 290.412 249 290.412C248.549 290.412 248.104 290.517 247.7 290.72L203.44 316.28C202.75 316.7 202.75 317.37 203.47 317.78Z" fill="#9A4A4D"/>
<path d="M256.27 287.3L325 327C325.403 327.202 325.849 327.308 326.3 327.308C326.751 327.308 327.197 327.202 327.6 327L371.86 301.44C372.58 301.02 372.58 300.35 371.86 299.94L303.16 260.27C302.758 260.063 302.312 259.955 301.86 259.955C301.408 259.955 300.962 260.063 300.56 260.27L256.27 285.8C255.55 286.21 255.55 286.88 256.27 287.3Z" fill="#9A4A4D"/>
<path d="M276.69 297.37L258.11 286.65C257.859 286.486 257.65 286.264 257.501 286.003C257.351 285.743 257.265 285.45 257.25 285.15V268.38C257.265 268.08 257.351 267.788 257.501 267.528C257.65 267.267 257.859 267.045 258.11 266.88L301.06 242.09C301.328 241.953 301.624 241.881 301.925 241.881C302.226 241.881 302.522 241.953 302.79 242.09L321.37 252.81C321.623 252.975 321.833 253.196 321.984 253.457C322.135 253.717 322.223 254.01 322.24 254.31V271.07C322.225 271.372 322.139 271.665 321.987 271.926C321.836 272.187 321.624 272.408 321.37 272.57L278.42 297.37C278.152 297.508 277.856 297.58 277.555 297.58C277.254 297.58 276.958 297.508 276.69 297.37V297.37Z" fill="#37474F"/>
<path d="M258.54 268.13L276.26 278.36C276.662 278.563 277.105 278.668 277.555 278.668C278.005 278.668 278.448 278.563 278.85 278.36L320.94 254.06C321.66 253.65 321.66 252.98 320.94 252.56L303.23 242.34C302.828 242.133 302.382 242.025 301.93 242.025C301.478 242.025 301.032 242.133 300.63 242.34L258.54 266.63C258.382 266.683 258.245 266.783 258.148 266.918C258.05 267.052 257.998 267.214 257.998 267.38C257.998 267.547 258.05 267.708 258.148 267.843C258.245 267.978 258.382 268.078 258.54 268.13V268.13Z" fill="#455A64"/>
<path d="M277.56 278.67V297.58C277.257 297.586 276.957 297.514 276.69 297.37L258.11 286.65C257.859 286.485 257.65 286.263 257.501 286.003C257.351 285.742 257.265 285.45 257.25 285.15V268.39C257.263 268.089 257.348 267.796 257.497 267.535C257.647 267.274 257.857 267.053 258.11 266.89L258.47 266.68C257.83 267.09 257.85 267.73 258.54 268.13L276.26 278.36C276.659 278.575 277.107 278.681 277.56 278.67V278.67Z" fill="#F8A77B"/>
<path d="M278.77 279.79L279.39 279.43V295.49L278.77 295.85V279.79Z" fill="#F8A77B"/>
<path d="M281.05 278.47L281.67 278.11V294.18L281.05 294.53V278.47Z" fill="#F8A77B"/>
<path d="M283.34 277.15L283.96 276.79V292.86L283.34 293.21V277.15Z" fill="#F8A77B"/>
<path d="M285.62 275.83L286.24 275.47V291.54L285.62 291.89V275.83Z" fill="#F8A77B"/>
<path d="M287.9 274.51L288.52 274.15V290.22L287.9 290.57V274.51Z" fill="#F8A77B"/>
<path d="M290.19 273.19L290.81 272.83V288.9L290.19 289.26V273.19Z" fill="#F8A77B"/>
<path d="M292.47 271.87L293.09 271.52V287.58L292.47 287.94V271.87Z" fill="#F8A77B"/>
<path d="M294.75 270.56L295.37 270.2V286.26L294.75 286.62V270.56Z" fill="#F8A77B"/>
<path d="M297.04 269.24L297.66 268.88V284.94L297.04 285.3V269.24Z" fill="#F8A77B"/>
<path d="M299.32 267.92L299.94 267.56V283.62L299.32 283.98V267.92Z" fill="#F8A77B"/>
<path d="M301.6 266.6L302.22 266.24V282.3L301.6 282.66V266.6Z" fill="#F8A77B"/>
<path d="M303.89 265.28L304.51 264.92V280.98L303.89 281.34V265.28Z" fill="#F8A77B"/>
<path d="M306.17 263.96L306.79 263.6V279.66L306.17 280.02V263.96Z" fill="#F8A77B"/>
<path d="M308.45 262.64L309.07 262.28V278.34L308.45 278.7V262.64Z" fill="#F8A77B"/>
<path d="M310.74 261.32L311.36 260.96V277.02L310.74 277.38V261.32Z" fill="#F8A77B"/>
<path d="M313.02 260L313.64 259.64V275.7L313.02 276.06V260Z" fill="#F8A77B"/>
<path d="M315.3 258.68L315.92 258.32V274.38L315.3 274.74V258.68Z" fill="#F8A77B"/>
<path d="M317.59 257.36L318.21 257V273.07L317.59 273.42V257.36Z" fill="#F8A77B"/>
<path d="M319.87 256.04L320.49 255.68V271.75L319.87 272.11V256.04Z" fill="#F8A77B"/>
<path opacity="0.3" d="M267.22 274.92L266.6 274.56V290.63L267.22 290.98V274.92Z" fill="black"/>
<path opacity="0.3" d="M268.49 276.7L276.01 281.05V280.62L268.49 276.27V276.7Z" fill="black"/>
<path opacity="0.3" d="M268.49 291.07L276.01 295.42V294.99L268.49 290.64V291.07Z" fill="black"/>
<path opacity="0.3" d="M268.49 282.47L276.01 286.81V286.38L268.49 282.04V282.47Z" fill="black"/>
<path opacity="0.3" d="M268.49 283.84L276.01 288.18V287.75L268.49 283.41V283.84Z" fill="black"/>
<path opacity="0.3" d="M268.49 285.21L276.01 289.55V289.12L268.49 284.78V285.21Z" fill="black"/>
<path opacity="0.3" d="M258.11 270.73L265.63 275.07V274.64L258.11 270.3V270.73Z" fill="black"/>
<path opacity="0.3" d="M258.11 285.1L265.63 289.44V289.01L258.11 284.67V285.1Z" fill="black"/>
<path opacity="0.3" d="M258.11 276.49L265.63 280.83V280.4L258.11 276.06V276.49Z" fill="black"/>
<path opacity="0.3" d="M258.11 277.86L265.63 282.21V281.77L258.11 277.43V277.86Z" fill="black"/>
<path opacity="0.3" d="M258.11 279.24L265.63 283.58V283.15L258.11 278.81V279.24Z" fill="black"/>
<path d="M301 311.49L282.42 300.76C282.168 300.596 281.959 300.374 281.81 300.114C281.66 299.853 281.575 299.56 281.56 299.26V282.5C281.578 282.201 281.664 281.909 281.814 281.649C281.963 281.389 282.171 281.167 282.42 281L325.37 256.2C325.641 256.069 325.939 256.001 326.24 256.001C326.541 256.001 326.839 256.069 327.11 256.2L345.68 266.93C345.933 267.094 346.144 267.315 346.295 267.576C346.446 267.836 346.534 268.129 346.55 268.43V285.19C346.533 285.491 346.445 285.783 346.294 286.044C346.143 286.305 345.933 286.526 345.68 286.69L302.73 311.49C302.46 311.62 302.164 311.687 301.865 311.687C301.566 311.687 301.27 311.62 301 311.49Z" fill="#284BF9"/>
<path opacity="0.3" d="M282.89 282.25L300.6 292.48C301.003 292.683 301.449 292.788 301.9 292.788C302.351 292.788 302.796 292.683 303.2 292.48L345.28 268.18C346 267.76 346 267.09 345.28 266.68L327.57 256.45C327.166 256.248 326.721 256.143 326.27 256.143C325.819 256.143 325.373 256.248 324.97 256.45L282.89 280.75C282.732 280.802 282.595 280.903 282.498 281.038C282.4 281.172 282.348 281.334 282.348 281.5C282.348 281.666 282.4 281.828 282.498 281.963C282.595 282.098 282.732 282.198 282.89 282.25V282.25Z" fill="white"/>
<path opacity="0.1" d="M301.9 292.78V311.69C301.596 311.701 301.295 311.629 301.03 311.48L282.45 300.77C282.2 300.604 281.992 300.382 281.842 300.122C281.693 299.861 281.607 299.569 281.59 299.27V282.51C281.602 282.209 281.686 281.916 281.836 281.654C281.986 281.393 282.196 281.172 282.45 281.01L282.81 280.8C282.17 281.21 282.19 281.85 282.88 282.24L300.6 292.48C301 292.691 301.448 292.795 301.9 292.78Z" fill="black"/>
<path opacity="0.1" d="M303.45 293.75L304.07 293.39V309.45L303.45 309.81V293.75Z" fill="black"/>
<path opacity="0.1" d="M305.74 292.43L306.36 292.07V308.13L305.74 308.49V292.43Z" fill="black"/>
<path opacity="0.1" d="M308.02 291.11L308.64 290.75V306.82L308.02 307.17V291.11Z" fill="black"/>
<path opacity="0.1" d="M310.3 289.79L310.92 289.43V305.5L310.3 305.86V289.79Z" fill="black"/>
<path opacity="0.1" d="M312.59 288.47L313.21 288.11V304.18L312.59 304.54V288.47Z" fill="black"/>
<path opacity="0.1" d="M314.87 287.15L315.49 286.8V302.86L314.87 303.22V287.15Z" fill="black"/>
<path opacity="0.1" d="M317.15 285.83L317.77 285.48V301.54L317.15 301.9V285.83Z" fill="black"/>
<path opacity="0.1" d="M319.44 284.51L320.06 284.16V300.22L319.44 300.58V284.51Z" fill="black"/>
<path opacity="0.1" d="M321.72 283.2L322.34 282.84V298.9L321.72 299.26V283.2Z" fill="black"/>
<path opacity="0.1" d="M324 281.88L324.62 281.52V297.58L324 297.94V281.88Z" fill="black"/>
<path opacity="0.1" d="M326.29 280.56L326.91 280.2V296.26L326.29 296.62V280.56Z" fill="black"/>
<path opacity="0.1" d="M328.57 279.24L329.19 278.88V294.94L328.57 295.3V279.24Z" fill="black"/>
<path opacity="0.1" d="M330.85 277.92L331.47 277.56V293.62L330.85 293.98V277.92Z" fill="black"/>
<path opacity="0.1" d="M333.14 276.6L333.76 276.24V292.3L333.14 292.66V276.6Z" fill="black"/>
<path opacity="0.1" d="M335.42 275.28L336.04 274.92V290.98L335.42 291.34V275.28Z" fill="black"/>
<path opacity="0.1" d="M337.7 273.96L338.32 273.6V289.67L337.7 290.02V273.96Z" fill="black"/>
<path opacity="0.1" d="M339.99 272.64L340.61 272.28V288.35L339.99 288.7V272.64Z" fill="black"/>
<path opacity="0.1" d="M342.27 271.32L342.89 270.96V287.03L342.27 287.38V271.32Z" fill="black"/>
<path opacity="0.1" d="M344.55 270L345.17 269.64V285.71L344.55 286.06V270Z" fill="black"/>
<path opacity="0.1" d="M291.9 288.88L291.28 288.52V304.59L291.9 304.94V288.88Z" fill="black"/>
<path opacity="0.1" d="M293.17 290.66L300.69 295.01V294.57L293.17 290.23V290.66Z" fill="black"/>
<path opacity="0.1" d="M293.17 305.04L300.69 309.38V308.95L293.17 304.61V305.04Z" fill="black"/>
<path opacity="0.1" d="M293.17 296.43L300.69 300.77V300.34L293.17 296V296.43Z" fill="black"/>
<path opacity="0.1" d="M293.17 297.8L300.69 302.14V301.71L293.17 297.37V297.8Z" fill="black"/>
<path opacity="0.1" d="M293.17 299.17L300.69 303.51V303.08L293.17 298.74V299.17Z" fill="black"/>
<path opacity="0.1" d="M282.79 284.69L290.31 289.03V288.6L282.79 284.26V284.69Z" fill="black"/>
<path opacity="0.1" d="M282.79 299.06L290.31 303.4V302.97L282.79 298.63V299.06Z" fill="black"/>
<path opacity="0.1" d="M282.79 290.45L290.31 294.79V294.36L282.79 290.02V290.45Z" fill="black"/>
<path opacity="0.1" d="M282.79 291.82L290.31 296.17V295.74L282.79 291.39V291.82Z" fill="black"/>
<path opacity="0.1" d="M282.79 293.2L290.31 297.54V297.11L282.79 292.77V293.2Z" fill="black"/>
<path d="M325.4 325.53L306.83 314.81C306.577 314.645 306.367 314.424 306.216 314.163C306.065 313.903 305.977 313.61 305.96 313.31V296.55C305.975 296.248 306.061 295.955 306.213 295.694C306.364 295.433 306.576 295.212 306.83 295.05L349.78 270.25C350.048 270.112 350.344 270.04 350.645 270.04C350.946 270.04 351.242 270.112 351.51 270.25L370.09 281C370.34 281.166 370.547 281.388 370.696 281.648C370.846 281.909 370.932 282.2 370.95 282.5V299.27C370.935 299.57 370.849 299.862 370.699 300.122C370.55 300.383 370.341 300.605 370.09 300.77L327.14 325.56C326.868 325.693 326.569 325.759 326.266 325.754C325.964 325.749 325.667 325.672 325.4 325.53Z" fill="#37474F"/>
<path d="M307.26 296.3L325 306.52C325.402 306.727 325.848 306.835 326.3 306.835C326.752 306.835 327.198 306.727 327.6 306.52L369.68 282.22C370.4 281.81 370.4 281.14 369.68 280.72L351.94 270.5C351.538 270.293 351.092 270.185 350.64 270.185C350.188 270.185 349.742 270.293 349.34 270.5L307.26 294.8C306.54 295.21 306.54 295.88 307.26 296.3Z" fill="#455A64"/>
<path d="M326.27 306.83V325.74C325.967 325.746 325.667 325.674 325.4 325.53L306.82 314.81C306.569 314.645 306.36 314.423 306.211 314.163C306.061 313.902 305.975 313.61 305.96 313.31V296.55C305.973 296.249 306.058 295.956 306.207 295.695C306.357 295.434 306.567 295.213 306.82 295.05L307.18 294.84C306.54 295.25 306.56 295.89 307.25 296.29L325 306.52C325.39 306.73 325.827 306.836 326.27 306.83Z" fill="#F8A77B"/>
<path d="M327.48 307.95L328.1 307.59V323.65L327.48 324.01V307.95Z" fill="#F8A77B"/>
<path d="M329.77 306.63L330.39 306.27V322.34L329.77 322.69V306.63Z" fill="#F8A77B"/>
<path d="M332.05 305.31L332.67 304.95V321.02L332.05 321.38V305.31Z" fill="#F8A77B"/>
<path d="M334.33 303.99L334.95 303.63V319.7L334.33 320.06V303.99Z" fill="#F8A77B"/>
<path d="M336.62 302.67L337.24 302.31V318.38L336.62 318.74V302.67Z" fill="#F8A77B"/>
<path d="M338.9 301.35L339.52 301V317.06L338.9 317.42V301.35Z" fill="#F8A77B"/>
<path d="M341.18 300.04L341.81 299.68L341.8 315.74L341.18 316.1V300.04Z" fill="#F8A77B"/>
<path d="M343.47 298.72L344.09 298.36V314.42L343.47 314.78V298.72Z" fill="#F8A77B"/>
<path d="M345.75 297.4L346.37 297.04V313.1L345.75 313.46V297.4Z" fill="#F8A77B"/>
<path d="M348.03 296.08L348.65 295.72V311.78L348.03 312.14V296.08Z" fill="#F8A77B"/>
<path d="M350.32 294.76L350.94 294.4V310.46L350.32 310.82V294.76Z" fill="#F8A77B"/>
<path d="M352.6 293.44L353.22 293.08V309.14L352.6 309.5V293.44Z" fill="#F8A77B"/>
<path d="M354.88 292.12L355.5 291.76V307.82L354.88 308.18V292.12Z" fill="#F8A77B"/>
<path d="M357.17 290.8L357.79 290.44V306.5L357.17 306.86V290.8Z" fill="#F8A77B"/>
<path d="M359.45 289.48L360.07 289.12V305.19L359.45 305.54V289.48Z" fill="#F8A77B"/>
<path d="M361.73 288.16L362.35 287.8V303.87L361.73 304.22V288.16Z" fill="#F8A77B"/>
<path d="M364.02 286.84L364.64 286.48V302.55L364.02 302.9V286.84Z" fill="#F8A77B"/>
<path d="M366.3 285.52L366.92 285.16V301.23L366.3 301.58V285.52Z" fill="#F8A77B"/>
<path d="M368.58 284.2L369.2 283.85V299.91L368.58 300.27V284.2Z" fill="#F8A77B"/>
<path opacity="0.3" d="M315.93 303.08L315.31 302.72V318.79L315.93 319.14V303.08Z" fill="black"/>
<path opacity="0.3" d="M317.2 304.87L324.72 309.21V308.78L317.2 304.44V304.87Z" fill="black"/>
<path opacity="0.3" d="M317.2 319.24L324.72 323.58V323.15L317.2 318.81V319.24Z" fill="black"/>
<path opacity="0.3" d="M317.2 310.63L324.72 314.97V314.54L317.2 310.2V310.63Z" fill="black"/>
<path opacity="0.3" d="M317.2 312L324.72 316.34V315.91L317.2 311.57V312Z" fill="black"/>
<path opacity="0.3" d="M317.2 313.37L324.72 317.71V317.28L317.2 312.94V313.37Z" fill="black"/>
<path opacity="0.3" d="M306.82 298.89L314.34 303.23V302.8L306.82 298.46V298.89Z" fill="black"/>
<path opacity="0.3" d="M306.82 313.26L314.34 317.6V317.17L306.82 312.83V313.26Z" fill="black"/>
<path opacity="0.3" d="M306.82 304.65L314.34 309V308.56L306.82 304.22V304.65Z" fill="black"/>
<path opacity="0.3" d="M306.82 306.02L314.34 310.37V309.94L306.82 305.6V306.02Z" fill="black"/>
<path opacity="0.3" d="M306.82 307.4L314.34 311.74V311.31L306.82 306.97V307.4Z" fill="black"/>
<path d="M223.85 327.86L205.28 317.13C205.026 316.967 204.814 316.746 204.663 316.485C204.511 316.224 204.425 315.931 204.41 315.63V298.87C204.427 298.569 204.515 298.277 204.666 298.016C204.817 297.755 205.027 297.534 205.28 297.37L248.23 272.57C248.5 272.44 248.795 272.373 249.095 272.373C249.394 272.373 249.69 272.44 249.96 272.57L268.54 283.3C268.789 283.466 268.997 283.688 269.146 283.949C269.295 284.209 269.382 284.5 269.4 284.8V301.56C269.385 301.86 269.3 302.153 269.15 302.413C269.001 302.674 268.792 302.896 268.54 303.06L225.54 327.86C225.277 327.989 224.988 328.057 224.695 328.057C224.402 328.057 224.113 327.989 223.85 327.86V327.86Z" fill="#284BF9"/>
<path opacity="0.3" d="M205.71 298.62L223.42 308.85C223.823 309.053 224.269 309.158 224.72 309.158C225.171 309.158 225.617 309.053 226.02 308.85L268.1 284.55C268.258 284.498 268.395 284.398 268.492 284.263C268.589 284.128 268.642 283.966 268.642 283.8C268.642 283.634 268.589 283.472 268.492 283.338C268.395 283.203 268.258 283.103 268.1 283.05L250.39 272.82C249.987 272.618 249.541 272.513 249.09 272.513C248.639 272.513 248.193 272.618 247.79 272.82L205.71 297.12C205 297.54 205 298.21 205.71 298.62Z" fill="white"/>
<path opacity="0.1" d="M224.72 309.16V328.07C224.417 328.077 224.117 328.004 223.85 327.86L205.27 317.14C205.019 316.975 204.81 316.753 204.66 316.493C204.511 316.232 204.425 315.94 204.41 315.64V298.88C204.423 298.579 204.508 298.286 204.657 298.025C204.807 297.764 205.017 297.543 205.27 297.38L205.63 297.17C204.99 297.58 205.01 298.22 205.7 298.62L223.42 308.85C223.819 309.065 224.267 309.172 224.72 309.16V309.16Z" fill="black"/>
<path opacity="0.1" d="M226.28 310.12L226.9 309.76V325.83L226.28 326.19V310.12Z" fill="black"/>
<path opacity="0.1" d="M228.56 308.8L229.18 308.44V324.51L228.56 324.87V308.8Z" fill="black"/>
<path opacity="0.1" d="M230.84 307.48L231.46 307.13V323.19L230.84 323.55V307.48Z" fill="black"/>
<path opacity="0.1" d="M233.13 306.17L233.75 305.81V321.87L233.13 322.23V306.17Z" fill="black"/>
<path opacity="0.1" d="M235.41 304.85L236.03 304.49V320.55L235.41 320.91V304.85Z" fill="black"/>
<path opacity="0.1" d="M237.69 303.53L238.31 303.17V319.23L237.69 319.59V303.53Z" fill="black"/>
<path opacity="0.1" d="M239.98 302.21L240.6 301.85V317.91L239.98 318.27V302.21Z" fill="black"/>
<path opacity="0.1" d="M242.26 300.89L242.88 300.53V316.59L242.26 316.95V300.89Z" fill="black"/>
<path opacity="0.1" d="M244.54 299.57L245.16 299.21V315.27L244.54 315.63V299.57Z" fill="black"/>
<path opacity="0.1" d="M246.83 298.25L247.45 297.89V313.95L246.83 314.31V298.25Z" fill="black"/>
<path opacity="0.1" d="M249.11 296.93L249.73 296.57V312.63L249.11 312.99V296.93Z" fill="black"/>
<path opacity="0.1" d="M251.39 295.61L252.01 295.25V311.31L251.39 311.67V295.61Z" fill="black"/>
<path opacity="0.1" d="M253.68 294.29L254.3 293.93V310L253.68 310.35V294.29Z" fill="black"/>
<path opacity="0.1" d="M255.96 292.97L256.58 292.61V308.68L255.96 309.03V292.97Z" fill="black"/>
<path opacity="0.1" d="M258.24 291.65L258.86 291.29V307.36L258.24 307.71V291.65Z" fill="black"/>
<path opacity="0.1" d="M260.53 290.33L261.15 289.98V306.04L260.53 306.39V290.33Z" fill="black"/>
<path opacity="0.1" d="M262.81 289.01L263.43 288.65V304.72L262.81 305.08V289.01Z" fill="black"/>
<path opacity="0.1" d="M265.09 287.69L265.71 287.34V303.4L265.09 303.76V287.69Z" fill="black"/>
<path opacity="0.1" d="M267.38 286.38L268 286.02V302.08L267.38 302.44V286.38Z" fill="black"/>
<path opacity="0.1" d="M214.72 305.25L214.1 304.9V320.96L214.72 321.32V305.25Z" fill="black"/>
<path opacity="0.1" d="M215.99 307.04L223.51 311.38V310.95L215.99 306.61V307.04Z" fill="black"/>
<path opacity="0.1" d="M215.99 321.41L223.51 325.75V325.32L215.99 320.98V321.41Z" fill="black"/>
<path opacity="0.1" d="M215.99 312.8L223.51 317.14V316.71L215.99 312.37V312.8Z" fill="black"/>
<path opacity="0.1" d="M215.99 314.17L223.51 318.51V318.08L215.99 313.74V314.17Z" fill="black"/>
<path opacity="0.1" d="M215.99 315.54L223.51 319.88V319.45L215.99 315.11V315.54Z" fill="black"/>
<path opacity="0.1" d="M205.62 301.06L213.14 305.4V304.97L205.62 300.63V301.06Z" fill="black"/>
<path opacity="0.1" d="M205.62 315.43L213.14 319.78V319.35L205.62 315V315.43Z" fill="black"/>
<path opacity="0.1" d="M205.62 306.82L213.14 311.17V310.74L205.62 306.39V306.82Z" fill="black"/>
<path opacity="0.1" d="M205.62 308.2L213.14 312.54V312.11L205.62 307.77V308.2Z" fill="black"/>
<path opacity="0.1" d="M205.62 309.57L213.14 313.91V313.48L205.62 309.14V309.57Z" fill="black"/>
<path d="M248.23 341.94L229.65 331.21C229.396 331.047 229.184 330.826 229.033 330.565C228.881 330.304 228.795 330.011 228.78 329.71V313C228.797 312.699 228.885 312.406 229.036 312.146C229.187 311.885 229.398 311.664 229.65 311.5L272.65 286.71C272.918 286.572 273.214 286.5 273.515 286.5C273.816 286.5 274.112 286.572 274.38 286.71L292.96 297.43C293.211 297.594 293.42 297.816 293.569 298.077C293.719 298.337 293.805 298.63 293.82 298.93V315.69C293.807 315.99 293.722 316.283 293.573 316.544C293.423 316.805 293.213 317.027 292.96 317.19L249.96 341.99C249.689 342.12 249.39 342.183 249.089 342.174C248.788 342.166 248.494 342.085 248.23 341.94V341.94Z" fill="#37474F"/>
<path d="M230.08 312.7L247.79 322.93C248.194 323.132 248.639 323.237 249.09 323.237C249.541 323.237 249.987 323.132 250.39 322.93L292.47 298.63C293.19 298.22 293.19 297.55 292.47 297.13L274.76 286.91C274.36 286.703 273.916 286.595 273.465 286.595C273.014 286.595 272.57 286.703 272.17 286.91L230.08 311.2C229.36 311.62 229.36 312.29 230.08 312.7Z" fill="#455A64"/>
<path d="M249.1 323.24V342.15C248.797 342.157 248.497 342.084 248.23 341.94L229.65 331.22C229.399 331.055 229.19 330.834 229.041 330.573C228.891 330.312 228.805 330.02 228.79 329.72V313C228.803 312.699 228.888 312.406 229.037 312.145C229.187 311.884 229.397 311.663 229.65 311.5L230.01 311.29C229.37 311.7 229.39 312.34 230.08 312.74L247.8 322.97C248.203 323.171 248.651 323.264 249.1 323.24V323.24Z" fill="#F8A77B"/>
<path d="M250.31 324.36L250.93 324V340.06L250.31 340.42V324.36Z" fill="#F8A77B"/>
<path d="M252.59 323.04L253.21 322.68V338.74L252.59 339.1V323.04Z" fill="#F8A77B"/>
<path d="M254.87 321.72L255.49 321.36V337.42L254.87 337.78V321.72Z" fill="#F8A77B"/>
<path d="M257.16 320.4L257.78 320.04L257.77 336.11L257.16 336.46V320.4Z" fill="#F8A77B"/>
<path d="M259.44 319.08L260.06 318.72V334.79L259.44 335.14V319.08Z" fill="#F8A77B"/>
<path d="M261.72 317.76L262.34 317.4V333.47L261.72 333.82V317.76Z" fill="#F8A77B"/>
<path d="M264 316.44L264.63 316.08V332.15L264.01 332.5L264 316.44Z" fill="#F8A77B"/>
<path d="M266.29 315.12L266.91 314.76V330.83L266.29 331.19V315.12Z" fill="#F8A77B"/>
<path d="M268.57 313.8L269.19 313.45V329.51L268.57 329.87V313.8Z" fill="#F8A77B"/>
<path d="M270.86 312.49L271.48 312.13V328.19L270.86 328.55V312.49Z" fill="#F8A77B"/>
<path d="M273.14 311.17L273.76 310.81V326.87L273.14 327.23V311.17Z" fill="#F8A77B"/>
<path d="M275.42 309.85L276.04 309.49V325.55L275.42 325.91V309.85Z" fill="#F8A77B"/>
<path d="M277.71 308.53L278.33 308.17V324.23L277.71 324.59V308.53Z" fill="#F8A77B"/>
<path d="M279.99 307.21L280.61 306.85V322.91L279.99 323.27V307.21Z" fill="#F8A77B"/>
<path d="M282.27 305.89L282.89 305.53V321.59L282.27 321.95V305.89Z" fill="#F8A77B"/>
<path d="M284.56 304.57L285.18 304.21V320.27L284.56 320.63V304.57Z" fill="#F8A77B"/>
<path d="M286.84 303.25L287.46 302.89V318.95L286.84 319.31V303.25Z" fill="#F8A77B"/>
<path d="M289.12 301.93L289.74 301.57V317.63L289.12 317.99V301.93Z" fill="#F8A77B"/>
<path d="M291.41 300.61L292.03 300.25L292.02 316.31L291.41 316.67V300.61Z" fill="#F8A77B"/>
<path opacity="0.3" d="M238.75 319.49L238.13 319.13V335.19L238.75 335.55V319.49Z" fill="black"/>
<path opacity="0.3" d="M240.02 321.27L247.54 325.61V325.18L240.02 320.84V321.27Z" fill="black"/>
<path opacity="0.3" d="M240.02 335.64L247.54 339.99V339.56L240.02 335.21V335.64Z" fill="black"/>
<path opacity="0.3" d="M240.02 327.04L247.54 331.38V330.95L240.02 326.6V327.04Z" fill="black"/>
<path opacity="0.3" d="M240.02 328.41L247.54 332.75V332.32L240.02 327.98V328.41Z" fill="black"/>
<path opacity="0.3" d="M240.02 329.78L247.54 334.12V333.69L240.02 329.35V329.78Z" fill="black"/>
<path opacity="0.3" d="M229.65 315.3L237.17 319.64V319.21L229.65 314.87V315.3Z" fill="black"/>
<path opacity="0.3" d="M229.65 329.67L237.17 334.01V333.58L229.65 329.24V329.67Z" fill="black"/>
<path opacity="0.3" d="M229.65 321.06L237.17 325.4V324.97L229.65 320.63V321.06Z" fill="black"/>
<path opacity="0.3" d="M229.65 322.43L237.17 326.77V326.34L229.65 322V322.43Z" fill="black"/>
<path opacity="0.3" d="M229.65 323.81L237.17 328.15V327.72L229.65 323.37V323.81Z" fill="black"/>
<path d="M272.6 356L254 345.29C253.747 345.125 253.537 344.904 253.386 344.643C253.235 344.383 253.147 344.09 253.13 343.79V327C253.147 326.699 253.235 326.406 253.386 326.146C253.537 325.885 253.747 325.664 254 325.5L297 300.71C297.267 300.572 297.564 300.5 297.865 300.5C298.166 300.5 298.462 300.572 298.73 300.71L317.31 311.43C317.562 311.594 317.773 311.815 317.924 312.076C318.075 312.336 318.163 312.629 318.18 312.93V329.69C318.165 329.991 318.078 330.284 317.927 330.545C317.776 330.806 317.564 331.027 317.31 331.19L274.33 356C274.062 356.137 273.766 356.209 273.465 356.209C273.164 356.209 272.867 356.137 272.6 356V356Z" fill="#284BF9"/>
<path opacity="0.3" d="M254.45 326.77L272.17 337C272.572 337.202 273.015 337.307 273.465 337.307C273.915 337.307 274.358 337.202 274.76 337L316.85 312.7C317.008 312.647 317.145 312.547 317.242 312.412C317.339 312.278 317.392 312.116 317.392 311.95C317.392 311.783 317.339 311.622 317.242 311.487C317.145 311.352 317.008 311.252 316.85 311.2L299.14 301C298.738 300.793 298.292 300.685 297.84 300.685C297.388 300.685 296.942 300.793 296.54 301L254.45 325.29C254.299 325.346 254.169 325.447 254.077 325.579C253.986 325.712 253.937 325.869 253.937 326.03C253.937 326.191 253.986 326.348 254.077 326.48C254.169 326.612 254.299 326.713 254.45 326.77V326.77Z" fill="white"/>
<path opacity="0.1" d="M273.47 337.31V356.22C273.167 356.227 272.867 356.154 272.6 356.01L254 345.29C253.749 345.125 253.54 344.904 253.39 344.643C253.241 344.382 253.155 344.09 253.14 343.79V327C253.153 326.699 253.238 326.406 253.387 326.145C253.537 325.884 253.747 325.663 254 325.5L254.36 325.29C253.72 325.7 253.74 326.34 254.43 326.74L272.17 337C272.569 337.215 273.017 337.322 273.47 337.31V337.31Z" fill="black"/>
<path opacity="0.1" d="M275.02 338.27L275.64 337.92V353.98L275.02 354.34V338.27Z" fill="black"/>
<path opacity="0.1" d="M277.3 336.95L277.92 336.6V352.66L277.3 353.02V336.95Z" fill="black"/>
<path opacity="0.1" d="M279.59 335.64L280.21 335.28V351.34L279.59 351.7V335.64Z" fill="black"/>
<path opacity="0.1" d="M281.87 334.32L282.49 333.96V350.02L281.87 350.38V334.32Z" fill="black"/>
<path opacity="0.1" d="M284.15 333L284.77 332.64V348.7L284.15 349.06V333Z" fill="black"/>
<path opacity="0.1" d="M286.44 331.68L287.06 331.32V347.38L286.44 347.74V331.68Z" fill="black"/>
<path opacity="0.1" d="M288.72 330.36L289.34 330V346.06L288.72 346.42V330.36Z" fill="black"/>
<path opacity="0.1" d="M291 329.04L291.62 328.68V344.74L291 345.1V329.04Z" fill="black"/>
<path opacity="0.1" d="M293.29 327.72L293.91 327.36V343.42L293.29 343.78V327.72Z" fill="black"/>
<path opacity="0.1" d="M295.57 326.4L296.19 326.04V342.11L295.57 342.46V326.4Z" fill="black"/>
<path opacity="0.1" d="M297.85 325.08L298.47 324.72V340.79L297.85 341.14V325.08Z" fill="black"/>
<path opacity="0.1" d="M300.14 323.76L300.76 323.4V339.47L300.14 339.82V323.76Z" fill="black"/>
<path opacity="0.1" d="M302.42 322.44L303.04 322.08V338.15L302.42 338.5V322.44Z" fill="black"/>
<path opacity="0.1" d="M304.7 321.12L305.32 320.76V336.83L304.7 337.19V321.12Z" fill="black"/>
<path opacity="0.1" d="M306.99 319.8L307.61 319.45V335.51L306.99 335.87V319.8Z" fill="black"/>
<path opacity="0.1" d="M309.27 318.49L309.89 318.13V334.19L309.27 334.55V318.49Z" fill="black"/>
<path opacity="0.1" d="M311.55 317.17L312.17 316.81V332.87L311.55 333.23V317.17Z" fill="black"/>
<path opacity="0.1" d="M313.84 315.85L314.46 315.49V331.55L313.84 331.91V315.85Z" fill="black"/>
<path opacity="0.1" d="M316.12 314.53L316.74 314.17V330.23L316.12 330.59V314.53Z" fill="black"/>
<path opacity="0.1" d="M263.47 333.41L262.85 333.05V349.11L263.47 349.47V333.41Z" fill="black"/>
<path opacity="0.1" d="M264.74 335.19L272.26 339.53V339.1L264.74 334.76V335.19Z" fill="black"/>
<path opacity="0.1" d="M264.74 349.56L272.26 353.9V353.47L264.74 349.13V349.56Z" fill="black"/>
<path opacity="0.1" d="M264.74 340.95L272.26 345.29V344.86L264.74 340.52V340.95Z" fill="black"/>
<path opacity="0.1" d="M264.74 342.32L272.26 346.66V346.23L264.74 341.89V342.32Z" fill="black"/>
<path opacity="0.1" d="M264.74 343.69L272.26 348.04V347.61L264.74 343.26V343.69Z" fill="black"/>
<path opacity="0.1" d="M254.36 329.21L261.88 333.56V333.13L254.36 328.78V329.21Z" fill="black"/>
<path opacity="0.1" d="M254.36 343.59L261.88 347.93V347.5L254.36 343.16V343.59Z" fill="black"/>
<path opacity="0.1" d="M254.36 334.98L261.88 339.32V338.89L254.36 334.55V334.98Z" fill="black"/>
<path opacity="0.1" d="M254.36 336.35L261.88 340.69V340.26L254.36 335.92V336.35Z" fill="black"/>
<path opacity="0.1" d="M254.36 337.72L261.88 342.06V341.63L254.36 337.29V337.72Z" fill="black"/>
<path d="M418.61 272.71L341.43 228.15V197.66L418.61 242.22V272.71Z" fill="#E6E6E6"/>
<path d="M430.8 265.67V235.18L418.61 242.22V272.71L430.8 265.67Z" fill="#E0E0E0"/>
<path d="M430.8 235.18L353.62 190.62L341.43 197.66L418.61 242.22L430.8 235.18Z" fill="#F5F5F5"/>
<path d="M351.72 211.73L359.84 216.42V221.11L351.72 216.42V211.73Z" fill="#284BF9"/>
<path opacity="0.1" d="M351.72 211.73L352.19 212V216.15L351.72 216.42V211.73Z" fill="black"/>
<path opacity="0.2" d="M359.84 221.11L351.72 216.42L352.19 216.15L359.84 220.57V221.11Z" fill="black"/>
<path d="M363.9 218.77L372.03 223.46V228.15L363.9 223.46V218.77Z" fill="#284BF9"/>
<path opacity="0.1" d="M363.9 218.77L364.37 219.04V223.19L363.9 223.46V218.77Z" fill="black"/>
<path opacity="0.2" d="M372.03 228.15L363.9 223.46L364.37 223.19L372.03 227.61V228.15Z" fill="black"/>
<path d="M376.09 225.8L384.22 230.49V235.18L376.09 230.49V225.8Z" fill="#284BF9"/>
<path opacity="0.1" d="M376.09 225.8L376.56 226.07V230.22L376.09 230.49V225.8Z" fill="black"/>
<path opacity="0.2" d="M384.22 235.18L376.09 230.49L376.56 230.22L384.22 234.64V235.18Z" fill="black"/>
<path d="M388.28 232.84L396.4 237.53V242.22L388.28 237.53V232.84Z" fill="#284BF9"/>
<path opacity="0.1" d="M388.28 232.84L388.75 233.11V237.26L388.28 237.53V232.84Z" fill="black"/>
<path opacity="0.2" d="M396.4 242.22L388.28 237.53L388.75 237.26L396.4 241.68V242.22Z" fill="black"/>
<path d="M400.46 239.87L408.59 244.56V249.25L400.46 244.56V239.87Z" fill="#284BF9"/>
<path opacity="0.1" d="M400.46 239.87L400.93 240.14V244.29L400.46 244.56V239.87Z" fill="black"/>
<path opacity="0.2" d="M408.59 249.25L400.46 244.56L400.93 244.29L408.59 248.71V249.25Z" fill="black"/>
<path d="M398.3 279.74V265.67L337.37 230.49V244.56L398.3 279.74Z" fill="#F0F0F0"/>
<path d="M398.3 279.74L410.49 272.71V258.63L398.3 265.67V279.74Z" fill="#E0E0E0"/>
<path d="M410.49 258.63L349.56 223.46L337.37 230.49L398.3 265.67L410.49 258.63Z" fill="#FAFAFA"/>
<path d="M345.49 239.87L353.61 244.56V249.25L345.49 244.56V239.87Z" fill="#284BF9"/>
<path opacity="0.1" d="M345.49 239.87L345.96 240.14V244.29L345.49 244.56V239.87Z" fill="black"/>
<path opacity="0.2" d="M353.61 249.25L345.49 244.56L345.96 244.29L353.61 248.71V249.25Z" fill="black"/>
<path d="M357.68 246.91L365.8 251.6V256.29L357.68 251.6V246.91Z" fill="#284BF9"/>
<path opacity="0.1" d="M357.68 246.91L358.14 247.18V251.33L357.68 251.6V246.91Z" fill="black"/>
<path opacity="0.2" d="M365.8 256.29L357.68 251.6L358.14 251.33L365.8 255.75V256.29Z" fill="black"/>
<path d="M369.86 253.94L377.99 258.63V263.32L369.86 258.63V253.94Z" fill="#284BF9"/>
<path opacity="0.1" d="M369.86 253.94L370.33 254.21V258.36L369.86 258.63V253.94Z" fill="black"/>
<path opacity="0.2" d="M377.99 263.32L369.86 258.63L370.33 258.36L377.99 262.79V263.32Z" fill="black"/>
<path d="M382.05 260.98L390.18 265.67V270.36L382.05 265.67V260.98Z" fill="#284BF9"/>
<path opacity="0.1" d="M382.05 260.98L382.52 261.25V265.4L382.05 265.67V260.98Z" fill="black"/>
<path opacity="0.2" d="M390.18 270.36L382.05 265.67L382.52 265.4L390.18 269.82V270.36Z" fill="black"/>
<path d="M418.61 242.22V223.46L430.8 216.42V235.18L418.61 242.22Z" fill="#E0E0E0"/>
<path d="M418.61 223.46L402.36 214.07V232.84L418.61 242.22V223.46Z" fill="#E6E6E6"/>
<path d="M430.8 216.42L414.55 207.04L402.36 214.07L418.61 223.46L430.8 216.42Z" fill="#F5F5F5"/>
<path d="M406.42 221.11L414.55 225.8V230.49L406.42 225.8V221.11Z" fill="#284BF9"/>
<path opacity="0.1" d="M406.42 221.11L406.89 221.38V225.53L406.42 225.8V221.11Z" fill="black"/>
<path opacity="0.2" d="M414.55 230.49L406.42 225.8L406.89 225.53L414.55 229.95V230.49Z" fill="black"/>
<path d="M426.73 215.19V203.89H421V215.19C421.023 215.442 421.113 215.683 421.261 215.889C421.408 216.095 421.608 216.257 421.84 216.36C422.469 216.68 423.164 216.847 423.87 216.847C424.576 216.847 425.271 216.68 425.9 216.36C426.13 216.256 426.328 216.093 426.474 215.887C426.619 215.682 426.708 215.441 426.73 215.19V215.19Z" fill="#37474F"/>
<path d="M421.83 202.71C422.46 202.394 423.155 202.229 423.86 202.229C424.565 202.229 425.26 202.394 425.89 202.71C426.136 202.793 426.35 202.951 426.501 203.162C426.652 203.372 426.734 203.625 426.734 203.885C426.734 204.144 426.652 204.397 426.501 204.608C426.35 204.819 426.136 204.977 425.89 205.06C425.261 205.38 424.566 205.547 423.86 205.547C423.154 205.547 422.459 205.38 421.83 205.06C421.584 204.977 421.37 204.819 421.219 204.608C421.067 204.397 420.986 204.144 420.986 203.885C420.986 203.625 421.067 203.372 421.219 203.162C421.37 202.951 421.584 202.793 421.83 202.71V202.71Z" fill="#455A64"/>
<path d="M258.46 208.62L147.2 272.87V260.87C142.55 263.55 128.01 269.39 108.56 272.14C100.474 273.3 92.3062 273.788 84.1398 273.6C77.2467 273.449 70.3758 272.761 63.5898 271.54L72.3798 277.63C85.8166 286.965 101.65 292.247 118 292.85C141 293.65 155.84 288.85 165.38 283.38L268.08 224.08C269.135 223.47 270.052 222.647 270.77 221.661C271.488 220.676 271.992 219.552 272.25 218.36L276.64 198.11L258.46 208.62Z" fill="#F0F0F0"/>
<path d="M260.5 217.1C261.108 214.625 262.598 212.456 264.69 211C266.51 209.95 267.57 211 267.07 213.29C266.462 215.768 264.968 217.938 262.87 219.39C261.06 220.44 260 219.41 260.5 217.1Z" fill="#F8A77B"/>
<path d="M261.6 218.84C261.5 218.84 261.49 218.84 261.47 218.84C261.285 218.357 261.285 217.823 261.47 217.34C262.018 215.126 263.346 213.184 265.21 211.87C265.444 211.708 265.717 211.611 266 211.59C266.09 211.59 266.11 211.59 266.12 211.59C266.13 211.59 266.36 212.18 266.12 213.09C265.565 215.301 264.239 217.241 262.38 218.56C262.147 218.715 261.879 218.811 261.6 218.84Z" fill="#455A64"/>
<path d="M250.09 223C250.698 220.522 252.192 218.352 254.29 216.9C256.1 215.85 257.16 216.9 256.66 219.19C256.052 221.665 254.562 223.833 252.47 225.29C250.65 226.31 249.59 225.28 250.09 223Z" fill="#F8A77B"/>
<path d="M251.19 224.71C251.1 224.71 251.08 224.71 251.07 224.71C251.06 224.71 250.83 224.12 251.07 223.21C251.621 220.998 252.948 219.057 254.81 217.74C255.044 217.578 255.316 217.481 255.6 217.46C255.7 217.46 255.71 217.46 255.73 217.46C255.915 217.943 255.915 218.477 255.73 218.96C255.179 221.17 253.856 223.11 252 224.43C251.757 224.587 251.479 224.684 251.19 224.71V224.71Z" fill="#455A64"/>
<path d="M239.68 228.84C240.292 226.364 241.785 224.195 243.88 222.74C245.69 221.69 246.76 222.74 246.25 225.03C245.641 227.506 244.152 229.674 242.06 231.13C240.24 232.18 239.18 231.15 239.68 228.84Z" fill="#F8A77B"/>
<path d="M240.78 230.58C240.69 230.58 240.67 230.58 240.66 230.58C240.65 230.58 240.43 229.99 240.66 229.08C241.215 226.87 242.542 224.93 244.4 223.61C244.634 223.448 244.906 223.352 245.19 223.33C245.29 223.33 245.31 223.33 245.32 223.33C245.33 223.33 245.55 223.92 245.32 224.83C244.762 227.04 243.436 228.978 241.58 230.3C241.341 230.459 241.066 230.555 240.78 230.58Z" fill="#455A64"/>
<path d="M147.2 260.85C142.55 263.53 128.01 269.37 108.56 272.12C100.474 273.28 92.3063 273.768 84.14 273.58C77.2468 273.429 70.3759 272.74 63.59 271.52C52 248.73 74.34 227.8 82.15 223.3L110.77 239.82L131 251.5L147.2 260.85Z" fill="#FAFAFA"/>
<path d="M131 251.5L110.78 239.82L82.15 223.3C74.34 227.8 52.04 248.73 63.59 271.52C70.376 272.74 77.2469 273.429 84.14 273.58C92.3064 273.768 100.474 273.28 108.56 272.12C128.01 269.37 142.56 263.53 147.2 260.85L131 251.5ZM108.35 270.5C101.47 271.482 94.5298 271.983 87.58 272C86.45 272 85.32 272 84.18 272C77.6388 271.855 71.1174 271.223 64.67 270.11C59.29 258.77 62.93 248.26 66.99 241.39C70.837 234.966 76.0126 229.44 82.17 225.18L110 241.21L143.87 260.77C138.09 263.44 125.53 268.1 108.34 270.54L108.35 270.5Z" fill="#FAFAFA"/>
<path d="M131 251.5L110.78 239.82L82.15 223.3C74.34 227.8 52.04 248.73 63.59 271.52C70.376 272.74 77.2469 273.429 84.14 273.58C92.3064 273.768 100.474 273.28 108.56 272.12C128.01 269.37 142.56 263.53 147.2 260.85L131 251.5ZM108.35 270.5C101.47 271.482 94.5298 271.983 87.58 272C86.45 272 85.32 272 84.18 272C77.6388 271.855 71.1174 271.223 64.67 270.11C59.29 258.77 62.93 248.26 66.99 241.39C70.837 234.966 76.0126 229.44 82.17 225.18L110 241.21L143.87 260.77C138.09 263.44 125.53 268.1 108.34 270.54L108.35 270.5Z" fill="#FAFAFA"/>
<path d="M139.71 262.53C129.594 266.39 119.069 269.074 108.34 270.53C101.463 271.506 94.5259 271.998 87.5799 272C86.4499 272 85.3199 272 84.1799 272C77.642 271.856 71.1239 271.224 64.6799 270.11C63.2086 267.061 62.3168 263.765 62.0499 260.39C61.4699 252.9 64.1199 246.24 66.9899 241.39C70.8341 234.964 76.0103 229.437 82.1699 225.18V229.33L139.71 262.53Z" fill="#EBEBEB"/>
<path d="M139.71 262.53C129.594 266.39 119.069 269.074 108.34 270.53C101.463 271.506 94.526 271.998 87.5801 272C86.4501 272 85.32 272 84.18 272C77.6421 271.855 71.124 271.224 64.68 270.11C63.2087 267.06 62.3169 263.765 62.05 260.39C62.5395 255.116 64.233 250.025 67 245.51C70.8469 239.089 76.0227 233.565 82.18 229.31L109.98 245.31L139.71 262.53Z" fill="#9A4A4D"/>
<path d="M82.17 232.42C76.0162 236.677 70.8439 242.2 67 248.62C64.5347 252.682 62.9124 257.198 62.23 261.9C62.6155 264.742 63.4456 267.506 64.69 270.09C71.1301 271.21 77.6449 271.849 84.18 272C85.32 272 86.45 272 87.58 272C94.5266 271.988 101.464 271.487 108.34 270.5C117.909 269.18 127.322 266.909 136.44 263.72L110 248.46L82.17 232.42Z" fill="#B16668"/>
<path d="M76.4399 244.87V244.24C76.4425 244.04 76.495 243.843 76.5928 243.669C76.6906 243.494 76.8306 243.347 76.9999 243.24L81.0899 240.87C81.2629 240.786 81.4527 240.742 81.6449 240.742C81.8372 240.742 82.027 240.786 82.1999 240.87L96.7099 249.24C96.8744 249.351 97.0101 249.5 97.1057 249.673C97.2014 249.847 97.2542 250.042 97.2599 250.24V250.87C97.2567 251.069 97.2049 251.264 97.1091 251.438C97.0132 251.612 96.8762 251.761 96.7099 251.87L92.6099 254.24C92.437 254.324 92.2472 254.368 92.0549 254.368C91.8627 254.368 91.6729 254.324 91.4999 254.24L76.9999 245.83C76.8361 245.727 76.6996 245.586 76.6021 245.419C76.5046 245.251 76.449 245.063 76.4399 244.87V244.87Z" fill="#EBEBEB"/>
<path d="M92.0499 252.42V254.34C91.8578 254.34 91.6687 254.292 91.4999 254.2L76.9999 245.83C76.8318 245.722 76.6928 245.574 76.5952 245.4C76.4976 245.225 76.4442 245.03 76.4399 244.83V244.2C76.4503 244.026 76.4966 243.857 76.5757 243.702C76.6549 243.547 76.7653 243.41 76.8999 243.3C76.6999 243.48 76.7299 243.72 76.9999 243.87L91.4999 252.25C91.6653 252.353 91.8549 252.412 92.0499 252.42V252.42Z" fill="#E0E0E0"/>
<path d="M77.0001 243.92L91.5001 252.29C91.6717 252.379 91.862 252.425 92.0551 252.425C92.2482 252.425 92.4385 252.379 92.6101 252.29L96.7101 249.93C96.775 249.904 96.8307 249.859 96.87 249.801C96.9092 249.744 96.9302 249.675 96.9302 249.605C96.9302 249.535 96.9092 249.467 96.87 249.409C96.8307 249.351 96.775 249.306 96.7101 249.28L82.2001 240.91C82.0285 240.822 81.8382 240.775 81.6451 240.775C81.452 240.775 81.2617 240.822 81.0901 240.91L77.0001 243.28C76.6901 243.45 76.6901 243.74 77.0001 243.92Z" fill="#FAFAFA"/>
<path d="M97.26 256.9V256.27C97.2625 256.07 97.3151 255.874 97.4129 255.699C97.5107 255.525 97.6507 255.377 97.82 255.27L101.91 252.9C102.082 252.812 102.272 252.766 102.465 252.766C102.658 252.766 102.848 252.812 103.02 252.9L117.52 261.27C117.688 261.379 117.826 261.527 117.924 261.701C118.021 261.875 118.075 262.071 118.08 262.27V262.9C118.075 263.1 118.021 263.295 117.924 263.47C117.826 263.644 117.688 263.792 117.52 263.9L113.43 266.27C113.257 266.354 113.067 266.398 112.875 266.398C112.683 266.398 112.493 266.354 112.32 266.27L97.82 257.89C97.6521 257.785 97.513 257.639 97.4153 257.466C97.3175 257.293 97.2642 257.099 97.26 256.9V256.9Z" fill="#EBEBEB"/>
<path d="M112.87 264.45V266.37C112.678 266.372 112.488 266.324 112.32 266.23L97.82 257.86C97.6519 257.752 97.5129 257.604 97.4153 257.43C97.3176 257.256 97.2643 257.06 97.26 256.86V256.22C97.2722 256.049 97.3183 255.883 97.3955 255.73C97.4728 255.577 97.5797 255.441 97.71 255.33C97.52 255.51 97.55 255.75 97.82 255.9L112.32 264.28C112.484 264.386 112.675 264.445 112.87 264.45Z" fill="#E0E0E0"/>
<path d="M97.82 256L112.32 264.37C112.492 264.459 112.682 264.505 112.875 264.505C113.068 264.505 113.258 264.459 113.43 264.37L117.52 262C117.83 261.83 117.83 261.54 117.52 261.36L103 252.94C102.828 252.852 102.638 252.806 102.445 252.806C102.252 252.806 102.062 252.852 101.89 252.94L97.8 255.31C97.51 255.48 97.51 255.77 97.82 256Z" fill="#FAFAFA"/>
<path d="M92.5601 229.31L147.2 260.86V272.87L276.68 198.11L211.63 160.55L92.5601 229.31Z" fill="#FAFAFA"/>
<path d="M143.84 260.77C142.72 261.29 141.34 261.89 139.71 262.53L82.1699 229.31V225.16L143.84 260.77Z" fill="#E0E0E0"/>
<path d="M147.2 269.87L271.47 198.11L211.63 163.56L95.1601 230.81L92.5601 229.31L211.63 160.55L276.68 198.11L147.2 272.87V269.87Z" fill="#FAFAFA"/>
<path d="M211.63 163.56V169.57L266.27 201.11L271.47 198.11L211.63 163.56Z" fill="#E0E0E0"/>
<path d="M95.1599 230.81L100.36 233.81L211.63 169.57V163.56L95.1599 230.81Z" fill="#E6E6E6"/>
<path d="M100.36 233.81L211.63 169.57L266.27 201.11L147.2 269.87V260.86L100.36 233.81Z" fill="#9A4A4D"/>
<path d="M103.82 235.81L147.2 260.86V269.87L262.81 203.11L211.63 173.56L103.82 235.81Z" fill="#B16668"/>
<path d="M199 187.55L238.95 210.64C239.207 210.771 239.492 210.839 239.78 210.839C240.069 210.839 240.353 210.771 240.61 210.64L249.29 205.57C249.547 205.439 249.832 205.371 250.12 205.371C250.409 205.371 250.693 205.439 250.95 205.57L251.95 206.14C252.206 206.273 252.491 206.342 252.78 206.342C253.069 206.342 253.354 206.273 253.61 206.14L262.37 201.14C262.486 201.116 262.589 201.054 262.664 200.963C262.739 200.872 262.78 200.757 262.78 200.64C262.78 200.522 262.739 200.408 262.664 200.317C262.589 200.225 262.486 200.163 262.37 200.14L217.15 174C216.894 173.866 216.609 173.797 216.32 173.797C216.031 173.797 215.746 173.866 215.49 174L204.15 180.55C204.035 180.573 203.931 180.635 203.856 180.727C203.781 180.818 203.741 180.932 203.741 181.05C203.741 181.167 203.781 181.282 203.856 181.373C203.931 181.464 204.035 181.526 204.15 181.55L205.09 182.1C205.55 182.36 205.55 182.79 205.09 183.1L199 186.59C198.51 186.86 198.51 187.29 199 187.55Z" fill="#9A4A4D"/>
<path d="M115 234.4L159 259.81C159.26 259.938 159.545 260.004 159.835 260.004C160.124 260.004 160.41 259.938 160.67 259.81L189 243.43C189.46 243.17 189.46 242.74 189 242.43L145 217.02C144.74 216.892 144.454 216.825 144.165 216.825C143.875 216.825 143.59 216.892 143.33 217.02L115 233.44C114.49 233.7 114.49 234.13 115 234.4Z" fill="#9A4A4D"/>
<path d="M148.77 214.87L192.77 240.28C193.028 240.408 193.312 240.475 193.6 240.475C193.888 240.475 194.172 240.408 194.43 240.28L222.78 223.91C223.24 223.64 223.24 223.21 222.78 222.91L178.78 197.5C178.523 197.366 178.239 197.297 177.95 197.297C177.661 197.297 177.376 197.366 177.12 197.5L148.76 213.87C148.31 214.17 148.31 214.6 148.77 214.87Z" fill="#9A4A4D"/>
<path d="M161.85 221.32L150 214.45C149.835 214.339 149.7 214.19 149.604 214.017C149.509 213.843 149.456 213.648 149.45 213.45V202.75C149.456 202.552 149.509 202.358 149.604 202.184C149.7 202.01 149.835 201.861 150 201.75L177.52 185.87C177.69 185.782 177.878 185.735 178.07 185.735C178.261 185.735 178.45 185.782 178.62 185.87L190.52 192.74C190.687 192.849 190.826 192.997 190.924 193.171C191.021 193.345 191.075 193.54 191.08 193.74V204.48C191.074 204.678 191.021 204.873 190.926 205.047C190.83 205.22 190.694 205.369 190.53 205.48L163 221.32C162.823 221.415 162.626 221.465 162.425 221.465C162.224 221.465 162.027 221.415 161.85 221.32V221.32Z" fill="#37474F"/>
<path d="M150.23 202.59L161.58 209.14C161.836 209.273 162.121 209.343 162.41 209.343C162.699 209.343 162.984 209.273 163.24 209.14L190.24 193.58C190.7 193.32 190.7 192.89 190.24 192.58L178.89 186.03C178.634 185.897 178.349 185.827 178.06 185.827C177.771 185.827 177.486 185.897 177.23 186.03L150.23 201.59C149.77 201.9 149.77 202.33 150.23 202.59Z" fill="#455A64"/>
<path d="M162.41 209.34V221.46C162.214 221.461 162.022 221.413 161.85 221.32L150 214.45C149.833 214.342 149.696 214.193 149.6 214.019C149.504 213.845 149.452 213.649 149.45 213.45V202.76C149.45 202.561 149.501 202.365 149.597 202.19C149.693 202.015 149.832 201.867 150 201.76L150.23 201.62C149.82 201.88 149.84 202.29 150.23 202.55L161.58 209.1C161.829 209.255 162.117 209.338 162.41 209.34V209.34Z" fill="#F8A77B"/>
<path d="M163.19 210.06L163.58 209.83V220.12L163.19 220.35V210.06Z" fill="#F8A77B"/>
<path d="M164.65 209.22L165.05 208.99L165.04 219.27L164.65 219.5V209.22Z" fill="#F8A77B"/>
<path d="M166.11 208.37L166.51 208.14V218.43L166.11 218.66V208.37Z" fill="#F8A77B"/>
<path d="M167.57 207.53L167.97 207.29V217.58L167.57 217.81V207.53Z" fill="#F8A77B"/>
<path d="M169.04 206.68L169.43 206.45V216.74L169.04 216.97V206.68Z" fill="#F8A77B"/>
<path d="M170.5 205.84L170.9 205.6V215.89L170.5 216.12V205.84Z" fill="#F8A77B"/>
<path d="M171.96 204.99L172.36 204.76V215.05L171.96 215.28V204.99Z" fill="#F8A77B"/>
<path d="M173.42 204.15L173.82 203.91V214.2L173.42 214.43V204.15Z" fill="#F8A77B"/>
<path d="M174.89 203.3L175.28 203.07V213.36L174.89 213.59V203.3Z" fill="#F8A77B"/>
<path d="M176.35 202.45L176.75 202.22V212.51L176.35 212.74V202.45Z" fill="#F8A77B"/>
<path d="M177.81 201.61L178.21 201.38V211.67L177.81 211.9V201.61Z" fill="#F8A77B"/>
<path d="M179.27 200.76L179.67 200.53V210.82L179.27 211.05V200.76Z" fill="#F8A77B"/>
<path d="M180.74 199.92L181.13 199.69V209.98L180.74 210.21V199.92Z" fill="#F8A77B"/>
<path d="M182.2 199.07L182.6 198.84V209.13L182.2 209.36V199.07Z" fill="#F8A77B"/>
<path d="M183.66 198.23L184.06 198V208.29L183.66 208.52V198.23Z" fill="#F8A77B"/>
<path d="M185.12 197.38L185.52 197.15V207.44L185.12 207.67V197.38Z" fill="#F8A77B"/>
<path d="M186.59 196.54L186.98 196.31V206.6L186.59 206.83V196.54Z" fill="#F8A77B"/>
<path d="M188.05 195.69L188.45 195.46V205.75L188.05 205.98V195.69Z" fill="#F8A77B"/>
<path d="M189.51 194.85L189.91 194.62V204.91L189.51 205.14V194.85Z" fill="#F8A77B"/>
<path opacity="0.3" d="M155.79 206.94L155.39 206.71V217L155.79 217.23V206.94Z" fill="black"/>
<path opacity="0.3" d="M156.6 208.08L161.42 210.86V210.59L156.6 207.81V208.08Z" fill="black"/>
<path opacity="0.3" d="M156.6 217.29L161.42 220.07V219.79L156.6 217.01V217.29Z" fill="black"/>
<path opacity="0.3" d="M156.6 211.77L161.42 214.56V214.28L156.6 211.5V211.77Z" fill="black"/>
<path opacity="0.3" d="M156.6 212.65L161.42 215.43V215.16L156.6 212.38V212.65Z" fill="black"/>
<path opacity="0.3" d="M156.6 213.53L161.42 216.31V216.04L156.6 213.26V213.53Z" fill="black"/>
<path opacity="0.3" d="M149.95 204.26L154.77 207.04V206.76L149.95 203.98V204.26Z" fill="black"/>
<path opacity="0.3" d="M149.95 213.46L154.77 216.24V215.97L149.95 213.19V213.46Z" fill="black"/>
<path opacity="0.3" d="M149.95 207.95L154.77 210.73V210.45L149.95 207.67V207.95Z" fill="black"/>
<path opacity="0.3" d="M149.95 208.83L154.77 211.61V211.33L149.95 208.55V208.83Z" fill="black"/>
<path opacity="0.3" d="M149.95 209.71L154.77 212.49V212.21L149.95 209.43V209.71Z" fill="black"/>
<path d="M177.44 230.36L165.54 223.49C165.374 223.381 165.237 223.233 165.141 223.058C165.045 222.884 164.993 222.689 164.99 222.49V211.8C164.993 211.6 165.045 211.404 165.143 211.229C165.241 211.054 165.381 210.907 165.55 210.8L193.06 195C193.232 194.911 193.422 194.865 193.615 194.865C193.808 194.865 193.998 194.911 194.17 195L206.07 201.87C206.234 201.981 206.37 202.13 206.466 202.304C206.561 202.477 206.614 202.672 206.62 202.87V213.61C206.614 213.808 206.561 214.003 206.466 214.176C206.37 214.35 206.234 214.499 206.07 214.61L178.55 230.49C178.368 230.559 178.172 230.583 177.979 230.561C177.786 230.538 177.601 230.469 177.44 230.36V230.36Z" fill="#284BF9"/>
<path opacity="0.3" d="M165.82 211.64L177.17 218.19C177.428 218.319 177.712 218.386 178 218.386C178.288 218.386 178.572 218.319 178.83 218.19L205.83 202.62C206.29 202.36 206.29 201.93 205.83 201.62L194.48 195.07C194.222 194.942 193.938 194.875 193.65 194.875C193.362 194.875 193.078 194.942 192.82 195.07L165.82 210.64C165.36 210.94 165.36 211.37 165.82 211.64Z" fill="white"/>
<path opacity="0.1" d="M178 218.38V230.5C177.808 230.502 177.618 230.454 177.45 230.36L165.54 223.5C165.376 223.389 165.24 223.24 165.144 223.067C165.049 222.893 164.996 222.699 164.99 222.5V211.8C164.993 211.601 165.045 211.406 165.141 211.232C165.237 211.058 165.374 210.909 165.54 210.8L165.77 210.66C165.36 210.93 165.38 211.34 165.77 211.59L177.12 218.15C177.387 218.304 177.691 218.384 178 218.38Z" fill="black"/>
<path opacity="0.1" d="M179 219L179.39 218.77V229.06L179 229.29V219Z" fill="black"/>
<path opacity="0.1" d="M180.46 218.16L180.86 217.93V228.22L180.46 228.45V218.16Z" fill="black"/>
<path opacity="0.1" d="M181.92 217.31L182.32 217.08V227.37L181.92 227.6V217.31Z" fill="black"/>
<path opacity="0.1" d="M183.38 216.47L183.78 216.24V226.53L183.38 226.76V216.47Z" fill="black"/>
<path opacity="0.1" d="M184.85 215.62L185.24 215.39V225.68L184.85 225.91V215.62Z" fill="black"/>
<path opacity="0.1" d="M186.31 214.78L186.71 214.55V224.84L186.31 225.07V214.78Z" fill="black"/>
<path opacity="0.1" d="M187.77 213.93L188.17 213.7V223.99L187.77 224.22V213.93Z" fill="black"/>
<path opacity="0.1" d="M189.24 213.09L189.63 212.86V223.15L189.24 223.38V213.09Z" fill="black"/>
<path opacity="0.1" d="M190.7 212.24L191.09 212.01V222.3L190.7 222.53V212.24Z" fill="black"/>
<path opacity="0.1" d="M192.16 211.4L192.56 211.17V221.46L192.16 221.69V211.4Z" fill="black"/>
<path opacity="0.1" d="M193.62 210.55L194.02 210.32V220.61L193.62 220.84V210.55Z" fill="black"/>
<path opacity="0.1" d="M195.09 209.71L195.48 209.48V219.77L195.09 220V209.71Z" fill="black"/>
<path opacity="0.1" d="M196.55 208.86L196.94 208.63V218.92L196.55 219.15V208.86Z" fill="black"/>
<path opacity="0.1" d="M198.01 208.02L198.41 207.79V218.08L198.01 218.31V208.02Z" fill="black"/>
<path opacity="0.1" d="M199.47 207.17L199.87 206.94V217.23L199.47 217.46V207.17Z" fill="black"/>
<path opacity="0.1" d="M200.94 206.33L201.33 206.1V216.39L200.94 216.62V206.33Z" fill="black"/>
<path opacity="0.1" d="M202.4 205.48L202.79 205.25V215.54L202.4 215.77V205.48Z" fill="black"/>
<path opacity="0.1" d="M203.86 204.64L204.26 204.41V214.69L203.86 214.93V204.64Z" fill="black"/>
<path opacity="0.1" d="M205.32 203.79L205.72 203.56V213.85L205.32 214.08V203.79Z" fill="black"/>
<path opacity="0.1" d="M171.6 215.88L171.2 215.65V225.94L171.6 226.17V215.88Z" fill="black"/>
<path opacity="0.1" d="M172.41 217.03L177.23 219.81V219.53L172.41 216.75V217.03Z" fill="black"/>
<path opacity="0.1" d="M172.41 226.23L177.23 229.01V228.74L172.41 225.96V226.23Z" fill="black"/>
<path opacity="0.1" d="M172.41 220.72L177.23 223.5V223.22L172.41 220.44V220.72Z" fill="black"/>
<path opacity="0.1" d="M172.41 221.59L177.23 224.38V224.1L172.41 221.32V221.59Z" fill="black"/>
<path opacity="0.1" d="M172.41 222.47L177.23 225.25V224.98L172.41 222.2V222.47Z" fill="black"/>
<path opacity="0.1" d="M165.76 213.2L170.58 215.98V215.7L165.76 212.92V213.2Z" fill="black"/>
<path opacity="0.1" d="M165.76 222.41L170.58 225.19V224.91L165.76 222.13V222.41Z" fill="black"/>
<path opacity="0.1" d="M165.76 216.89L170.58 219.67V219.4L165.76 216.61V216.89Z" fill="black"/>
<path opacity="0.1" d="M165.76 217.77L170.58 220.55V220.27L165.76 217.49V217.77Z" fill="black"/>
<path opacity="0.1" d="M165.76 218.65L170.58 221.43V221.15L165.76 218.37V218.65Z" fill="black"/>
<path d="M193.06 239.36L181.16 232.49C180.992 232.381 180.854 232.233 180.756 232.059C180.659 231.885 180.605 231.69 180.6 231.49V220.79C180.605 220.59 180.659 220.395 180.756 220.221C180.854 220.047 180.992 219.899 181.16 219.79L208.67 204C208.841 203.911 209.032 203.865 209.225 203.865C209.418 203.865 209.608 203.911 209.78 204L221.68 210.87C221.844 210.981 221.98 211.13 222.076 211.304C222.171 211.477 222.224 211.672 222.23 211.87V222.61C222.224 222.808 222.171 223.003 222.076 223.176C221.98 223.35 221.844 223.499 221.68 223.61L194.17 239.49C193.988 239.559 193.792 239.583 193.599 239.561C193.406 239.538 193.221 239.469 193.06 239.36V239.36Z" fill="#37474F"/>
<path d="M181.43 220.63L192.78 227.18C193.036 227.313 193.321 227.383 193.61 227.383C193.899 227.383 194.184 227.313 194.44 227.18L221.44 211.62C221.9 211.35 221.9 210.92 221.44 210.62L210.1 204.07C209.842 203.937 209.555 203.867 209.265 203.867C208.974 203.867 208.688 203.937 208.43 204.07L181.43 219.63C181 219.94 181 220.37 181.43 220.63Z" fill="#455A64"/>
<path d="M193.61 227.38V239.49C193.418 239.496 193.229 239.451 193.06 239.36L181.16 232.49C180.992 232.381 180.854 232.234 180.756 232.059C180.659 231.885 180.605 231.69 180.6 231.49V220.8C180.602 220.6 180.655 220.404 180.753 220.229C180.851 220.054 180.991 219.907 181.16 219.8L181.39 219.66C180.98 219.92 180.99 220.33 181.39 220.59L192.74 227.14C193.001 227.301 193.303 227.384 193.61 227.38V227.38Z" fill="#F8A77B"/>
<path d="M194.39 228.1L194.79 227.87V238.16L194.39 238.39V228.1Z" fill="#F8A77B"/>
<path d="M195.85 227.25L196.25 227.02V237.31L195.85 237.54V227.25Z" fill="#F8A77B"/>
<path d="M197.31 226.41L197.71 226.18V236.47L197.31 236.7V226.41Z" fill="#F8A77B"/>
<path d="M198.78 225.56L199.17 225.33V235.62L198.78 235.85V225.56Z" fill="#F8A77B"/>
<path d="M200.24 224.72L200.64 224.49V234.78L200.24 235.01V224.72Z" fill="#F8A77B"/>
<path d="M201.7 223.87L202.1 223.64V233.93L201.7 234.16V223.87Z" fill="#F8A77B"/>
<path d="M203.16 223.03L203.56 222.8V233.09L203.16 233.32V223.03Z" fill="#F8A77B"/>
<path d="M204.63 222.18L205.03 221.95L205.02 232.24L204.63 232.47V222.18Z" fill="#F8A77B"/>
<path d="M206.09 221.34L206.49 221.11V231.4L206.09 231.63V221.34Z" fill="#F8A77B"/>
<path d="M207.55 220.49L207.95 220.26V230.55L207.55 230.78V220.49Z" fill="#F8A77B"/>
<path d="M209.01 219.65L209.41 219.42V229.71L209.01 229.94V219.65Z" fill="#F8A77B"/>
<path d="M210.48 218.8L210.88 218.57V228.86L210.48 229.09V218.8Z" fill="#F8A77B"/>
<path d="M211.94 217.96L212.34 217.73V228.02L211.94 228.25V217.96Z" fill="#F8A77B"/>
<path d="M213.4 217.11L213.8 216.88V227.17L213.4 227.4V217.11Z" fill="#F8A77B"/>
<path d="M214.87 216.27L215.26 216.04V226.33L214.87 226.56V216.27Z" fill="#F8A77B"/>
<path d="M216.33 215.42L216.72 215.19V225.48L216.33 225.71V215.42Z" fill="#F8A77B"/>
<path d="M217.79 214.58L218.19 214.35V224.64L217.79 224.87V214.58Z" fill="#F8A77B"/>
<path d="M219.25 213.73L219.65 213.5V223.79L219.25 224.02V213.73Z" fill="#F8A77B"/>
<path d="M220.72 212.89L221.11 212.66V222.95L220.72 223.18V212.89Z" fill="#F8A77B"/>
<path opacity="0.3" d="M186.99 224.98L186.59 224.75V235.04L186.99 235.27V224.98Z" fill="black"/>
<path opacity="0.3" d="M187.8 226.12L192.62 228.9V228.63L187.8 225.85V226.12Z" fill="black"/>
<path opacity="0.3" d="M187.8 235.33L192.62 238.11V237.83L187.8 235.05V235.33Z" fill="black"/>
<path opacity="0.3" d="M187.8 229.81L192.62 232.59V232.32L187.8 229.54V229.81Z" fill="black"/>
<path opacity="0.3" d="M187.8 230.69L192.62 233.47V233.2L187.8 230.42V230.69Z" fill="black"/>
<path opacity="0.3" d="M187.8 231.57L192.62 234.35V234.08L187.8 231.29V231.57Z" fill="black"/>
<path opacity="0.3" d="M181.16 222.3L185.97 225.08V224.8L181.16 222.02V222.3Z" fill="black"/>
<path opacity="0.3" d="M181.16 231.5L185.97 234.28V234.01L181.16 231.22V231.5Z" fill="black"/>
<path opacity="0.3" d="M181.16 225.99L185.97 228.77V228.49L181.16 225.71V225.99Z" fill="black"/>
<path opacity="0.3" d="M181.16 226.87L185.97 229.65V229.37L181.16 226.59V226.87Z" fill="black"/>
<path opacity="0.3" d="M181.16 227.74L185.97 230.53V230.25L181.16 227.47V227.74Z" fill="black"/>
<path d="M128 240.85L116.11 234C115.943 233.892 115.804 233.744 115.706 233.57C115.609 233.395 115.555 233.2 115.55 233V222.28C115.555 222.081 115.609 221.885 115.706 221.711C115.804 221.537 115.943 221.389 116.11 221.28L143.62 205.4C143.792 205.312 143.982 205.266 144.175 205.266C144.368 205.266 144.558 205.312 144.73 205.4L156.63 212.27C156.796 212.38 156.933 212.528 157.029 212.702C157.125 212.876 157.177 213.072 157.18 213.27V224C157.175 224.2 157.121 224.395 157.024 224.57C156.926 224.744 156.788 224.892 156.62 225L129.11 240.88C128.936 240.964 128.745 241.005 128.551 241C128.358 240.995 128.169 240.944 128 240.85V240.85Z" fill="#284BF9"/>
<path opacity="0.3" d="M116.39 222.12L127.73 228.67C127.988 228.804 128.274 228.873 128.565 228.873C128.855 228.873 129.142 228.804 129.4 228.67L156.35 213.11C156.81 212.84 156.81 212.41 156.35 212.11L145 205.6C144.742 205.467 144.455 205.397 144.165 205.397C143.874 205.397 143.588 205.467 143.33 205.6L116.38 221.16C115.93 221.43 115.93 221.86 116.39 222.12Z" fill="white"/>
<path opacity="0.1" d="M128.57 228.87V241C128.375 241.007 128.182 240.963 128.01 240.87L116.11 234C115.944 233.891 115.807 233.743 115.711 233.569C115.615 233.394 115.563 233.199 115.56 233V222.29C115.561 222.091 115.611 221.895 115.707 221.72C115.803 221.545 115.942 221.398 116.11 221.29L116.34 221.15C115.93 221.41 115.94 221.82 116.34 222.08L127.69 228.63C127.955 228.793 128.26 228.876 128.57 228.87V228.87Z" fill="black"/>
<path opacity="0.1" d="M129.56 229.49L129.96 229.26V239.55L129.56 239.78V229.49Z" fill="black"/>
<path opacity="0.1" d="M131.02 228.65L131.42 228.41V238.7L131.02 238.93V228.65Z" fill="black"/>
<path opacity="0.1" d="M132.49 227.8L132.88 227.57V237.86L132.49 238.09V227.8Z" fill="black"/>
<path opacity="0.1" d="M133.95 226.95L134.35 226.72V237.01L133.95 237.24V226.95Z" fill="black"/>
<path opacity="0.1" d="M135.41 226.11L135.81 225.88V236.17L135.41 236.4V226.11Z" fill="black"/>
<path opacity="0.1" d="M136.87 225.26L137.27 225.03V235.32L136.87 235.55V225.26Z" fill="black"/>
<path opacity="0.1" d="M138.34 224.42L138.73 224.19V234.48L138.34 234.71V224.42Z" fill="black"/>
<path opacity="0.1" d="M139.8 223.57L140.2 223.34V233.63L139.8 233.86V223.57Z" fill="black"/>
<path opacity="0.1" d="M141.26 222.73L141.66 222.5V232.79L141.26 233.02V222.73Z" fill="black"/>
<path opacity="0.1" d="M142.72 221.88L143.12 221.65V231.94L142.72 232.17V221.88Z" fill="black"/>
<path opacity="0.1" d="M144.19 221.04L144.58 220.81V231.1L144.19 231.33V221.04Z" fill="black"/>
<path opacity="0.1" d="M145.65 220.19L146.05 219.96V230.25L145.65 230.48V220.19Z" fill="black"/>
<path opacity="0.1" d="M147.11 219.35L147.51 219.12V229.41L147.11 229.64V219.35Z" fill="black"/>
<path opacity="0.1" d="M148.57 218.5L148.97 218.27V228.56L148.57 228.79V218.5Z" fill="black"/>
<path opacity="0.1" d="M150.04 217.66L150.43 217.43V227.72L150.04 227.95V217.66Z" fill="black"/>
<path opacity="0.1" d="M151.5 216.81L151.9 216.58V226.87L151.5 227.1V216.81Z" fill="black"/>
<path opacity="0.1" d="M152.96 215.97L153.36 215.74V226.03L152.96 226.26V215.97Z" fill="black"/>
<path opacity="0.1" d="M154.43 215.12L154.82 214.89V225.18L154.43 225.41V215.12Z" fill="black"/>
<path opacity="0.1" d="M155.89 214.28L156.28 214.05V224.34L155.89 224.57V214.28Z" fill="black"/>
<path opacity="0.1" d="M122.16 226.37L121.76 226.14L121.77 236.43L122.16 236.66V226.37Z" fill="black"/>
<path opacity="0.1" d="M122.97 227.51L127.79 230.29V230.02L122.97 227.24V227.51Z" fill="black"/>
<path opacity="0.1" d="M122.97 236.72L127.79 239.5V239.22L122.97 236.44V236.72Z" fill="black"/>
<path opacity="0.1" d="M122.97 231.2L127.79 233.99V233.71L122.97 230.93V231.2Z" fill="black"/>
<path opacity="0.1" d="M122.97 232.08L127.79 234.86V234.59L122.97 231.81V232.08Z" fill="black"/>
<path opacity="0.1" d="M122.97 232.96L127.79 235.74V235.47L122.97 232.69V232.96Z" fill="black"/>
<path opacity="0.1" d="M116.33 223.69L121.14 226.47V226.19L116.33 223.41V223.69Z" fill="black"/>
<path opacity="0.1" d="M116.33 232.89L121.14 235.67V235.4L116.33 232.62V232.89Z" fill="black"/>
<path opacity="0.1" d="M116.33 227.38L121.14 230.16V229.88L116.33 227.1V227.38Z" fill="black"/>
<path opacity="0.1" d="M116.33 228.26L121.14 231.04V230.76L116.33 227.98V228.26Z" fill="black"/>
<path opacity="0.1" d="M116.33 229.13L121.14 231.92V231.64L116.33 228.86V229.13Z" fill="black"/>
<path d="M143.62 249.87L131.72 243C131.554 242.891 131.417 242.743 131.321 242.568C131.225 242.394 131.173 242.199 131.17 242V231.3C131.173 231.101 131.225 230.906 131.321 230.732C131.417 230.557 131.554 230.409 131.72 230.3L159.23 214.42C159.402 214.331 159.592 214.285 159.785 214.285C159.978 214.285 160.168 214.331 160.34 214.42L172.24 221.29C172.407 221.399 172.546 221.547 172.644 221.721C172.741 221.895 172.795 222.09 172.8 222.29V233C172.795 233.2 172.741 233.395 172.644 233.569C172.546 233.743 172.407 233.891 172.24 234L144.73 249.88C144.558 249.967 144.367 250.011 144.174 250.01C143.981 250.008 143.791 249.96 143.62 249.87V249.87Z" fill="#37474F"/>
<path d="M132 231.14L143.34 237.69C143.598 237.823 143.884 237.893 144.175 237.893C144.466 237.893 144.752 237.823 145.01 237.69L172.01 222.13C172.47 221.86 172.47 221.43 172.01 221.13L160.67 214.58C160.412 214.447 160.126 214.377 159.835 214.377C159.545 214.377 159.258 214.447 159 214.58L132 230.18C131.54 230.45 131.54 230.88 132 231.14Z" fill="#455A64"/>
<path d="M144.18 237.89V250C143.985 250.007 143.792 249.962 143.62 249.87L131.72 243C131.554 242.891 131.417 242.743 131.321 242.568C131.225 242.394 131.173 242.199 131.17 242V231.31C131.17 231.111 131.221 230.914 131.317 230.74C131.413 230.565 131.552 230.417 131.72 230.31L131.95 230.17C131.54 230.43 131.55 230.84 131.95 231.1L143.31 237.65C143.571 237.812 143.873 237.895 144.18 237.89V237.89Z" fill="#F8A77B"/>
<path d="M144.95 238.61L145.35 238.38V248.67L144.95 248.9V238.61Z" fill="#F8A77B"/>
<path d="M146.41 237.76L146.81 237.53V247.82L146.42 248.05L146.41 237.76Z" fill="#F8A77B"/>
<path d="M147.88 236.92L148.28 236.69V246.98L147.88 247.21V236.92Z" fill="#F8A77B"/>
<path d="M149.34 236.07L149.74 235.84V246.13L149.34 246.36V236.07Z" fill="#F8A77B"/>
<path d="M150.8 235.23L151.2 235V245.29L150.8 245.52V235.23Z" fill="#F8A77B"/>
<path d="M152.27 234.38L152.66 234.15V244.44L152.27 244.67V234.38Z" fill="#F8A77B"/>
<path d="M153.73 233.54L154.13 233.31V243.6L153.73 243.83V233.54Z" fill="#F8A77B"/>
<path d="M155.19 232.69L155.59 232.46V242.75L155.19 242.98V232.69Z" fill="#F8A77B"/>
<path d="M156.65 231.85L157.05 231.62V241.91L156.65 242.14V231.85Z" fill="#F8A77B"/>
<path d="M158.12 231L158.51 230.77V241.06L158.12 241.29V231Z" fill="#F8A77B"/>
<path d="M159.58 230.16L159.98 229.93V240.22L159.58 240.45V230.16Z" fill="#F8A77B"/>
<path d="M161.04 229.31L161.44 229.08V239.37L161.04 239.6V229.31Z" fill="#F8A77B"/>
<path d="M162.5 228.47L162.9 228.24V238.53L162.5 238.76V228.47Z" fill="#F8A77B"/>
<path d="M163.97 227.62L164.36 227.39V237.68L163.97 237.91V227.62Z" fill="#F8A77B"/>
<path d="M165.43 226.78L165.83 226.55V236.84L165.43 237.07V226.78Z" fill="#F8A77B"/>
<path d="M166.89 225.93L167.29 225.7V235.99L166.89 236.22V225.93Z" fill="#F8A77B"/>
<path d="M168.35 225.09L168.75 224.86V235.15L168.35 235.38V225.09Z" fill="#F8A77B"/>
<path d="M169.82 224.24L170.21 224.01V234.3L169.82 234.53V224.24Z" fill="#F8A77B"/>
<path d="M171.28 223.4L171.68 223.17V233.46L171.28 233.69V223.4Z" fill="#F8A77B"/>
<path opacity="0.3" d="M137.55 235.49L137.16 235.26V245.55L137.55 245.78V235.49Z" fill="black"/>
<path opacity="0.3" d="M138.37 236.63L143.18 239.41V239.14L138.37 236.36V236.63Z" fill="black"/>
<path opacity="0.3" d="M138.37 245.84L143.18 248.62V248.34L138.37 245.56V245.84Z" fill="black"/>
<path opacity="0.3" d="M138.37 240.32L143.18 243.1V242.83L138.37 240.05V240.32Z" fill="black"/>
<path opacity="0.3" d="M138.37 241.2L143.18 243.98V243.71L138.37 240.93V241.2Z" fill="black"/>
<path opacity="0.3" d="M138.37 242.08L143.18 244.86V244.59L138.37 241.81V242.08Z" fill="black"/>
<path opacity="0.3" d="M131.72 232.81L136.54 235.59V235.31L131.72 232.53V232.81Z" fill="black"/>
<path opacity="0.3" d="M131.72 242.01L136.54 244.79V244.52L131.72 241.74V242.01Z" fill="black"/>
<path opacity="0.3" d="M131.72 236.5L136.54 239.28V239L131.72 236.22V236.5Z" fill="black"/>
<path opacity="0.3" d="M131.72 237.38L136.54 240.16V239.88L131.72 237.1V237.38Z" fill="black"/>
<path opacity="0.3" d="M131.72 238.25L136.54 241.03V240.76L131.72 237.98V238.25Z" fill="black"/>
<path d="M159.23 258.88L147.33 252C147.164 251.89 147.027 251.742 146.931 251.568C146.835 251.394 146.783 251.199 146.78 251V240.32C146.783 240.121 146.835 239.926 146.931 239.751C147.027 239.577 147.164 239.429 147.33 239.32L174.84 223.43C175.012 223.341 175.202 223.295 175.395 223.295C175.588 223.295 175.778 223.341 175.95 223.43L187.85 230.3C188.018 230.408 188.156 230.556 188.254 230.73C188.351 230.905 188.405 231.1 188.41 231.3V242C188.405 242.199 188.351 242.395 188.254 242.569C188.156 242.743 188.018 242.891 187.85 243L160.34 258.88C160.168 258.968 159.978 259.015 159.785 259.015C159.592 259.015 159.402 258.968 159.23 258.88Z" fill="#284BF9"/>
<path opacity="0.3" d="M147.61 240.16L159 246.71C159.26 246.838 159.545 246.904 159.835 246.904C160.125 246.904 160.41 246.838 160.67 246.71L187.67 231.14C188.13 230.88 188.13 230.45 187.67 230.14L176.32 223.59C176.062 223.461 175.778 223.395 175.49 223.395C175.202 223.395 174.918 223.461 174.66 223.59L147.66 239.16C147.15 239.46 147.15 239.89 147.61 240.16Z" fill="white"/>
<path opacity="0.1" d="M159.79 246.9V259C159.595 259.001 159.402 258.953 159.23 258.86L147.33 252C147.164 251.89 147.027 251.742 146.931 251.568C146.835 251.394 146.783 251.199 146.78 251V240.32C146.781 240.12 146.831 239.924 146.927 239.749C147.023 239.575 147.162 239.427 147.33 239.32L147.56 239.18C147.468 239.221 147.392 239.29 147.339 239.376C147.287 239.462 147.262 239.561 147.268 239.662C147.273 239.762 147.309 239.859 147.37 239.939C147.431 240.019 147.515 240.078 147.61 240.11L159 246.71C159.244 246.836 159.515 246.901 159.79 246.9Z" fill="black"/>
<path opacity="0.1" d="M160.78 247.52L161.18 247.29V257.58L160.78 257.81V247.52Z" fill="black"/>
<path opacity="0.1" d="M162.25 246.68L162.64 246.45V256.74L162.25 256.97V246.68Z" fill="black"/>
<path opacity="0.1" d="M163.71 245.83L164.11 245.6V255.89L163.71 256.12V245.83Z" fill="black"/>
<path opacity="0.1" d="M165.17 244.99L165.57 244.76V255.05L165.17 255.28V244.99Z" fill="black"/>
<path opacity="0.1" d="M166.63 244.14L167.03 243.91V254.2L166.63 254.43V244.14Z" fill="black"/>
<path opacity="0.1" d="M168.1 243.3L168.49 243.07V253.36L168.1 253.59V243.3Z" fill="black"/>
<path opacity="0.1" d="M169.56 242.45L169.96 242.22V252.51L169.56 252.74V242.45Z" fill="black"/>
<path opacity="0.1" d="M171.02 241.61L171.42 241.38V251.67L171.02 251.9V241.61Z" fill="black"/>
<path opacity="0.1" d="M172.49 240.76L172.88 240.53V250.82L172.49 251.05V240.76Z" fill="black"/>
<path opacity="0.1" d="M173.95 239.92L174.34 239.69V249.98L173.95 250.21V239.92Z" fill="black"/>
<path opacity="0.1" d="M175.41 239.07L175.81 238.84V249.13L175.41 249.36V239.07Z" fill="black"/>
<path opacity="0.1" d="M176.87 238.23L177.27 238V248.29L176.87 248.51V238.23Z" fill="black"/>
<path opacity="0.1" d="M178.34 237.38L178.73 237.15V247.44L178.34 247.67V237.38Z" fill="black"/>
<path opacity="0.1" d="M179.8 236.54L180.19 236.31V246.6L179.8 246.82V236.54Z" fill="black"/>
<path opacity="0.1" d="M181.26 235.69L181.66 235.46V245.75L181.26 245.98V235.69Z" fill="black"/>
<path opacity="0.1" d="M182.72 234.85L183.12 234.62V244.91L182.72 245.13V234.85Z" fill="black"/>
<path opacity="0.1" d="M184.19 234L184.58 233.77V244.06L184.19 244.29V234Z" fill="black"/>
<path opacity="0.1" d="M185.65 233.16L186.04 232.93V243.22L185.65 243.44V233.16Z" fill="black"/>
<path opacity="0.1" d="M187.11 232.31L187.51 232.08V242.37L187.11 242.6V232.31Z" fill="black"/>
<path opacity="0.1" d="M153.38 244.4L152.99 244.17V254.46L153.38 254.69V244.4Z" fill="black"/>
<path opacity="0.1" d="M154.2 245.55L159.01 248.33V248.05L154.2 245.27V245.55Z" fill="black"/>
<path opacity="0.1" d="M154.2 254.75L159.01 257.53V257.26L154.2 254.47V254.75Z" fill="black"/>
<path opacity="0.1" d="M154.2 249.24L159.01 252.02V251.74L154.2 248.96V249.24Z" fill="black"/>
<path opacity="0.1" d="M154.2 250.12L159.01 252.9V252.62L154.2 249.84V250.12Z" fill="black"/>
<path opacity="0.1" d="M154.2 250.99L159.01 253.78V253.5L154.2 250.72V250.99Z" fill="black"/>
<path opacity="0.1" d="M147.55 241.72L152.37 244.5V244.22L147.55 241.44V241.72Z" fill="black"/>
<path opacity="0.1" d="M147.55 250.93L152.37 253.71V253.43L147.55 250.65V250.93Z" fill="black"/>
<path opacity="0.1" d="M147.55 245.41L152.37 248.19V247.91L147.55 245.13V245.41Z" fill="black"/>
<path opacity="0.1" d="M147.55 246.29L152.37 249.07V248.79L147.55 246.01V246.29Z" fill="black"/>
<path opacity="0.1" d="M147.55 247.17L152.37 249.95V249.67L147.55 246.89V247.17Z" fill="black"/>
<path d="M252.76 205.57L203.32 177.03V157.5L252.76 186.04V205.57Z" fill="#E6E6E6"/>
<path d="M260.56 201.07V181.54L252.76 186.04V205.57L260.56 201.07Z" fill="#E0E0E0"/>
<path d="M260.56 181.54L211.13 153L203.32 157.5L252.76 186.04L260.56 181.54Z" fill="#F5F5F5"/>
<path d="M209.91 166.52L215.12 169.52V172.53L209.91 169.52V166.52Z" fill="#284BF9"/>
<path opacity="0.1" d="M209.91 166.52L210.21 166.69V169.35L209.91 169.52V166.52Z" fill="black"/>
<path opacity="0.2" d="M215.12 172.53L209.91 169.52L210.21 169.35L215.12 172.18V172.53Z" fill="black"/>
<path d="M217.72 171.02L222.92 174.03V177.03L217.72 174.03V171.02Z" fill="#284BF9"/>
<path opacity="0.1" d="M217.72 171.02L218.02 171.19V173.85L217.72 174.03V171.02Z" fill="black"/>
<path opacity="0.2" d="M222.92 177.03L217.72 174.03L218.02 173.85L222.92 176.69V177.03Z" fill="black"/>
<path d="M225.53 175.53L230.73 178.53V181.54L225.53 178.53V175.53Z" fill="#284BF9"/>
<path opacity="0.1" d="M225.53 175.53L225.82 175.7V178.36L225.53 178.53V175.53Z" fill="black"/>
<path opacity="0.2" d="M230.73 181.54L225.53 178.53L225.82 178.36L230.73 181.19V181.54Z" fill="black"/>
<path d="M233.33 180.03L238.53 183.04V186.04L233.33 183.04V180.03Z" fill="#284BF9"/>
<path opacity="0.1" d="M233.33 180.03L233.63 180.21V182.87L233.33 183.04V180.03Z" fill="black"/>
<path opacity="0.2" d="M238.53 186.04L233.33 183.04L233.63 182.87L238.53 185.7V186.04Z" fill="black"/>
<path d="M241.14 184.54L246.34 187.55V190.55L241.14 187.55V184.54Z" fill="#284BF9"/>
<path opacity="0.1" d="M241.14 184.54L241.44 184.72V187.37L241.14 187.55V184.54Z" fill="black"/>
<path opacity="0.2" d="M246.34 190.55L241.14 187.55L241.44 187.37L246.34 190.21V190.55Z" fill="black"/>
<path d="M252.76 186.04V174.03L260.56 169.52V181.54L252.76 186.04Z" fill="#E0E0E0"/>
<path d="M252.76 174.03L242.35 168.02V180.03L252.76 186.04V174.03Z" fill="#E6E6E6"/>
<path d="M260.56 169.52L250.16 163.51L242.35 168.02L252.76 174.03L260.56 169.52Z" fill="#F5F5F5"/>
<path d="M244.95 172.52L250.16 175.53V178.53L244.95 175.53V172.52Z" fill="#284BF9"/>
<path opacity="0.1" d="M244.95 172.52L245.25 172.7V175.36L244.95 175.53V172.52Z" fill="black"/>
<path opacity="0.2" d="M250.16 178.53L244.95 175.53L245.25 175.36L250.16 178.19V178.53Z" fill="black"/>
<path d="M258 168.73V161.49H254.32V168.73C254.336 168.892 254.394 169.046 254.489 169.178C254.584 169.31 254.712 169.414 254.86 169.48C255.262 169.687 255.708 169.795 256.16 169.795C256.612 169.795 257.058 169.687 257.46 169.48C257.608 169.414 257.736 169.31 257.831 169.178C257.926 169.046 257.984 168.892 258 168.73V168.73Z" fill="#37474F"/>
<path d="M254.82 160.74C255.223 160.538 255.668 160.433 256.12 160.433C256.571 160.433 257.016 160.538 257.42 160.74C257.578 160.793 257.715 160.893 257.812 161.028C257.909 161.162 257.962 161.324 257.962 161.49C257.962 161.656 257.909 161.818 257.812 161.953C257.715 162.088 257.578 162.188 257.42 162.24C257.018 162.447 256.572 162.555 256.12 162.555C255.668 162.555 255.222 162.447 254.82 162.24C254.662 162.188 254.525 162.088 254.428 161.953C254.33 161.818 254.278 161.656 254.278 161.49C254.278 161.324 254.33 161.162 254.428 161.028C254.525 160.893 254.662 160.793 254.82 160.74V160.74Z" fill="#455A64"/>
<path d="M239.75 210.03V201.02L200.72 178.48V187.5L239.75 210.03Z" fill="#F0F0F0"/>
<path d="M239.75 210.03L247.56 205.52V196.51L239.75 201.02V210.03Z" fill="#E0E0E0"/>
<path d="M247.56 196.51L208.53 173.98L200.72 178.48L239.75 201.02L247.56 196.51Z" fill="#FAFAFA"/>
<path d="M205.92 184.49L211.13 187.5V190.5L205.92 187.5V184.49Z" fill="#284BF9"/>
<path opacity="0.1" d="M205.92 184.49L206.22 184.66V187.32L205.92 187.5V184.49Z" fill="black"/>
<path opacity="0.2" d="M211.13 190.5L205.92 187.5L206.22 187.32L211.13 190.15V190.5Z" fill="black"/>
<path d="M213.73 189L218.93 192V195.01L213.73 192V189Z" fill="#284BF9"/>
<path opacity="0.1" d="M213.73 189L214.03 189.17V191.83L213.73 192V189Z" fill="black"/>
<path opacity="0.2" d="M218.93 195.01L213.73 192L214.03 191.83L218.93 194.66V195.01Z" fill="black"/>
<path d="M221.53 193.5L226.74 196.51V199.51L221.53 196.51V193.5Z" fill="#284BF9"/>
<path opacity="0.1" d="M221.53 193.5L221.83 193.68V196.34L221.53 196.51V193.5Z" fill="black"/>
<path opacity="0.2" d="M226.74 199.51L221.53 196.51L221.83 196.34L226.74 199.17V199.51Z" fill="black"/>
<path d="M229.34 198.01L234.55 201.02V204.02L229.34 201.02V198.01Z" fill="#284BF9"/>
<path opacity="0.1" d="M229.34 198.01L229.64 198.18V200.84L229.34 201.02V198.01Z" fill="black"/>
<path opacity="0.2" d="M234.55 204.02L229.34 201.02L229.64 200.84L234.55 203.68V204.02Z" fill="black"/>
<path d="M368.15 105.931C365.777 105.931 363.452 106.593 361.435 107.841C359.417 109.09 357.788 110.877 356.73 113.001C356.617 113.233 356.44 113.429 356.221 113.566C356.002 113.702 355.749 113.775 355.49 113.775C355.232 113.775 354.978 113.702 354.759 113.566C354.54 113.429 354.364 113.233 354.25 113.001C353.019 110.53 351.019 108.524 348.551 107.286C346.084 106.048 343.281 105.644 340.564 106.134C337.847 106.625 335.362 107.983 333.483 110.005C331.603 112.028 330.43 114.605 330.14 117.351C331.606 115.431 333.519 113.899 335.712 112.887C337.905 111.875 340.312 111.414 342.724 111.545C345.136 111.675 347.479 112.392 349.551 113.634C351.622 114.876 353.359 116.605 354.61 118.671C354.696 118.829 354.823 118.962 354.978 119.054C355.133 119.147 355.31 119.196 355.49 119.196C355.671 119.196 355.848 119.147 356.002 119.054C356.157 118.962 356.284 118.829 356.37 118.671C357.621 116.605 359.358 114.876 361.43 113.634C363.501 112.392 365.845 111.675 368.256 111.545C370.668 111.414 373.075 111.875 375.268 112.887C377.461 113.899 379.374 115.431 380.84 117.351C380.511 114.215 379.032 111.312 376.689 109.203C374.345 107.094 371.303 105.928 368.15 105.931V105.931Z" fill="#E0E0E0"/>
<path d="M400.59 85.9404C399.184 85.941 397.805 86.3334 396.61 87.0735C395.414 87.8135 394.448 88.8721 393.82 90.1304C393.753 90.2701 393.648 90.3881 393.517 90.4707C393.387 90.5533 393.235 90.5971 393.08 90.5971C392.925 90.5971 392.774 90.5533 392.643 90.4707C392.512 90.3881 392.407 90.2701 392.34 90.1304C391.618 88.6478 390.432 87.4416 388.961 86.6951C387.491 85.9486 385.817 85.7026 384.194 85.9946C382.571 86.2866 381.088 87.1006 379.97 88.3128C378.852 89.525 378.16 91.0691 378 92.7104C378.839 91.6108 379.925 90.7246 381.171 90.1239C382.416 89.5231 383.786 89.2248 385.169 89.253C386.551 89.2813 387.908 89.6354 389.128 90.2865C390.348 90.9376 391.397 91.8674 392.19 93.0004C392.28 93.1451 392.405 93.2645 392.554 93.3473C392.702 93.4301 392.87 93.4736 393.04 93.4736C393.21 93.4736 393.378 93.4301 393.526 93.3473C393.675 93.2645 393.8 93.1451 393.89 93.0004C394.684 91.8674 395.734 90.9376 396.955 90.2865C398.176 89.6354 399.533 89.2814 400.916 89.2531C402.3 89.2249 403.67 89.5232 404.917 90.1239C406.163 90.7246 407.25 91.6107 408.09 92.7104C407.891 90.8572 407.016 89.1424 405.632 87.8936C404.249 86.6447 402.454 85.9494 400.59 85.9404V85.9404Z" fill="#E0E0E0"/>
</svg>
